<svg id="Layer_1" data-name="Layer 1" xmlns="http://www.w3.org/2000/svg" viewBox="0 0 519.2 338.3"><title>Toyota</title><path d="M243.4,321c-27.2-17.1-47.3-75.9-47.3-145.8,0-2.6,0-5.1.1-7.6h0C120.5,155.7,65.8,123.1,64.4,84.5l-0.2.4c-18.5,23-29.1,49.7-29.1,78,0,83.5,91.6,151.9,207.9,157.9ZM0,169.1C0,75.7,116.2,0,259.6,0S519.2,75.7,519.2,169.1,403,338.3,259.6,338.3,0,262.5,0,169.1ZM259.6,24.4c27.7,0,51.2,42,59.9,100.6v-0.1c53.9-8.4,91.6-27.7,91.6-50.2,0-30.2-67.9-54.7-151.5-54.7S108.1,44.5,108.1,74.7c0,22.5,37.7,41.8,91.6,50.2V125C208.4,66.4,232,24.4,259.6,24.4Zm16.8,296.5c116.2-6.1,207.9-74.4,207.9-157.9,0-28.4-10.6-55-29.1-78l-0.2-.4c-1.4,38.6-56.1,71.2-131.8,83.1h0c0.1,2.5.1,5.1,0.1,7.6,0,69.9-20.1,128.8-47.3,145.8ZM259.6,129.3c12.4,0,24.5-.5,36-1.5h0c-5.7-37.6-19.7-64.1-36-64.1s-30.2,26.5-36,64.1h0Q241,129.3,259.6,129.3Zm0,139.1c20.8,0,37.8-43.4,38.7-97.8h0.1c-12.6,1.2-25.6,1.8-38.9,1.8s-26.3-.6-38.9-1.8h0.1C221.8,225,238.8,268.4,259.6,268.4Z"/></svg>