<?xml version="1.0" encoding="utf-8"?>
<!-- Generator: Adobe Illustrator 19.2.1, SVG Export Plug-In . SVG Version: 6.00 Build 0)  -->
<svg version="1.1"
	 id="svg2" inkscape:version="0.48.4 r9939" sodipodi:docname="Beats_Electronics_logo.svg" xmlns:cc="http://creativecommons.org/ns#" xmlns:dc="http://purl.org/dc/elements/1.1/" xmlns:inkscape="http://www.inkscape.org/namespaces/inkscape" xmlns:rdf="http://www.w3.org/1999/02/22-rdf-syntax-ns#" xmlns:sodipodi="http://sodipodi.sourceforge.net/DTD/sodipodi-0.dtd" xmlns:svg="http://www.w3.org/2000/svg"
	 xmlns="http://www.w3.org/2000/svg" xmlns:xlink="http://www.w3.org/1999/xlink" x="0px" y="0px" viewBox="0 0 802 802"
	 style="enable-background:new 0 0 802 802;" xml:space="preserve">
<style type="text/css">
	.st0{fill:#FFFFFF;}
</style>
<sodipodi:namedview  bordercolor="#666666" borderopacity="1" gridtolerance="10" guidetolerance="10" id="namedview13" inkscape:current-layer="svg2" inkscape:cx="426.61669" inkscape:cy="486.44238" inkscape:pageopacity="0" inkscape:pageshadow="2" inkscape:window-height="837" inkscape:window-maximized="1" inkscape:window-width="1600" inkscape:window-x="-8" inkscape:window-y="-8" inkscape:zoom="0.55858475" objecttolerance="10" pagecolor="#ffffff" showgrid="false">
	</sodipodi:namedview>
<path id="path3005" sodipodi:cx="-623.00305" sodipodi:cy="23.246195" sodipodi:rx="139.63861" sodipodi:ry="139.63861" sodipodi:type="arc" class="st0" d="
	M801,401c0,220.9-179.1,400-400,400S1,621.9,1,401S180.1,1,401,1S801,180.1,801,401z"/>
<path id="path22" inkscape:connector-curvature="0" d="M522.9,401c0-67.3-54.6-121.9-121.9-121.9c-67.3,0-121.9,54.6-121.9,121.9
	c0,67.3,54.6,121.9,121.9,121.9C468.3,522.9,522.9,468.3,522.9,401"/>
<path id="path24" inkscape:connector-curvature="0" d="M401,1c-38.1,0-74.9,5.4-109.8,15.4v216.2c31.6-20.6,69.3-32.7,109.8-32.7
	c111,0,201.1,90,201.1,201.1s-90,201.1-201.1,201.1c-111.1,0-201.1-90-201.1-201.1c0-3.6,0.1-7.1,0.3-10.6l-0.3,0.2V55.2
	C81,124.6,1,253.4,1,401c0,220.9,179.1,400,400,400c220.9,0,400-179.1,400-400C801,180.1,621.9,1,401,1"/>
</svg>
