<svg id="Layer_1" data-name="Layer 1" xmlns="http://www.w3.org/2000/svg" viewBox="0 0 390.4 497.1"><title>Target_logo</title><path d="M196.3,322.4c-71.3,0-129.1-57.7-129.1-128.9A129.05,129.05,0,1,1,196.3,322.4M196.3,0C89.5,0,2.9,86.6,2.9,193.5S89.5,386.9,196.3,386.9s193.6-86.6,193.6-193.4S303.1,0,196.3,0Z"/><path d="M196.3,127.2a66.3,66.3,0,1,0,66.4,66.3,66.26,66.26,0,0,0-66.4-66.3"/><polyline points="21.4 437.3 0 437.3 0 424.2 58.3 424.2 58.3 437.3 37 437.3 37 495.3 21.4 495.3 21.4 437.3"/><path d="M51.6,495.3H67.4L73,479.4H99.6l5.4,15.9h16.2L94.6,424.1h-16l-27,71.2m34.7-53.6h0.2l9,26.1H77.1Z"/><path d="M127.4,495.3h15.7V467.5h15.6c7.9,0,10.8,3.3,11.9,10.8,0.8,5.7.6,12.6,2.5,17.1h15.6c-2.8-4-2.7-12.4-3-16.9-0.5-7.2-2.7-14.7-10.4-16.6v-0.2c7.9-3.2,11.3-9.5,11.3-17.8,0-10.8-8.1-19.6-20.8-19.6H127.4v71m15.7-59h17.1c7,0,10.8,3,10.8,9.9,0,7.2-3.8,10.2-10.8,10.2H143.1V436.3Z"/><path d="M248.8,487.3a24.12,24.12,0,0,1-19.5,9.8c-22,0-35-16.5-35-37,0-21.1,13-37.6,35-37.6,14.5,0,28.3,9,30,25.1h-15c-1.8-7.9-7.7-12-15.1-12-14.1,0-19.3,12-19.3,24.4,0,11.9,5.3,23.8,19.3,23.8,10.2,0,16-5.5,16.9-15.4H230.4V456.8h29.9v38.5h-10l-1.5-8"/><polyline points="271.1 424.2 324.3 424.2 324.3 437.3 286.7 437.3 286.7 452.6 321.2 452.6 321.2 464.7 286.7 464.7 286.7 482.2 325.1 482.2 325.1 495.3 271.1 495.3 271.1 424.2"/><polyline points="353.4 437.3 332.1 437.3 332.1 424.2 390.4 424.2 390.4 437.3 369 437.3 369 495.3 353.4 495.3 353.4 437.3"/></svg>