<?xml version="1.0" encoding="utf-8"?>
<!-- Generator: Adobe Illustrator 19.2.1, SVG Export Plug-In . SVG Version: 6.00 Build 0)  -->
<svg version="1.1"
	 id="svg3003" inkscape:version="0.48.0 r9654" sodipodi:docname="Starbucks_Corporation_Logo_2011.svg" xmlns:cc="http://creativecommons.org/ns#" xmlns:dc="http://purl.org/dc/elements/1.1/" xmlns:inkscape="http://www.inkscape.org/namespaces/inkscape" xmlns:rdf="http://www.w3.org/1999/02/22-rdf-syntax-ns#" xmlns:sodipodi="http://sodipodi.sourceforge.net/DTD/sodipodi-0.dtd" xmlns:svg="http://www.w3.org/2000/svg"
	 xmlns="http://www.w3.org/2000/svg" xmlns:xlink="http://www.w3.org/1999/xlink" x="0px" y="0px" viewBox="0 0 297.5 299"
	 style="enable-background:new 0 0 297.5 299;" xml:space="preserve">
<style type="text/css">
	.st0{display:none;}
	.st1{display:none;fill:#FFFFFF;}
	.st2{fill:none;}
	.st3{display:none;fill:none;}
	.st4{display:inline;fill:#007042;}
</style>
<title  id="title3036">Starbucks Corporation
 Logo</title>
<sodipodi:namedview  bordercolor="#666666" borderopacity="1" gridtolerance="10" guidetolerance="10" id="namedview3015" inkscape:current-layer="svg3003" inkscape:cx="108.82718" inkscape:cy="219.77498" inkscape:pageopacity="0" inkscape:pageshadow="2" inkscape:window-height="750" inkscape:window-maximized="1" inkscape:window-width="1280" inkscape:window-x="-8" inkscape:window-y="-8" inkscape:zoom="2.3162919" objecttolerance="10" pagecolor="#ffffff" showgrid="false">
	</sodipodi:namedview>
<g id="text3021" transform="matrix(2.7809611,0,0,2.7809611,-616.7962,-1116.1732)" class="st0">
</g>
<g id="g4387">
	<path id="path3040" class="st1" d="M298.7,150c0,82.6-66.6,149.5-148.7,149.5S1.3,232.6,1.3,150S67.9,0.5,150,0.5
		S298.7,67.4,298.7,150z"/>
	<g>
		<path class="st2" d="M159.7,84.7c-3.2-0.4-6.5-0.7-9.7-0.7c-0.6,0-1.2,0-1.8,0c-9.1,0.2-17.8,2.5-23.2,10c-0.8,2.1-4.1,5.1-1,7
			c7-0.4,15-1.3,19.7,4.7c0,5.3,3.5,12.5-2.3,15c-4.8-4.4-10.5,1.9-15.7-1.7c-2.5-1.4-4,0.2-5,2.4c-1.4,13.8,5.8,29,18.7,36.7
			c5.2,1.9,12.3,3.7,17.7,1c13.1-6.1,18.6-20.1,21-33c-0.3-2.5-0.2-7.2-3.7-7.4c-3.9,2.5-9.6,1-13.7,0c-2.4,0.8-2.6,4.4-5.3,5
			l-1.7-1.3c-1.4-6.1-2.3-14.8,3.3-19c6.3-2.6,13.8-3.7,20.4-1.7c1.3-2.1-0.6-3.8-1-5.6C173.3,89.2,166.2,86.4,159.7,84.7z
			 M149.4,149.2c-6,0.4-7.4-4.5-11.7-7.4l-0.3-2c8,1.2,16.8-0.4,24,0.7C158.7,144.5,154.7,149.5,149.4,149.2z"/>
		<path class="st3" d="M49.7,99.1c-1-10.1-5.1-19.4-13.7-26c-0.8-0.4-2-1.3-3-1.3c-0.6,0-1.2,0.2-1.7,1
			c3.9,23.9-11.7,40.6-22.7,58.7c3.7,3,9.6,2.6,14,1.7c11.7-4.7,22.8-12.8,36.7-10c4.1-7,11-13.8,16.7-19.4c3.5-3.1,8.2-5,10.7-8.4
			C75.1,87.8,60.5,95,49.7,99.1z"/>
		<path class="st3" d="M124.3,113.4c3.5-4.8,9.6-1,13.3-0.7v-1.3c-2.1-3.3-6.3-4.9-10.7-4.7c-1,0-2,0.2-3,0.4
			c-1.3,0.3-2.3,1.6-1.9,3.3C121.8,111.8,122.1,114.4,124.3,113.4z"/>
		<path class="st2" d="M168.4,107c-2.3,1.6-9.1,0.4-6.7,5.7c4.2-3.3,10.1-1,14.4,0.7c1.6-0.8,1.2-2.3,1.3-3.7
			c-1.3-2.5-4.5-2.7-7.7-2.7C169.3,107,168.8,107,168.4,107z"/>
		<path class="st2" d="M290.9,131.4c-10.5-17.4-26-33.4-21.7-56.1c0.5-1.5-0.5-3.1-2-3.3c-6.8,2.8-12,9.5-14.7,16
			c-1.1,3.9-1.8,8-3.3,11.7c-8.1-4.2-16.8-8.3-26.7-7.3c-3.6,0.4-8.7,0.7-9.3,4.3c11.2,6,20.5,16,27.4,26.7
			c4.7-0.8,10.6-0.1,15.6,0.7C267.5,127.1,278.9,139.5,290.9,131.4z"/>
		<path class="st2" d="M195.5,66.4c-0.7-6.4,4.2-13.2,5.3-19.7c-12.2,0.8-21.9,8.1-32,14c-2.3-5.7-4.7-11.3-7-17L175.1,31l0.3-1.7
			l-18-1c-3.1-5.4-4.3-12-8-17c-3,5.7-5,11.7-8,17.3l-18,1V31l13.7,12.3c-1.7,6.3-3.2,13.2-7.3,18c-8-4.8-15.9-10-24.7-13.3
			c-2.1-0.7-5.1-1.8-7-0.3c2.8,6.1,6.7,12.7,6,19.4c-3.7-0.7-6.6-3-10-4c-4.1-1.1-9-3.3-13-2c6.7,9.3,12.1,19.1,14,30.4
			c22.1-10.7,48-16.6,74.8-12c12.6,2,24.1,7.1,35.4,11.3c0.3-11.9,7.8-21.3,12.9-30.8C210,59.6,203.1,64.2,195.5,66.4z M162.1,66.4
			c-8.3-0.9-17.1,0.2-25,0.3c-0.9-0.9-2.7-2.2-1-3.3l12.7-9.7c5.2,3,10.8,6.9,15,11L162.1,66.4z"/>
		<path d="M136.1,63.4c-1.7,1.1,0.1,2.4,1,3.3c7.9-0.1,16.7-1.2,25-0.3l1.7-1.7c-4.2-4.1-9.8-8-15-11L136.1,63.4z"/>
		<path d="M137.4,139.8l0.3,2c4.3,2.9,5.7,7.8,11.7,7.4c5.3,0.3,9.3-4.7,12-8.7C154.2,139.4,145.4,141,137.4,139.8z"/>
		<path d="M296.3,154.6c-17.2,6.8-28.5-10.4-45-10.3c-2.1-2.4-2.7-5.4-3.7-8.3c18.6-6,30.9,20.8,49.1,7
			c-1.5-22.6-6.3-43.8-16.7-62.7c-11-21.5-31.1-42.8-52.1-55.7C206.2,9.3,177.1,1.8,148.3,2c-23.9,0.2-47.6,5.7-66.6,16.3
			C34.6,42.2,6.3,90.8,2.6,141.1l1.3,2.7c17.7,9.5,29.1-11.3,46.4-9c3.8,1.7-0.8,4.7-0.7,7.3c-1.3,3.4-6,1.8-9,2.7
			c-11.8,5.1-23.9,15.1-37.7,9.7c0,0,0.1,1,0.2,2.5c0.3,3.8,0.8,10.5,0.8,10.5c15.4,5,25.4-11.2,40-9.3c-0.3,3.2-0.5,6.7-2.3,9
			c-13.3,0.7-21.7,13.3-35.7,12.4l2.7,10.7c12.1,1.2,19.9-11.2,32-10l-0.3,8c-10.7,1-17.6,11-28.4,11.7c1.4,24.7,18.5-3.8,29.3,1
			c0.4,2.6,2,5.2,1,8c-8.7-0.1-14.1,7.4-21.7,10c1.4,3.1,2.3,7.6,5.7,8.7c6.5-2.7,11.7-8.3,19.4-8c-0.9-2.8-1.6-6.7-1.3-9.3
			c9.6,2.6,15.2-5,22-9.3c1.5-13.7,11.1-24.1,17-36c0.6-2.6,0.8-5.2,0.8-7.8c-0.3-14.5-9-28.5-2.1-43.6c2.1-5.9,5.8-13.6,12-15.3
			c-11.4,13.7-9.3,34.6-3.3,50.1c1.2,3.1,1.6,6,1.5,8.8c-0.5,12.2-11.8,21.5-16.2,32.5c-5.4,11-0.4,23.6,5.7,32.7
			c-8.8,6.8-16.9,15.5-28.4,15.7c-3.2-1.6-3.3-6-5-9c-6.8-1.3-12.2,3.4-17.7,6.7l6.3,8c4.7-2.3,10.1-7,15.4-3.7
			c7.9,9.3-7.7,4.6-9.7,10.3c2.2,3,4.9,5.2,7.7,7.7c3.2-1,5.8-3.5,9.7-3c1.6,1.9,3.3,3.8,4,6l-6,3.7c4.3,4.5,9.8,8.7,15,10.7
			c3.1-10.5,11.5-18.6,15.3-28.6c0.8-3.9,1-8.6,2-12c11.3,17.5-12.3,27.8-12.3,44.4c2.4,2.3,5.4,3.5,8.3,4.7
			c-0.5-13,10.4-21.4,15-32.4c8.4-17.5-10.9-28.4-17-42.4c-5.7-12.7,2.4-24.7,10.4-34.1c5.5-6.1,7-12,6.5-17.9
			c-1.1-13.4-12.1-26.9-7.5-41.9c2.6-9.4,6.6-20.5,16.3-24.4c-7,8.1-10.7,17.6-11.1,28.1c-1.9,14.7,9.8,24.9,10.5,37.9
			c0.1,2.6-0.2,5.3-1.1,8.2c-5.5,11.8-17.8,20.7-17.7,34.7c-1.5,18.4,22.7,25.5,20,44.4c-0.2,16.5-19.1,25.6-15,43.4l10.4,3.4
			c-5.9-20.1,14.9-31.2,15-49.1c1-15.1-15.3-23-19.4-36c-4.4-13,5.1-23.3,12.3-33.1c3.5-5.5,4.4-10.7,3.8-15.8
			c-1.5-12.6-11.7-24.4-11.2-38.2c-0.3-12.6,5.3-25.1,16.3-31c-3.3,4.8-7.1,9.4-9,14.7c-6.9,18.7,4.7,34.7,10.4,50.7
			c0.4,1.3,0.7,2.6,0.9,3.8c2.1,14.9-13.1,24.3-16,37.9c-3.9,16.5,13.8,24,17.7,37.7c8.4,22.3-18.6,35.3-12.3,57.7
			c-0.1,6.6,7.6,4.1,11.7,5.4c-10-18.5,6.1-33.7,11-49.7c5.4-17.2-10.9-26.9-17.7-40.1c-7.1-14.9,9.1-24.1,12.7-36.7
			c3-8.6,10.7-0.7,15.7-1.7c6.8,1.2,12.7-5.5,18.4-0.7c2.8,11.3,15.9,18.4,16,30.7c-0.4,19.2-28.1,29.2-19.3,50.1
			c7.2,14.6,19.5,31.3,11.3,48.1l10.3-2.3c6.9-17.2-5.9-30.5-12-44.4c-5.5-15.9,8.4-27.8,16.7-40c7.9-14.8-4.8-27-12-38.4
			c-2.5-4.7-3-9.2-2.4-13.5c1.3-9.1,7.5-17.7,10.4-26.2c6.1-14.6,2.7-32.7-8.7-43.7l0.3-0.3c5.6,3.3,10.7,9.2,13.3,15
			c9.8,19.5-4.2,36.9-7.6,55.2l-0.4,2.2c-0.3,12.9,10.3,19.1,15.4,29.4c8.6,16.6-6.5,28.4-15,41c-13.7,23.4,19,37.2,12.3,60.7
			l10-3.3c2.6-12.6-6.9-22.8-13-33c-8.4-17.2,6.7-30.4,15.4-43.4c7.7-16.2-5.6-29.9-13.3-42.4c-2.4-3.6-3.2-7.4-3-11.2
			c0.4-7.3,4.4-14.7,7.3-20.9c5.8-15.6,1.8-34.5-8.3-46.1c6.8,2.8,11.8,10.3,14,17c8,16.5-1.8,33.1-5,48.7v1.2
			c-0.2,14.9,14,23.2,18,36.5c3.9,13.8-7.1,23.4-13.7,33.4c-19.7,20.5,11,35.9,10.7,56.1c2.9-1.2,6.6-1.8,8.3-4.7
			c-1.4-11.3-11-19.2-15-29.4c-0.2-4.9-1.3-10.9,2-14.7l0.7,0.7c-1.3,16.4,13,26.3,17.3,40.4c5.1-3,10.3-5.9,14.4-10.3
			c-1.6-1.6-3.9-2.8-6-3.7c-1.1-2.4,2.1-4.8,3.7-7l9.3,3.3c2.8-2.6,5.8-4.7,7.4-8c-3.3-2.4-7-4-11-4.7c-0.1-2.5,1.3-4.5,3-6.3
			c5.7-0.2,10.1,2.5,14.7,4.7c2.4-2.2,5.1-5.1,6-8.3l-12-6c-8.2-5.2-6,6.1-10,8.7c-11.2-0.5-19.2-8.4-27.7-15.4c1-5.1,5.1-9,6.4-14
			c4.9-16.3-8.2-28.7-15.4-41.7c-1.8-3.2-2.5-6.3-2.5-9.5c0.1-8.9,5.5-17.7,5.8-26.9c2.7-11.9-2.8-23.3-7.4-33
			c3.2,1.9,6.5,4.5,8.4,7.7c6.2,12.2,8,29.3,2.3,42.4c-1.4,3.6-1.9,6.8-1.7,9.9c0.9,15.3,18.2,26.1,18.4,42.5
			c6.7,5,12.7,13.4,21.7,10.7c0.7,3.3-1.1,6.7-1,9.7c8-0.4,13.4,5.6,20.4,7.7c1.6-2.9,4.5-5.8,4.3-9c-7.9-2.3-13.6-10.1-22.4-10.3
			l1.6-7.7c9.2-0.2,16,7.6,24.7,9.7c3-2.2,4-6.3,5-10c-10.6-1.7-18.3-10.7-29-12.4c0.3-2.7-0.5-5.8,0.7-8c10.1,0,16.8,8.2,26,10.4
			c8.9,4.2,6-6.4,8-10.4c-14.2,0.6-22.7-12.6-36.4-13l-1.7-8.4c14.7-2.4,24.8,13.7,40,9.4c1.5-3.9,1.1-7.1,1-10.9V154.6z M76,103.8
			c-5.7,5.6-12.6,12.4-16.7,19.4c-13.9-2.8-25,5.3-36.7,10c-4.4,0.9-10.3,1.3-14-1.7c11-18.1,26.6-34.8,22.7-58.7
			c0.5-0.8,1.1-1,1.7-1c1,0,2.2,0.9,3,1.3c8.6,6.6,12.7,15.9,13.7,26c10.8-4.1,25.4-11.3,37-3.7C84.2,98.8,79.5,100.7,76,103.8z
			 M123.9,107.1c1-0.2,2-0.4,3-0.4c4.4-0.2,8.6,1.4,10.7,4.7v1.3c-3.7-0.3-9.8-4.1-13.3,0.7c-2.2,1-2.5-1.6-2.3-3
			C121.6,108.7,122.6,107.4,123.9,107.1z M177.4,101.7c-6.6-2-14.1-0.9-20.4,1.7c-5.6,4.2-4.7,12.9-3.3,19l1.7,1.3
			c2.7-0.6,2.9-4.2,5.3-5c4.1,1,9.8,2.5,13.7,0c3.5,0.2,3.4,4.9,3.7,7.4c-2.4,12.9-7.9,26.9-21,33c-5.4,2.7-12.5,0.9-17.7-1
			c-12.9-7.7-20.1-22.9-18.7-36.7c1-2.2,2.5-3.8,5-2.4c5.2,3.6,10.9-2.7,15.7,1.7c5.8-2.5,2.3-9.7,2.3-15c-4.7-6-12.7-5.1-19.7-4.7
			c-3.1-1.9,0.2-4.9,1-7c5.4-7.5,14.1-9.8,23.2-10c0.6,0,1.2,0,1.8,0c3.2,0,6.5,0.3,9.7,0.7c6.5,1.7,13.6,4.5,16.7,11.4
			C176.8,97.9,178.7,99.6,177.4,101.7z M177.4,109.7c-0.1,1.4,0.3,2.9-1.3,3.7c-4.3-1.7-10.2-4-14.4-0.7c-2.4-5.3,4.4-4.1,6.7-5.7
			c0.4,0,0.9,0,1.3,0C172.9,107,176.1,107.2,177.4,109.7z M205.3,90.8c-11.3-4.2-22.8-9.3-35.4-11.3c-26.8-4.6-52.7,1.3-74.8,12
			c-1.9-11.3-7.3-21.1-14-30.4c4-1.3,8.9,0.9,13,2c3.4,1,6.3,3.3,10,4c0.7-6.7-3.2-13.3-6-19.4c1.9-1.5,4.9-0.4,7,0.3
			c8.8,3.3,16.7,8.5,24.7,13.3c4.1-4.8,5.6-11.7,7.3-18L123.4,31v-1.4l18-1c3-5.6,5-11.6,8-17.3c3.7,5,4.9,11.6,8,17l18,1l-0.3,1.7
			l-13.3,12.7c2.3,5.7,4.7,11.3,7,17c10.1-5.9,19.8-13.2,32-14c-1.1,6.5-6,13.3-5.3,19.7c7.6-2.2,14.5-6.8,22.7-6.4
			C213.1,69.5,205.6,78.9,205.3,90.8z M240.6,123.4c-6.9-10.7-16.2-20.7-27.4-26.7c0.6-3.6,5.7-3.9,9.3-4.3c9.9-1,18.6,3.1,26.7,7.3
			c1.5-3.7,2.2-7.8,3.3-11.7c2.7-6.5,7.9-13.2,14.7-16c1.5,0.2,2.5,1.8,2,3.3c-4.3,22.7,11.2,38.7,21.7,56.1
			c-12,8.1-23.4-4.3-34.7-7.3C251.2,123.3,245.3,122.6,240.6,123.4z"/>
		<path d="M142.1,131.3c0.6,0.1,1,0.3,1.5,0.4c0.7,0.2,1.3,0.5,1.8,0.8c1,0.5,1.8,0.9,3.1,1c1.6,0,2.1-0.2,3.3-0.8
			c0.8-0.3,1.8-0.8,3.6-1.4c0.3-0.1,0.7-0.8,0.2-1.3c-2.9-2.8-4.9-0.8-6.6-0.8c-1,0-2-0.3-2.9-0.6c-1.3-0.3-2.7-0.4-4.1,1.2
			C141.6,130.5,141.4,131,142.1,131.3z"/>
	</g>
	<g id="text4354" class="st0">
		<path id="path4430" class="st4" d="M257.2,296.7v-14.3h-5.1v-2.9h13.7v2.9h-5.1v14.3H257.2z"/>
		<path id="path4432" class="st4" d="M267.9,296.7v-17.2h5.2l3.1,11.7l3.1-11.7h5.2v17.2h-3.2v-13.5l-3.4,13.5h-3.3l-3.4-13.5v13.5
			H267.9z"/>
	</g>
</g>
</svg>
