<svg id="Layer_1" data-name="Layer 1" xmlns="http://www.w3.org/2000/svg" viewBox="0 0 431.9 432"><title>HP_New_Logo_2D</title><path d="M216,432c-2.1,0-4.3,0-6.4-.1l44.1-121.3h60.8c10.7,0,22.4-8.2,26-18.2l47.9-131.5c7.8-21.5-4.5-39.2-27.4-39.2H276.7L206,316h0L165.8,426.1C70.7,403.5,0,318,0,216A216,216,0,0,1,157.7,8L116.3,121.7h0L47.5,310.5H93.3L151.8,150h34.4L127.7,310.5h45.8L228,160.7c7.8-21.5-4.5-39.2-27.4-39.2H162.1L206.2,0.2c3.2-.1,6.5-0.2,9.7-0.2,119.3,0,216,96.7,216,216S335.2,432,216,432ZM346.6,149.9H312.2L264.1,282h34.4Z"/></svg>