<svg id="Layer_1" data-name="Layer 1" xmlns="http://www.w3.org/2000/svg" viewBox="0 0 196 69.85"><title>Logo_NIKE</title><path d="M23.62,70.9q-8.76-.35-14.35-4.8a28.67,28.67,0,0,1-3-3A18.63,18.63,0,0,1,3.05,57.3C0.94,51,2,42.66,6.16,33.54c3.54-7.81,9-15.55,18.55-26.27,1.4-1.58,5.59-6.19,5.62-6.19s-0.22.39-.51,0.88a56.21,56.21,0,0,0-5.76,13.28c-1.86,6.8-1.63,12.63.66,17.15a16.75,16.75,0,0,0,7.33,7.31c5.33,2.61,13.13,2.83,22.66.63,0.66-.15,33.16-8.78,72.24-19.18L198,2.26s-90.78,38.86-137.91,59c-7.46,3.19-9.46,4-13,5.23C38.15,69.65,30.12,71.16,23.62,70.9Z" transform="translate(-2 -1.07)"/></svg>