<svg id="Layer_1" data-name="Layer 1" xmlns="http://www.w3.org/2000/svg" viewBox="0 0 561.26 373.44"><title>Adidas_Logo</title><g id="_Group_" data-name="&lt;Group&gt;"><path d="M558.47,303.43H534c-0.76-4.06-1.94-6.92-3.55-8.53-2.62-2.62-7.09-4-13.26-4s-10.3,1-12.66,3a7.86,7.86,0,0,0-2.71,6.25c0,3.71,5.16,6.67,15.37,9a243.54,243.54,0,0,1,25.17,6.5c1.35,0.51,2.53.93,3.38,1.35,10.39,4.9,15.54,12.34,15.54,22.3,0,12.16-5.07,21-15.12,26.6-1.27.68-2.45,1.27-3.8,1.86A57.16,57.16,0,0,1,519.71,372c-12.75,0-23.06-2.28-30.91-6.76a29.19,29.19,0,0,1-11.09-10.83A30.47,30.47,0,0,1,474,339.15h25.67c0,4.39,1.61,7.86,4.73,10.22s8.45,3.72,16,3.72q8.49,0,12.67-3.55a7.92,7.92,0,0,0,3.21-6.25c0-4-5.06-7.09-15.12-9.29-15-3.21-24.49-5.83-28.37-7.69-10.3-4.81-15.37-12.24-15.37-22.55,0-8.27,2.62-15.28,8-21,6.76-7.18,16.89-10.73,30.32-10.73,11.06,0,19.93,1.61,26.6,4.73a9.43,9.43,0,0,1,1.61.85A26.76,26.76,0,0,1,554.82,288,31,31,0,0,1,558.47,303.43Z"/><polygon points="413.38 127.52 482.72 243.05 413.38 243.05 371.33 243.05 305.12 132.67 254.96 49.15 305.12 19 336.7 0 413.38 127.52"/><path d="M463.72,323.27v47.38H440.66v-5.24a49.32,49.32,0,0,1-27,8h-0.26a50.17,50.17,0,0,1,0-100.33h0.26a49.39,49.39,0,0,1,27,8v-5.49h23.06v47.63Zm-23.06,5.24V318a27.62,27.62,0,0,0-27-22.3h-0.26a27.58,27.58,0,0,0,0,55.15h0.26A27.69,27.69,0,0,0,440.66,328.51Z"/><path d="M355.45,323.27v47.38h-23v-5.24a49.56,49.56,0,0,1-27,8h-0.25a50.17,50.17,0,0,1,0-100.33h0.25a49.62,49.62,0,0,1,27,8V243.05h23v80.22Zm-23.05,5.24V318a27.63,27.63,0,0,0-27-22.3h-0.25a27.58,27.58,0,0,0,0,55.15h0.25A27.7,27.7,0,0,0,332.4,328.51Z"/><polygon points="305.12 197.61 332.31 243.05 305.12 243.05 221 243.05 159.19 140.19 156.49 135.71 159.19 134.11 238.32 86.47 305.12 197.61"/><rect x="221.09" y="273.11" width="25.08" height="97.54"/><rect x="221.09" y="243.55" width="25.08" height="22.04"/><path d="M209.6,323.27v47.38H186.55v-5.24a49.8,49.8,0,0,1-27.11,8h-0.25a50.17,50.17,0,0,1,0-100.33h0.25a49.87,49.87,0,0,1,27.11,8V243.05H209.6v80.22Zm-23.05,5.24V318a27.65,27.65,0,0,0-27.11-22.3h-0.25a27.58,27.58,0,0,0,0,55.15h0.25A27.72,27.72,0,0,0,186.55,328.51Z"/><polygon points="159.19 205.04 181.99 243.05 159.19 243.05 70.6 243.05 58.1 222.19 139.93 173.04 159.19 205.04"/><path d="M100.24,323.27v47.38h-23v-5.24a49.85,49.85,0,0,1-27.11,8H49.82a50.17,50.17,0,0,1,0-100.33h0.26a49.92,49.92,0,0,1,27.11,8v-5.49h23.05v47.63Zm-23,5.24V318a27.65,27.65,0,0,0-27.11-22.3H49.82a27.58,27.58,0,0,0,0,55.15h0.26A27.72,27.72,0,0,0,77.19,328.51Z"/></g></svg>