<?xml version="1.0" encoding="utf-8"?><svg xmlns="http://www.w3.org/2000/svg" xmlns:xlink="http://www.w3.org/1999/xlink" class="hidden"><symbol viewBox="0 0 561.26 373.44" id="hero--hero-logo-Adidas_Logo"><title>Adidas_Logo</title><path d="M558.47 303.43H534c-.76-4.06-1.94-6.92-3.55-8.53-2.62-2.62-7.09-4-13.26-4s-10.3 1-12.66 3a7.86 7.86 0 0 0-2.71 6.25c0 3.71 5.16 6.67 15.37 9a243.54 243.54 0 0 1 25.17 6.5c1.35.51 2.53.93 3.38 1.35 10.39 4.9 15.54 12.34 15.54 22.3 0 12.16-5.07 21-15.12 26.6-1.27.68-2.45 1.27-3.8 1.86a57.16 57.16 0 0 1-22.65 4.24c-12.75 0-23.06-2.28-30.91-6.76a29.19 29.19 0 0 1-11.09-10.83 30.47 30.47 0 0 1-3.71-15.26h25.67c0 4.39 1.61 7.86 4.73 10.22s8.45 3.72 16 3.72q8.49 0 12.67-3.55a7.92 7.92 0 0 0 3.21-6.25c0-4-5.06-7.09-15.12-9.29-15-3.21-24.49-5.83-28.37-7.69-10.3-4.81-15.37-12.24-15.37-22.55 0-8.27 2.62-15.28 8-21 6.76-7.18 16.89-10.73 30.32-10.73 11.06 0 19.93 1.61 26.6 4.73a9.43 9.43 0 0 1 1.61.85A26.76 26.76 0 0 1 554.82 288a31 31 0 0 1 3.65 15.43zM413.38 127.52l69.34 115.53H371.33l-66.21-110.38-50.16-83.52L305.12 19 336.7 0l76.68 127.52zm50.34 195.75v47.38h-23.06v-5.24a49.32 49.32 0 0 1-27 8h-.26a50.17 50.17 0 0 1 0-100.33h.26a49.39 49.39 0 0 1 27 8v-5.49h23.06v47.63zm-23.06 5.24V318a27.62 27.62 0 0 0-27-22.3h-.26a27.58 27.58 0 0 0 0 55.15h.26a27.69 27.69 0 0 0 27-22.34zm-85.21-5.24v47.38h-23v-5.24a49.56 49.56 0 0 1-27 8h-.25a50.17 50.17 0 0 1 0-100.33h.25a49.62 49.62 0 0 1 27 8v-38.03h23v80.22zm-23.05 5.24V318a27.63 27.63 0 0 0-27-22.3h-.25a27.58 27.58 0 0 0 0 55.15h.25a27.7 27.7 0 0 0 27-22.34zm-27.28-130.9l27.19 45.44H221l-61.81-102.86-2.7-4.48 2.7-1.6 79.13-47.64 66.8 111.14zm-84.03 75.5h25.08v97.54h-25.08zm0-29.56h25.08v22.04h-25.08zm-11.49 79.72v47.38h-23.05v-5.24a49.8 49.8 0 0 1-27.11 8h-.25a50.17 50.17 0 0 1 0-100.33h.25a49.87 49.87 0 0 1 27.11 8v-38.03h23.05v80.22zm-23.05 5.24V318a27.65 27.65 0 0 0-27.11-22.3h-.25a27.58 27.58 0 0 0 0 55.15h.25a27.72 27.72 0 0 0 27.11-22.34zm-27.36-123.47l22.8 38.01H70.6l-12.5-20.86 81.83-49.15 19.26 32zm-58.95 118.23v47.38h-23v-5.24a49.85 49.85 0 0 1-27.11 8h-.31a50.17 50.17 0 0 1 0-100.33h.26a49.92 49.92 0 0 1 27.11 8v-5.49h23.05v47.63zm-23 5.24V318a27.65 27.65 0 0 0-27.11-22.3h-.31a27.58 27.58 0 0 0 0 55.15h.26a27.72 27.72 0 0 0 27.11-22.34z" data-name="&lt;Group&gt;"/></symbol><symbol id="hero--hero-logo-Beats_Electronics_logo_1.14.12_PM" viewBox="0 0 802 802"><style>.bst0{fill:#fff}</style><path id="bpath3005" class="bst0" d="M801 401c0 220.9-179.1 400-400 400S1 621.9 1 401 180.1 1 401 1s400 179.1 400 400z"/><path id="bpath22" d="M522.9 401c0-67.3-54.6-121.9-121.9-121.9-67.3 0-121.9 54.6-121.9 121.9 0 67.3 54.6 121.9 121.9 121.9 67.3 0 121.9-54.6 121.9-121.9"/><path id="bpath24" d="M401 1c-38.1 0-74.9 5.4-109.8 15.4v216.2c31.6-20.6 69.3-32.7 109.8-32.7 111 0 201.1 90 201.1 201.1s-90 201.1-201.1 201.1-201.1-90-201.1-201.1c0-3.6.1-7.1.3-10.6l-.3.2V55.2C81 124.6 1 253.4 1 401c0 220.9 179.1 400 400 400s400-179.1 400-400S621.9 1 401 1"/></symbol><symbol viewBox="0 0 800.13 261.8" id="hero--hero-logo-Coca-Cola_logo"><title>Coca-Cola_logo</title><path d="M307.33 228.5c-29.8-19.2-70.2-22.5-135.3-4.5-69.5 16.3-92.6 26.8-123 5.8-11.7-10.3-15.9-26.9-12.8-50.8 7.3-39 26.9-76.6 61.7-118.2 19.4-21.7 37.5-40.3 61.3-47.7 18.2-4.7 16.5 9.7 14.3 11.7a18.66 18.66 0 0 0-9.3 2.3c-2.5 1.9-9.2 8.1-9.6 16.3-.5 12.7 12.6 10 18.2 3.1 6.1-7.8 15.1-22.8 8-36.8-3-5-8.1-8.4-14.5-9.6-21.8-1.2-42.1 9.1-60.8 20.6-41 28.5-73.8 67.9-92.3 111.1-10.7 26.1-20.4 63.4-5.9 93.7 11.2 21.1 34.5 32.3 62.3 29.9 19.5-2 43-8.3 58.9-12.1s97-31.7 123.6 16.8a36.13 36.13 0 0 1 31-17.6c18.2-1.7 44.5 5.3 63.6 19.3-6.2-9.4-24.3-23.6-39.4-33.3z"/><path d="M180.33 65.7c-15.2-10-45.7 9.1-70.1 41.7-22.3 29.3-32 63.3-21.5 79 15.6 18.5 44.6-8.4 56.9-22.8l1.6-1.7c8.4-9 14.9-19.8 21.1-30.2 0 0 5.8-9.5 6-10 3.6-.7 7.8-1.7 12.7-3.1-.1.2-18.5 31.2-16.6 46.5.6 4.7.1 21.8 16.9 27 22.3 3.7 40.1-13.5 55.8-28.9 0 0 2.7-2.6 4.2-4-.4 1.5-.9 3.6-.9 3.6-6.5 22.7 2.3 27.4 7.8 29.2 16.6 4.8 36.5-19.3 36.5-19.3-.5 7.6-2 13.9 6 19 7.6 2.7 15.2-1.4 21.1-5.3 21-14.8 37.9-37.9 51.5-57.9h-8.7c-.1 0-21.5 31-35.4 37.7 0 0-2.5 1.3-4 .3-1.8-1.5-1.1-4.7 0-7 .1-.1 53.6-93 53.6-93h-25.3s-2.8 4.5-3 4.8a9.23 9.23 0 0 1-.9-1.3c-15.7-21.7-51.1 11.7-77.8 50.3-10.3 14.9-23.4 31.6-36.9 43.7 0 0-20.1 18.4-28.7 5.2-3.1-5.6-2.2-13.7-.4-19 10-28.5 27.2-54.3 46.8-69.9 5.5-4.3 11.6-5.6 14.5-3.7 2.8 1.7 3.3 5.9 1.5 8.7-4.6-.1-8.2 1.2-11.2 4.3-5.9 6.1-7.9 12.1-6 17.6 9.1 12.9 27.1-12.6 26.2-28.1a16.7 16.7 0 0 0-7.7-13.4c-6.6-4-16.7-2.9-23.2.2-8.7 3.3-22.5 14.8-30.6 23.7-10.1 11.2-27.6 23.6-33 22.2 1.9-4.8 16.6-34.9 1.2-46.1zm121.8 44.5c4.9-6.8 19.2-25 22.7-28.1 11.7-10.3 16.4-5.8 16.8-2.6-11 19.6-23.9 42.1-36 62.3 0-.1-3.8 5.8-3.8 5.8-5.4 8.2-10.8 15.2-19.6 20.1a5.64 5.64 0 0 1-4.7-.5 4.83 4.83 0 0 1-2.1-4.8c.5-6.3 6.9-25.6 26.7-52.2zM164.63 122a9.2 9.2 0 0 1-.3.9l-11 17.9c-6.6 8.9-14.9 20-25.3 25.3-3.1 1-7.3 1.7-9.5-1-4.6-5.5-2.2-13.1-.3-19.2l.7-2.2c5.5-14.9 14.2-28.1 22.7-40.3a.6.6 0 0 1 .4-.1c0 .1.1.1.1.2 5.3 10.2 15.3 15 22.8 17.2a.35.35 0 0 1 .1.2 4.88 4.88 0 0 1-.4 1.1zM175 100.8c0 .1-4.9 11.3-4.9 11.3-.7.6-1.8.3-3.1 0l-2.2-.4c-6.8-2.1-12-6.7-13.6-12.1-2.1-10.5 6.9-18.8 10.9-21.8 3.8-2.6 9.7-4 13.2-1.3a13.89 13.89 0 0 1 2.9 9.2c0 4.8-1.5 10.1-3.2 15.1zm319.63 34c-2.4-5.3-8.2-8.6-14.4-8.3-20 1.8-39.6 18.3-49.9 41.9-5.4 12.1-8.3 22.2-10.3 38.1 6.2-7.2 18.9-19 33.3-25.4a69.68 69.68 0 0 1 12-28.9c3.8-5.6 11.4-14.7 19.9-12.3 7.4 2.5 4.8 23.1-5.1 43a138.83 138.83 0 0 1-29.8 39.4c-10 8.5-24.8 18.7-37.7 10.8-8.2-4.8-12.3-14.9-11.4-28 3.9-37 20.7-68.4 44.8-104.3 24.8-33.3 52.2-67.5 89.1-85.7 7.5-3.8 14.5-4.7 20.5-2.3 0 0-34.6 19-51.1 54.2-4.2 8.9-10 21-4.2 31.7 3.1 5.6 8.5 6 12.9 5.7 20.2-4.7 33.3-23.6 44-40.8 6.2-13.1 11.7-26.1 11.7-40.6 0-1.8-.1-4.1-.2-5.9 9.7-5.1 29.5 4 29.5 4 15.5 5.1 48.4 30.4 59.6 35.2 5.4-6.3 14.3-15.8 19.4-20.6l-7.3-4.5c-11.6-7.1-23.9-13.8-36-20.5-27.5-15-49.8-9.7-61.2-5.6-4.5 1.6-8.6 3-8.6 3-8.4-9.2-22.3-8.3-32.5-5.9-36.7 10.5-70.8 36.2-107.3 80.8-26.9 34.9-43.5 65.1-52.4 94.8-6.8 20.1-8.9 49.5 7.8 67 14.2 14.9 33 11.6 46.4 6.3 28.8-14.2 54.7-44.8 67.6-80 2.8-10.3 6.2-25.1.9-36.3zm66.3-110.3c-3.8 43.8-37.8 69.5-46.3 71.5-5.1 1-13.8-1.2-6-19.6 11.4-24.7 31-45.7 51.9-56.5a12.33 12.33 0 0 1 .4 4.6zm201.8 5.5c-18.3 10.4-37.3 17.1-60.2 14.8-6.4 7.2-12.6 14.6-18.3 22.2 32.2 8.2 66.4-10 85.5-27.4A134.57 134.57 0 0 0 800.13.1a158.85 158.85 0 0 1-37.4 29.9zm-345.9 36.5h-24l-13.5 22h24l13.5-22z"/><path d="M702.33 230.5c-2.6 1.8-6.2.4-4.9-3.6 3.4-10.2 16.8-31.1 16.8-31.1l37.4-66.3h-25.5c-1.2 2-3.8 6.6-3.8 6.6-1.2-2-4.7-6.4-6.2-7.3-6.3-4-15.4-2.1-21.8 1.5-27.5 16.1-47.6 47.9-63.5 72.7 0 0-16.7 27.6-25.9 29.6-7.2.6-6.5-9.2-6.2-11.4 2.8-16.4 9.3-32 15.8-46.1a356.73 356.73 0 0 0 42.3-34.5c29.9-28.6 55.2-61 58.9-68.3a63.5 63.5 0 0 1-8.7 1c-23 32.1-70.2 78.8-84.5 85.8 6.3-15.2 47.2-87.9 82-122.7l5.5-5.3c8.5-8.3 17.2-16.8 24.1-18.1.7-.1 1.7 0 2.5 1.7.3 6.4-2.1 11.2-4.8 16.6l-3.9 7.9a78 78 0 0 0 9-2.2c4.2-7.8 8.8-16.6 7.1-27.1a7.77 7.77 0 0 0-6.2-6.5c-10.4-2-21.7 5.7-30.8 11.9l-.4.2c-46.8 36.7-86.3 89.5-120.9 161.7-2.5 1.9-12.2 4.2-13.8 3.1 3.4-7 7.7-16.5 9.9-26.7a65.41 65.41 0 0 0 .7-8.9c0-6.3-1.5-12.2-7.2-16.3-6.6-3.3-14.8-1.8-20.3.7-24.7 10.2-43.2 35.6-56.5 56.4-7.2 13.2-14.3 27.4-16.3 43.7-1.4 12.7 1.4 20.9 8.7 25 7.4 3.8 16.8-.1 20.5-2.1 25-13.2 42.5-39.6 56.3-63.7.5-.1 8.1-.3 13.8-1.8a.2.2 0 0 1 .2.1c-.3 1.1-3.3 9.9-3.3 9.9-8.7 25.6-12.8 43-4.5 53.3 11.8 14.6 31.3-.5 47.2-20.4-3.4 23.9 9 27.6 18.4 25.8 10.8-2.9 22.9-14.5 28.5-20.4-1.8 7-1.3 19.4 8.5 20.6 6.8 1.2 11.8-2.4 17.6-5.6 21-11.4 46.1-49.5 52.6-60.5h-8.5c-9.3 14.1-21 32.4-35.9 41.1zm-188.2-2.5a11.41 11.41 0 0 1-1.8-6.5c-.3-14.4 15.2-40 26.1-54 4.6 10 14.9 16.4 21.2 19.1-7.8 17.3-34.4 54.3-45.5 41.4zm49.8-49.1c-.7.5-13.8-3.9-16.3-16-2.1-10.4 5-18.5 11.9-22.6a12.31 12.31 0 0 1 10.7-2c3 2.1 3.9 5.7 3.9 9.7a56.68 56.68 0 0 1-.6 7.2 4.33 4.33 0 0 0-.1.5 94.37 94.37 0 0 1-9.5 23.2zm104.6 44.5l-2.5 2.2c-3.5 3.1-7.1 6.5-11.5 4.8a4.29 4.29 0 0 1-2.3-3.3c-.2-9 3.9-17.3 7.8-25.5l1-2.1c11.3-18.9 24.5-41.1 43.8-56.6 3.3-2.3 6.8-4.3 10.5-2.8a5.33 5.33 0 0 1 1.9 3.6 7.62 7.62 0 0 1-.6 2c-5.4 8.7-10.5 17.9-15.5 26.6-9.8 17.4-19.9 35.4-32.6 51.1z"/></symbol><symbol viewBox="0 0 431.9 432" id="hero--hero-logo-HP_New_Logo_2D"><title>HP_New_Logo_2D</title><path d="M216 432c-2.1 0-4.3 0-6.4-.1l44.1-121.3h60.8c10.7 0 22.4-8.2 26-18.2l47.9-131.5c7.8-21.5-4.5-39.2-27.4-39.2h-84.3L206 316l-40.2 110.1C70.7 403.5 0 318 0 216A216 216 0 0 1 157.7 8l-41.4 113.7-68.8 188.8h45.8L151.8 150h34.4l-58.5 160.5h45.8L228 160.7c7.8-21.5-4.5-39.2-27.4-39.2h-38.5L206.2.2c3.2-.1 6.5-.2 9.7-.2 119.3 0 216 96.7 216 216S335.2 432 216 432zm130.6-282.1h-34.4L264.1 282h34.4z"/></symbol><symbol viewBox="0 0 196 69.85" id="hero--hero-logo-Logo_NIKE"><title>Logo_NIKE</title><path d="M21.62 69.83q-8.76-.35-14.35-4.8a28.67 28.67 0 0 1-3-3 18.63 18.63 0 0 1-3.22-5.8C-1.06 49.93 0 41.59 4.16 32.47c3.54-7.81 9-15.55 18.55-26.27C24.11 4.62 28.3.01 28.33.01s-.22.39-.51.88a56.21 56.21 0 0 0-5.76 13.28c-1.86 6.8-1.63 12.63.66 17.15a16.75 16.75 0 0 0 7.33 7.31c5.33 2.61 13.13 2.83 22.66.63.66-.15 33.16-8.78 72.24-19.18L196 1.19s-90.78 38.86-137.91 59c-7.46 3.19-9.46 4-13 5.23-8.94 3.16-16.97 4.67-23.47 4.41z"/></symbol><symbol viewBox="0 0 390.4 497.1" id="hero--hero-logo-Target_logo"><title>Target_logo</title><path d="M196.3 322.4c-71.3 0-129.1-57.7-129.1-128.9a129.05 129.05 0 1 1 129.1 128.9m0-322.4C89.5 0 2.9 86.6 2.9 193.5s86.6 193.4 193.4 193.4 193.6-86.6 193.6-193.4S303.1 0 196.3 0z"/><path d="M196.3 127.2a66.3 66.3 0 1 0 66.4 66.3 66.26 66.26 0 0 0-66.4-66.3M21.4 437.3H0v-13.1h58.3v13.1H37v58H21.4v-58m30.2 58h15.8l5.6-15.9h26.6l5.4 15.9h16.2l-26.6-71.2h-16l-27 71.2m34.7-53.6h.2l9 26.1H77.1zm41.1 53.6h15.7v-27.8h15.6c7.9 0 10.8 3.3 11.9 10.8.8 5.7.6 12.6 2.5 17.1h15.6c-2.8-4-2.7-12.4-3-16.9-.5-7.2-2.7-14.7-10.4-16.6v-.2c7.9-3.2 11.3-9.5 11.3-17.8 0-10.8-8.1-19.6-20.8-19.6h-38.4v71m15.7-59h17.1c7 0 10.8 3 10.8 9.9 0 7.2-3.8 10.2-10.8 10.2h-17.1v-20.1zm105.7 51a24.12 24.12 0 0 1-19.5 9.8c-22 0-35-16.5-35-37 0-21.1 13-37.6 35-37.6 14.5 0 28.3 9 30 25.1h-15c-1.8-7.9-7.7-12-15.1-12-14.1 0-19.3 12-19.3 24.4 0 11.9 5.3 23.8 19.3 23.8 10.2 0 16-5.5 16.9-15.4h-15.7v-11.6h29.9v38.5h-10l-1.5-8m22.3-63.1h53.2v13.1h-37.6v15.3h34.5v12.1h-34.5v17.5h38.4v13.1h-54v-71.1m82.3 13.1h-21.3v-13.1h58.3v13.1H369v58h-15.6v-58"/></symbol><symbol viewBox="0 0 519.2 338.3" id="hero--hero-logo-Toyota"><title>Toyota</title><path d="M243.4 321c-27.2-17.1-47.3-75.9-47.3-145.8 0-2.6 0-5.1.1-7.6-75.7-11.9-130.4-44.5-131.8-83.1l-.2.4c-18.5 23-29.1 49.7-29.1 78 0 83.5 91.6 151.9 207.9 157.9zM0 169.1C0 75.7 116.2 0 259.6 0s259.6 75.7 259.6 169.1S403 338.3 259.6 338.3 0 262.5 0 169.1zM259.6 24.4c27.7 0 51.2 42 59.9 100.6v-.1c53.9-8.4 91.6-27.7 91.6-50.2 0-30.2-67.9-54.7-151.5-54.7S108.1 44.5 108.1 74.7c0 22.5 37.7 41.8 91.6 50.2v.1c8.7-58.6 32.3-100.6 59.9-100.6zm16.8 296.5c116.2-6.1 207.9-74.4 207.9-157.9 0-28.4-10.6-55-29.1-78l-.2-.4c-1.4 38.6-56.1 71.2-131.8 83.1.1 2.5.1 5.1.1 7.6 0 69.9-20.1 128.8-47.3 145.8zm-16.8-191.6c12.4 0 24.5-.5 36-1.5-5.7-37.6-19.7-64.1-36-64.1s-30.2 26.5-36 64.1q17.4 1.5 36 1.5zm0 139.1c20.8 0 37.8-43.4 38.7-97.8h.1c-12.6 1.2-25.6 1.8-38.9 1.8s-26.3-.6-38.9-1.8h.1c1.1 54.4 18.1 97.8 38.9 97.8z"/></symbol><symbol id="hero--hero-logo-starbucks_logo" viewBox="0 0 175.75 175.75"><defs><style>.hcls-1{fill:#1d1d1b}.cls-1,.cls-2{fill-rule:evenodd}</style></defs><title>starbucks_logo</title><path class="hcls-1" d="M87.87 0a87.87 87.87 0 1 0 87.87 87.87A87.88 87.88 0 0 0 87.87 0zm0 172.42a84.54 84.54 0 1 1 84.54-84.54 84.54 84.54 0 0 1-84.54 84.54z"/><path class="hcls-2" d="M90.83 84.32a5.06 5.06 0 0 1-2.91.54 5.06 5.06 0 0 1-2.92-.44c-.1-.06-.3 0-.25.26a3.72 3.72 0 0 0 3.25 3c2.69-.65 3.11-2.48 3.17-3.24-.02-.21-.24-.19-.34-.12z"/><ellipse cx="57.96" cy="146.07" rx="5.89" ry="4.42" transform="rotate(-68.97 57.952 146.064)"/><path class="hcls-2" d="M87.87 82.53c2.44.45 1.88-.68 1.88-.68-.22-1-1.91-.93-1.91-.93s-1.7 0-1.88 1c.04 0-.51 1.15 1.91.61zm-.39-24.6a.87.87 0 0 0-1.25 0L83.42 61c-.33.36-.2.65.29.64l6.62-.12c.49 0 .6-.29.25-.64zM84.6 24.67l.1 3.2 2.77-.1c1.54 0 2.2-.4 2.16-1.66 0-1-.5-1.6-1.89-1.56zM44.87 39.72l-5.95-4.14 3.46 6.4 2.49-2.26zm42.65-19.03a1.58 1.58 0 0 0 1.66-1.61c0-1.14-.67-1.57-1.81-1.53l-3 .11.1 3.15zM63.77 26.2c1.23-.59 2.11-1.3 1.39-3-.47-1.12-1.2-1.41-2.59-.75l-2.27 1.09 1.51 3.6z"/><path class="hcls-2" d="M123.37 118c.81-1 1.6-1.94 2.33-3-1.13-2.47-5.15-2.6-5.15-2.6a14.14 14.14 0 0 1-1.9 3.33c-1.06 1.81-9-4.69-9-4.69s3.58-4.63 2.21-9.37a15.87 15.87 0 0 0-3.8-7s-3.54-3.61-.67-9.32c0 0 3.36-5.82-1.74-13.17 0 0 7.31 3.73 3.84 14 0 0-2.39 5.1 1.35 8.71 2.93 2.82 2.92 7.59 2.92 7.59a5.32 5.32 0 0 0 .73 1.87c.31.59 3.42 2.52 3.42 2.52a5.29 5.29 0 0 0 3 .14 4.51 4.51 0 0 1 .26 3.27c2.32-.42 4.64 1.24 6 2.5q.92-1.45 1.74-3a3.72 3.72 0 0 1-1.42-.89 7.8 7.8 0 0 0-5.33-2.43l.48-2.39s2.45-.27 5.78 2.5a3.7 3.7 0 0 0 1.64.94c.51-1.09 1-2.21 1.41-3.34a5.16 5.16 0 0 1-3.31-1.43 8.79 8.79 0 0 0-5.67-2.61l-.05-2.86s3.38-.47 6.83 2.85a5.57 5.57 0 0 0 3.16 1.24q.57-1.85 1-3.77a6.4 6.4 0 0 1-4.62-1.47 10.7 10.7 0 0 0-6.86-2.74l-.05-2.87a12.12 12.12 0 0 1 8 3 4.31 4.31 0 0 0 4.09.93q.32-2.23.42-4.52a8.66 8.66 0 0 1-7.8-1.27 11.31 11.31 0 0 0-6.86-2.44l-.05-2.86a12.12 12.12 0 0 1 8 3s2.71 2.31 6.73.21a46.56 46.56 0 0 0-93.09 1.58c4.25 2.2 7-.31 7-.31a12.11 12.11 0 0 1 7.9-3.27l.05 2.86a11.3 11.3 0 0 0-6.76 2.7 8.65 8.65 0 0 1-8 1.47q.19 2.29.58 4.51a4.35 4.35 0 0 0 4.35-1 12.12 12.12 0 0 1 7.9-3.27l.05 2.87a10.7 10.7 0 0 0-6.75 3 6.48 6.48 0 0 1-4.85 1.63c.32 1.26.69 2.51 1.11 3.73a5.27 5.27 0 0 0 3.4-1.34c3.32-3.45 6.71-3.1 6.71-3.1l-.03 2.92a8.79 8.79 0 0 0-5.57 2.82 5 5 0 0 1-3.43 1.55q.72 1.71 1.56 3.35a3.72 3.72 0 0 0 1.85-1.07c3.22-2.89 5.68-2.71 5.68-2.71l.56 2.37a7.8 7.8 0 0 0-5.24 2.63 3.84 3.84 0 0 1-1.61 1c.6 1 1.24 2 1.91 3 1.31-1.33 3.66-3.25 6.1-2.9a4.5 4.5 0 0 1 .14-3.28 5.28 5.28 0 0 0 3-.25s3-2 3.32-2.64a5.33 5.33 0 0 0 .66-1.9s-.19-4.76 2.63-7.69c3.6-3.74 1-8.75 1-8.75-3.86-10.15 3.31-14.15 3.31-14.15C65 80.46 68.6 86.15 68.6 86.15c3.08 5.6-.32 9.33-.32 9.33a15.88 15.88 0 0 0-3.54 7.11c-1.2 4.79 2.56 9.28 2.56 9.28s-7.71 6.79-8.84 5a14.34 14.34 0 0 1-2-3.26s-3.82.34-5.24 3q1.16 1.48 2.44 2.85a6.54 6.54 0 0 1 4-1.76l1.3 1.69a8.15 8.15 0 0 0-3.39 2.06c.69.66 1.4 1.29 2.13 1.91a4.12 4.12 0 0 1 3-1.7l1.49 1.34a9.79 9.79 0 0 0-2 2.24 46.62 46.62 0 0 0 5.06 3.27 13.72 13.72 0 0 1 3.75-7.33c2.25-1.93 1.18-5.68 1.18-5.68 3.1 3.11-.66 7.36-.66 7.36a16.38 16.38 0 0 0-2.52 6.65q1.25.63 2.54 1.18c-.11-4.92 4.13-10.29 4.13-10.29 3-4.52-2.86-9.77-2.86-9.77-7.28-7.21-1.14-13.18-1.14-13.18 5.1-6 2.4-11.15 2.4-11.15-5.55-10.42 1.47-15.57 1.47-15.57-4 8.94.23 14.83.23 14.83 3.26 5.84-2.19 13-2.19 13-4.22 6.48 1 10.63 1 10.63a13.1 13.1 0 0 1 4 5.43 6.84 6.84 0 0 1-1.28 7.17 13.71 13.71 0 0 0-2.91 10q1.47.52 3 .94c-1.84-5.35 3.77-12.45 3.77-12.45 3-4.52-2.86-9.77-2.86-9.77-7.31-7.09-1.14-13.18-1.14-13.18 4.64-4.48 1-11.63 1-11.63-5.55-10.42 1.1-15.45 1.1-15.45-4.14 9.21.23 14.83.23 14.83 1 1.72 2.19 4.13 2.19 4.13 1.84 4.46-2.58 9.28-2.58 9.28a7.87 7.87 0 0 0 1 10.63 13.09 13.09 0 0 1 4 5.43 6.84 6.84 0 0 1-1.28 7.17c-3.86 5.2-3.09 9.9-2.57 11.7a39.44 39.44 0 0 0 3.92.69l-.32-.28c-3.53-5.67 1.86-12.24 1.86-12.24 2.19-2.35 1.6-6.13 1.6-6.13-.31-4.09-4.58-7.46-4.58-7.46-5-4.08-.84-9.14-.84-9.14a36.51 36.51 0 0 0 3-5.41c.7-2.1 3.11-.36 3.11-.36 1.69 1 4.51-.08 4.51-.08s2.15-2 3.12.23a27.34 27.34 0 0 0 2.93 5.3s4.33 4.91-.5 9.16c0 0-4.1 3.5-4.25 7.6 0 0-.45 3.8 1.83 6.07 0 0 7.2 7.62 2.31 12.16l-.16.14c1.16-.21 2.6-.46 3.72-.75.45-1.87 1-6.54-3-11.52a6.84 6.84 0 0 1-1.51-7.08 13.11 13.11 0 0 1 3.77-5.58 7.87 7.87 0 0 0 .62-10.65s-4.6-4.65-2.92-9.18c0 0 1.07-2.45 2-4.21 0 0 4.16-5.78-.33-14.83 0 0 6.84 4.78 1.68 15.4 0 0-3.4 7.28 1.41 11.58 0 0 6.4 5.85-.65 13.21 0 0-5.65 5.46-2.5 9.87 0 0 5.8 6.81 4.26 12.21 1-.32 2-.69 2.93-1.07a13.74 13.74 0 0 0-3.29-9.74 6.84 6.84 0 0 1-1.55-7.12 13.11 13.11 0 0 1 3.77-5.58s5.08-4.34.62-10.66c0 0-5.71-7-2.67-12.95 0 0 4-6-.33-14.83 0 0 7.21 4.89 2.05 15.5 0 0-2.51 5.27 2.81 11.05 0 0 6.36 5.74-.65 13.21 0 0-5.65 5.46-2.5 9.87 0 0 4.36 5.12 4.51 10 .84-.4 1.66-.82 2.47-1.28a16.2 16.2 0 0 0-2.67-6.43s-3.91-4.11-.93-7.33c0 0-.92 3.79 1.4 5.63a13.65 13.65 0 0 1 4 7.09 46.84 46.84 0 0 0 4.86-3.45 9.48 9.48 0 0 0-2-2l1.39-1.44a4.1 4.1 0 0 1 3 1.44c.69-.64 1.37-1.3 2-2a8.32 8.32 0 0 0-3.32-1.8l1.23-1.73a6.57 6.57 0 0 1 3.9 1.48zm-4.24-46c0-1.81.6-7 6.14-8.94a.3.3 0 0 1 .39.33c0 .07-1.27 7.38 2.91 11.9.14.13 3.77 3.52 4.75 7.41a.3.3 0 0 1-.18.35 7.57 7.57 0 0 1-6.69-.66 13.12 13.12 0 0 0-4.69-2.47 20 20 0 0 0-5 .25.3.3 0 0 1-.32-.17s-2.15-4.7-8.77-9.08a.3.3 0 0 1 0-.5s4.89-3.17 11.45 1.58zm-51.33-.32c-6.45 4.62-8.41 9.36-8.43 9.41a.3.3 0 0 1-.32.18 20 20 0 0 0-5-.06 13.14 13.14 0 0 0-4.6 2.64 7.57 7.57 0 0 1-6.66.91.3.3 0 0 1-.19-.34c.8-3.93 4.3-7.42 4.4-7.59 4-4.67 2.48-11.92 2.46-12a.3.3 0 0 1 .38-.35c5.62 1.71 6.38 6.9 6.47 8.71 6.38-5 11.38-2 11.43-2a.3.3 0 0 1 .06.49zm29.2 9s-2.5 9.95-9 10.66C81.19 91.29 78.68 81 78.68 81c-.56-2.22.46-3.21.46-3.21a2.91 2.91 0 0 1 1.64 0A1.82 1.82 0 0 0 83 77.7a1.36 1.36 0 0 1 .89-.31 1 1 0 0 1 1.05.5c.09.74.6.51.6.51 1.05-.17.46-3.4.46-3.4a2 2 0 0 0-.83-1.8 10.76 10.76 0 0 0-4.9-.85c-1.64.1-1.11-.72-1.11-.72 2.2-5.62 8.4-5.07 8.4-5.07s6.17-.79 8.58 4.75c0 0 .59.86-1 .81 0 0-3.28-.4-5.18.93 0 0-.41.17-.48 1.88 0 0-.46 3.28.58 3.41 0 0 .53.21.59-.53a1 1 0 0 1 1-.54 1.35 1.35 0 0 1 .9.28 1.82 1.82 0 0 0 2.23 0 2.91 2.91 0 0 1 1.64-.1s1.06.95.58 3.19zm-17.78-6.51a3.77 3.77 0 0 1 4.42.16 1 1 0 0 1 .36 1.26.44.44 0 0 1-.74 0 2.3 2.3 0 0 0-1.41-.61 2.12 2.12 0 0 0-1.43.74.58.58 0 0 1-.88.25 1.14 1.14 0 0 1-.32-1.8zm17.17 0a1.14 1.14 0 0 1-.3 1.76.58.58 0 0 1-.88-.25 2.12 2.12 0 0 0-1.44-.74 2.3 2.3 0 0 0-1.41.61.45.45 0 0 1-.74 0 1.14 1.14 0 0 1 .38-1.21 3.77 3.77 0 0 1 4.39-.17zm-26.05-4.54c-.49-4.75-5-9-5-9a17.71 17.71 0 0 1 8 2.43 18.11 18.11 0 0 0-2.81-7s4.58.61 10.72 5.16l1.28-7.11-4.16-4.46h5.59l2.36-5.47L89 49.64h5.6l-3.93 4.24L93.28 61c6-4.78 10.43-5.56 10.43-5.56a18.12 18.12 0 0 0-2.55 7.09 17.71 17.71 0 0 1 7.89-2.73s-4.18 5.06-4.49 9.83c.01 0-14.99-11.87-34.22 0z"/><path class="hcls-2" d="M87.87 7a80.83 80.83 0 1 0 80.83 80.87A80.83 80.83 0 0 0 87.87 7zM148 42.83L142.84 48l8.83.2c.4.3 3.08 5.36 3.08 5.36l-10.42-.1L138.58 64l-3.87-5.46 5-8.43-7.14 4.86-3.57-5.1 15.38-12.21a51.82 51.82 0 0 1 3.62 5.17zm-25.6-14.06c4.12-3.57 9.54-3.72 13.43.34a28.3 28.3 0 0 1 3.36 5.23 21.15 21.15 0 0 1-2.85 3.18c-1-2.65-1.7-3.33-2.79-4.09-2.58-1.8-5.88-1.95-8.06 1.12-2 2.84-.2 7 2.12 8.24a7.68 7.68 0 0 0 3.26.94 29.37 29.37 0 0 1-1.64 3.35 12 12 0 0 1-5.23-1.42c-4.94-3.05-7.37-9.53-3-15.26a10.2 10.2 0 0 1 1.4-1.63zm-23.26-3.58l3.79-10.9 5.91 2.37-3.9 11.15c-.52 1.48 1.05 2.66 2.09 3s2.68.45 3.2-1l4.1-11.75 6.2 2.37-3.89 11.1c-2.17 5.09-5.62 5.89-11.23 3.93S97.07 31 99.14 25.19zm-9.72-12.76c2.93.06 5.78.65 5.91 4.86.11 3.29-1.08 4.16-4.12 5v.06c3.13.16 4.62 1 4.61 4.63 0 4.41-3 5.26-7.42 5.4l-10 .36-.66-19.89zm-28 5.08c3.19-1.53 7.31-2.54 9.29 1.7 1.54 3.3 1.69 5.28-.77 7.77l7.43 5.76-7.07 1.78-4.85-4-1.84.69 2.09 5.12-6.08 3.4L52.11 22zM40 29.16l18.32 10.71-5.38 4.72-4.17-2.08-4 3.63 1.71 4.24-4.8 5.34-8.8-19.95zM27.24 43.44l3.95 2.07-2.88 4.56 12 7.64-2.78 5.36-12.7-7.44-3.18 5.06-3.35-2zM13.49 67.93a21.28 21.28 0 0 1 3.2-5.78l2.85 1.61a36.32 36.32 0 0 0-2.36 3.82 6.4 6.4 0 0 0-.6 1.54c-.42 2.13.13 2.95.69 3.21a2.19 2.19 0 0 0 2.79-1.06c.08-.12 1-1.65 1-1.65 2.42-4.21 5.74-6.14 9.52-4s3.91 8.54 1.29 13a18 18 0 0 1-2.6 3.52L25 80a18.22 18.22 0 0 0 3.74-5c.58-1.58 1-3.69-.63-4.05-1-.22-1.93.71-2.59 1.83 0 0-1 1.73-1.12 1.95-1.89 3.06-4.08 4.05-7 3.37-4.11-.97-5.87-4.46-3.91-10.17zm15.45 45l-5-2.59-5 2.67.91-5.58-4.09-4.43h5.59l2.46-5.48 2.54 5.48h5.6l-4 4.32zm12.56 28.01a5.53 5.53 0 0 0 3.22.36 31.22 31.22 0 0 1-1.14 3.7 12 12 0 0 1-5.39-.85c-5.24-2.5-8.36-8.67-4.64-14.84a10.11 10.11 0 0 1 1.26-1.77c3.71-4 9.08-4.73 13.39-1.12a28.25 28.25 0 0 1 3.9 4.83 23.24 23.24 0 0 1-2.62 3.61c-1.08-2.54-1.93-3.26-3.09-3.9-2.76-1.51-6.4-1.41-8.16 1.91-1.62 3.13.84 7.07 3.27 8.07zm16.5 15.5a10.53 10.53 0 1 1 10.9-10.52A10.74 10.74 0 0 1 58 156.44zm29.17-8.14c-2.53.45-8.93-.89-8.93-.89l-1 3.57c1.64.89 7.44 1 7.44 1l-.45 4.46a71.38 71.38 0 0 1-7.74-.74L75 162.55l-6.1-1.49 4.61-19.35a57.8 57.8 0 0 0 14.14 1.79zM37.36 87.87a50.52 50.52 0 1 1 50.52 50.52 50.52 50.52 0 0 1-50.52-50.52zm58.43 63.43c1.82.39 7.43-1.12 7.43-1.12l.84 4.41a71.34 71.34 0 0 1-7.63 1.49l.52 7-6.27.31-.91-19.84a50.16 50.16 0 0 0 13.89-2.33l.93 4.69c-2.3 1.15-8.81 1.68-8.81 1.68zm17.42 7.7l-7-18.57A84.76 84.76 0 0 0 119 134l1.53 2.87c-1.85 1.78-7.92 4.22-7.92 4.22l1.12 3.55c1.86-.17 6.76-3.27 6.76-3.27l2.11 4a71.66 71.66 0 0 1-6.8 3.63l1.29 3.05c2.14-1.15 7.69-4.2 7.69-4.2l2.23 3.28a65.1 65.1 0 0 1-13.8 7.87zm20.28-10.85l-12.23-15.64a84.52 84.52 0 0 0 10.34-10l2.32 2.28c-1.24 2.25-6.3 6.39-6.3 6.39l2.13 3.05c1.72-.71 5.48-5.14 5.48-5.14l3.19 3.15a71.83 71.83 0 0 1-5.44 5.55l2.15 2.53c1.7-1.74 6.1-6.29 6.1-6.29l3.11 2.46a65.15 65.15 0 0 1-10.85 11.67zm23.14-35.28l-5-2.59-5 2.67.91-5.58-4.08-4.37H149l2.46-5.48L154 103h5.6l-4 4.32zm1.12-37.72a36.46 36.46 0 0 0 .18-4.49 6.45 6.45 0 0 0-.24-1.64c-.68-2.06-1.57-2.5-2.19-2.46a2.19 2.19 0 0 0-1.91 2.3v1.92c0 4.86-2 8.17-6.31 8.18s-7.6-5.51-7.5-10.64a18 18 0 0 1 .54-4.34l4.72-.35a18.23 18.23 0 0 0-.78 6.22c.27 1.66.91 3.73 2.54 3.22 1-.31 1.33-1.57 1.36-2.87v-2.25c.14-3.6 1.56-5.54 4.41-6.36 4.07-1.17 7.31 1 8.42 6.94a21.26 21.26 0 0 1 .06 6.61h-3.27z"/></symbol><symbol id="hero--hero-logo-vizio" viewBox="0 0 349.9 162"><defs><style>.icls-1{fill:#010101}</style></defs><title>vizio</title><path class="icls-1" d="M103.9.1l71 66.4L246 0c-19.3 4.7-44.1 7.5-71.1 7.5s-51.8-2.7-71-7.4z"/><path class="icls-1" d="M174.9 104.4L79.4 17.8C50.1 13.7 23.2 7.8 0 .5L174.9 162 349.9.5c-23.2 7.3-49.9 13.2-79.2 17.3z"/></symbol></svg>