<svg id="Layer_1" data-name="Layer 1" xmlns="http://www.w3.org/2000/svg" viewBox="0 0 330.75 66.91"><defs><style>.cls-1{fill:#1d1d1b;fill-rule:evenodd;}</style></defs><title>gillette_logo</title><path class="cls-1" d="M33.82,30.19L31.65,44.52h10c-1.61,3.71-6.28,5.32-9.74,5.32-7.17,0-10.4-6.28-9.39-13,1.11-7.33,6.48-14.1,14.37-14.1,3.55,0,6.44,1.61,7.67,4.67L66.3,19.89C63.12,9.5,49.42,4.27,38.87,4.27,19.79,4.27,3.41,16.18.41,36c-3,19.49,10.29,30.92,28.81,30.92a41.39,41.39,0,0,0,27.4-10.79c8.34-7.73,9.59-16,11.26-25.92H33.82Z"/><path class="cls-1" d="M65.52,65.95H86.29l6.48-42.76H72L65.52,65.95h0ZM85.9,0C79.38,0,73.89,3.78,73,10,71.89,17,76.9,20,82.86,20S94.76,17,95.82,10c0.94-6.2-3.4-10-9.92-10h0Z"/><polygon class="cls-1" points="93.24 65.94 114.01 65.94 123.91 0.65 103.14 0.65 93.24 65.94 93.24 65.94 93.24 65.94"/><polygon class="cls-1" points="120.25 65.94 141.02 65.94 150.91 0.65 130.14 0.65 120.25 65.94 120.25 65.94 120.25 65.94"/><path class="cls-1" d="M198.83,48.07c3.47-16-7-25.85-22.25-25.85-13.61,0-25.9,8.86-28,23C146.3,60,157.57,66.91,171,66.91c9.82,0,22.06-4.75,26.36-15.06H177.16a5.13,5.13,0,0,1-4.72,3.54c-4.35,0-4.32-3.86-3.8-7.32h30.19ZM170,39.21c0.45-3,2.37-5.55,5.51-5.55,3,0,4.67,2.66,4.23,5.55H170Z"/><polygon class="cls-1" points="231.93 9.42 210.99 9.42 208.82 23.75 203.8 23.43 201.32 39.77 206.46 39.37 202.43 65.94 223.36 65.94 227.39 39.37 234.25 39.77 236.73 23.43 229.75 23.75 231.93 9.42 231.93 9.42 231.93 9.42"/><polygon class="cls-1" points="266.93 9.42 246 9.42 243.83 23.75 238.8 23.43 236.33 39.77 241.46 39.37 237.43 65.94 258.37 65.94 262.39 39.37 269.26 39.77 271.73 23.43 264.76 23.75 266.93 9.42 266.93 9.42 266.93 9.42"/><path class="cls-1" d="M319.45,48.07c3.47-16-7-25.85-22.25-25.85-13.61,0-25.9,8.86-28,23-2.24,14.73,9,21.66,22.48,21.66,9.83,0,22.06-4.75,26.35-15.06H297.78a5.14,5.14,0,0,1-4.73,3.54c-4.35,0-4.32-3.86-3.8-7.32h30.2Zm-28.86-8.86c0.46-3,2.38-5.55,5.51-5.55,3,0,4.67,2.66,4.23,5.55h-9.74Z"/><path class="cls-1" d="M324.68,20.41a6.09,6.09,0,1,0-6.07-6.07,6.05,6.05,0,0,0,6.07,6.07h0Zm0-1.44A4.49,4.49,0,0,1,320,14.34a4.63,4.63,0,1,1,9.26,0A4.51,4.51,0,0,1,324.68,19h0Zm1.38-4.22A1.55,1.55,0,0,0,327.78,13c0-1.67-1-1.93-2.46-1.93h-3.06v6.31h1.41V14.75h1l1.41,2.67h1.53l-1.53-2.67h0Zm-2.4-1V12.21H325c0.62,0,1.43,0,1.43.64,0,0.8-.4,1-1.1,1h-1.69Z"/></svg>