<svg id="Layer_1" data-name="Layer 1" xmlns="http://www.w3.org/2000/svg" viewBox="0 0 418.36 75.78"><defs><style>.cls-1{fill:#231f20;fill-rule:evenodd;}</style></defs><title>vitamin_water_logo</title><path class="cls-1" d="M306.13,2.48V3.23c0,0.8,1.08,1.49,2,1.49A4.48,4.48,0,0,0,312.34,0c-2.45.57-6.21-.56-6.21,2.48h0Z"/><path class="cls-1" d="M251.76,13.91c0,4.08,2.34,7.45,6.21,7.45h2.73c2.52,0,3.4-.57,5.22-1V14.91h-3v4.47c0,0.77-1.23,1.24-2,1.24h-1c-3.2,0-5-3-5-6.46V13.42c0-2.84,1.3-5.17,3.62-5.82,4.59-1.28,5.14,1.71,6.56,2.09a8.53,8.53,0,0,0,.5-2c0-.81-4-1.49-5.21-1.49-5.17,0-8.69,2.53-8.69,7.7h0Z"/><path class="cls-1" d="M290.24,13.66v0.5c0,4.53,2.29,7.2,6.7,7.2h2.48c2.26,0,3-.4,3.48-2.24-1.05.28-2,1.49-4,1.49-3.68,0-5.71-3.05-5.71-6.71,0-3.48,2-6.71,5.46-6.71,2.16,0,3,1.33,3.93,2.48l0.24-2.43-0.45-.55c-1.59,0-1.89-.5-3.48-0.5h-0.25c-4.89,0-8.44,2.56-8.44,7.45h0Z"/><path class="cls-1" d="M327.74,7.45c0,6.35-1.06,14.16,5.21,14.16h2.48c6.23,0,5-7.41,5-12.92v-2h-1.49V16.4a4,4,0,0,1-4.22,4.22c-2.89,0-4-1.86-4-4.72l-0.06-4.48L331,6.71h-3.23V7.45h0Z"/><path class="cls-1" d="M283.32,10.34l0.23,0.09,2,5.19-4.43,0,2.14-5.26h0Zm-5.73,11h1c0.95,0,1.77-3.54,2-4.47h5c1.08,0,1.42,3.41,2,4.5l2.23-.28h1c0-.34-2.69-6.85-3.06-7.62-0.6-1.24-2.28-7.29-3.4-7.29s-3,6.23-3.51,7.42c-0.68,1.72-2.87,6.34-3.19,7.74h0Z"/><path class="cls-1" d="M319.64,10.47l0.4,0,2.07,5.18-4.43,0,2-5.13h0Zm-5.56,10.89h1c1.51,0,1-4.47,2.48-4.47h5l1.24,4.5,2.23-.28h1.24C327,20,324.74,15,324.09,13.59s-2.16-7.37-3.31-7.37h-0.25c-0.7,0-2.88,6.33-3.3,7.38-0.81,2-2.74,6-3.15,7.78h0Z"/><path class="cls-1" d="M267.9,21.37a13.65,13.65,0,0,1,1.74-.25l1.25-.06,5.21,0.31V19.88h-5V6.71H267.9V21.37h0Z"/><path class="cls-1" d="M304.89,21.37h7.94V19.84l-2.73.28h-2.23V14.91a0.61,0.61,0,0,1,.75-0.75l1-.06,3.22,0.31v-1c0-1.14-.71-0.5-1.49-0.5h-3.48V8l1.25-.06,3.72,0.31V6.71h-7.94V21.37h0Z"/><path class="cls-1" d="M193.41,13.17V23.1h14.15V12.42H194.16a0.61,0.61,0,0,0-.75.75h0Z"/><polygon class="cls-1" points="42.21 23.11 56.11 23.11 56.11 12.42 42.21 12.42 42.21 23.11 42.21 23.11"/><path class="cls-1" d="M367,46.21c0-7,2.29-14.91,9.19-14.91h2c3.06,0,6,3,7,5.21,1.09,2.49,1.73,7,1.73,10.69H367v-1h0Zm-5.71,5.22A42.59,42.59,0,0,0,364,67.36c1.43,3.68,5.8,8.16,10.71,8.16h4.72c6.92,0,12.66-9.16,12.66-16.4h-4.72c-1.51,0-.7,12.17-10.43,12.17-7.32,0-9.93-8.64-9.93-16.15V51.43h25.33v-5c0-9.59-3.84-19.38-13.16-19.38H375.9c-11,0-14.65,12.8-14.65,24.35h0Z"/><path class="cls-1" d="M404.7,35c0-1.47.57-7.21-.75-7.21h-4.72V74.53h5.46V43.48c0-5.74,4.84-11.18,10.68-11.18h1.74a3.59,3.59,0,0,1,1.24.25V27.08c-1.15,0-.83-0.25-1.74-0.25a12.58,12.58,0,0,0-7.45,2.48c-3,2.21-2.66,3.64-4.47,5.72h0Z"/><path class="cls-1" d="M63.56,28.07H57.85v9.69h5.71V62.86C63.56,70.54,65.24,75,73,75h5.71c1.32,0,5.46.19,5.46-1v-8.7H80.69c-2,0-3-1.64-3-3.73V37.76h6.46V28.07H77.71V14.41H63.56V28.07h0Z"/><path class="cls-1" d="M11.92,74.53l16.06,0,11.5-46.44-14,0-5.62,34.1L14.4,28.07H0c0.22,2.6,2.11,8.72,2.83,11.58,1,4.09,1.83,7.88,2.83,11.83,0.94,3.75,1.81,8,2.94,11.72,0.51,1.68,1.93,11.34,3.32,11.34h0Z"/><path class="cls-1" d="M411.41,69.32h0.75c0.83,0,.73.45,0.75,1.24h-1.49V69.32h0ZM410.66,73h0.74V71.3l0.23-.21,1.84,2.09,0.27-.19-0.86-1.93c0.55-.15.74-0.06,0.74-0.75v-0.5a1,1,0,0,0-1-1h-2V73h0Z"/><path class="cls-1" d="M409.17,71.06V70.81c0-3.74,5.71-3.76,5.71-.25v0.5a2.76,2.76,0,0,1-2.48,2.73h-0.74a2.76,2.76,0,0,1-2.48-2.73h0Zm-0.75-.5v0.5c0,1.4,1.58,3.23,3,3.23h1c2.11,0,3.23-1.4,3.23-3.48V70.56a3.63,3.63,0,0,0-3.23-3.23h-0.25c-1.92,0-3.72,1.44-3.72,3.23h0Z"/><path class="cls-1" d="M226.68,33.29V28.07H213.28V74.53h13.9V43.23c0-2.84,2-5.71,4.72-5.71,3.07,0,4.22,2.6,4.22,5.71v31.3H250V38c0-6.65-4.5-11.18-11.17-11.18h-1.49a13.34,13.34,0,0,0-6.51,1.93c-2.32,1.47-2.93,3.62-4.17,4.53h0Z"/><polygon class="cls-1" points="42.21 74.53 56.11 74.53 56.11 28.07 42.21 28.07 42.21 74.53 42.21 74.53"/><path class="cls-1" d="M141,33.29V28.07H127.62V74.53h13.9V44.72c0-3.37,1.37-7.2,4.47-7.2h1c2,0,3.48,2.38,3.48,4.47V74.53h14.15V43.73c0-3.13,1.71-6.21,4.72-6.21h0.25c2.88,0,4,2.37,4,5.22v31.8h13.91V37.76c0-6.23-4.5-10.93-10.68-10.93H175c-8.44,0-9.59,6.22-11.42,6.71-0.89-3.82-5-6.71-9.68-6.71h-2.48a12.71,12.71,0,0,0-6.36,2.09c-2.45,1.48-2.76,3.41-4.07,4.37h0Z"/><path class="cls-1" d="M193.41,28.57v46h14.15v-46a0.61,0.61,0,0,0-.74-0.74H194.16a0.61,0.61,0,0,0-.75.74h0Z"/><path class="cls-1" d="M262.93,74.53l5.82,0,8.57-41,8.21,41h6c1.18,0,1.35-4.17,1.64-5.32,0.52-2,.89-3.76,1.4-5.81,0.95-3.85,1.52-7.88,2.53-11.88,1-3.85,1.69-7.75,2.63-11.53,0.56-2.25,2.48-9.85,2.48-11.92h-5.5l-7.66,41h-0.43l-7.76-41h-6.65l-8.25,41-0.3,0-7.89-41h-5.46c0,2.1,1.79,9.41,2.38,11.78,0.95,3.78,1.58,8.1,2.67,11.73,0.58,1.91.7,3.77,1.25,5.71a55.91,55.91,0,0,1,1.37,5.83,52.21,52.21,0,0,0,1.27,5.94c0.26,1,.62,5.47,1.74,5.47h0Z"/><path class="cls-1" d="M345.36,28.07h-6.46V32.3h6.46V67.83c0,4.83,2.91,7.21,7.7,7.21h4.47a3.6,3.6,0,0,0,1.24-.25V70.31c-1.31,0-1.46.5-2.48,0.5-3.47,0-5.71-1.22-5.71-4.72V33a0.61,0.61,0,0,1,.75-0.74h7.45V28.07h-7.45a0.61,0.61,0,0,1-.75-0.75V15.15h-5.21V28.07h0Z"/><path class="cls-1" d="M98.57,58.63c0-2,2.22-3.73,3.82-4.37,1.4-.57,4.58-2.1,5.61-2.34v8.2c0,3-1.77,6-4.72,6H101.8c-1.81,0-3.23-2.61-3.23-4.47v-3h0ZM86.4,40v2.48H98.82V41.24c0-3.27,1.67-5.22,5-5.22h0.74A3.78,3.78,0,0,1,108,40v1.49c0,9.2-23.09.32-23.09,20.37,0,7.7,3.56,13.91,11.17,13.91h2.48a12.57,12.57,0,0,0,6.06-2.13c2-1.32,3.06-3.74,3.87-4.33,0,5.29-.12,5.22,4.47,5.22h9.68c-2.84-5.37-1.49-22.24-1.49-30.56,0-11.87-3.29-17.14-15.14-17.14h-3C93.88,26.83,86.4,31.06,86.4,40h0Z"/><path class="cls-1" d="M310.11,61.12c0-10.4,13.78-7.67,18.13-12.67,0,5.06.41,12-.9,15.75-1.18,3.42-4.88,7.11-9.28,7.11h-0.5c-4.34,0-7.45-3.94-7.45-8.2v-2h0ZM305.89,41v0.25a0.61,0.61,0,0,0,.74.74h4c1.07,0,.88-2.8,1-3.72a9.79,9.79,0,0,1,1.28-3.44A8.6,8.6,0,0,1,319,31.3h2c4.51,0,7.2,3.32,7.2,7.95v1.49c0,4.18-1.74,5.45-5.16,6.27-2.81.67-6.32,1.57-9.15,2.52-6,2-9.53,5.65-9.53,13.57v0.5c0,5.77,4,11.93,9.44,11.93H319a10.62,10.62,0,0,0,5.9-2.55c2.08-2.11,2.18-3.35,3.54-4.91,0,4.28.95,7,5.21,7h2.23a13.52,13.52,0,0,0,1.74-.25v-4h-1.49c-3.76,0-2.48-7.94-2.48-11.68V45c0-4.78.27-9.55-1.59-12.57A10.8,10.8,0,0,0,323,27.08h-5c-7.4,0-12.17,6.33-12.17,13.91h0Z"/></svg>