<?xml version="1.0" encoding="utf-8"?>
<!-- Generator: Adobe Illustrator 19.2.1, SVG Export Plug-In . SVG Version: 6.00 Build 0)  -->
<svg version="1.1" id="Layer_1" xmlns="http://www.w3.org/2000/svg" xmlns:xlink="http://www.w3.org/1999/xlink" x="0px" y="0px"
	 viewBox="0 0 392 118.1" style="enable-background:new 0 0 392 118.1;" xml:space="preserve">
<path d="M35.7,38.7v-2.6c-8.8,0-18,1.9-18,12.2c0,5.2,2.7,8.8,7.4,8.8c3.4,0,6.5-2.1,8.4-5.5C35.9,47.4,35.7,43.5,35.7,38.7
	 M48,68.3c-0.8,0.7-2,0.8-2.9,0.3c-4-3.3-4.7-4.9-7-8.1c-6.7,6.8-11.4,8.8-20,8.8C8,69.3,0,63,0,50.4c0-9.8,5.3-16.6,12.9-19.8
	c6.6-2.9,15.8-3.4,22.8-4.2v-1.6c0-2.9,0.2-6.3-1.5-8.8c-1.5-2.2-4.3-3.2-6.8-3.2c-4.6,0-8.8,2.4-9.8,7.3c-0.2,1.1-1,2.2-2.1,2.2
	L3.8,21.1c-1-0.2-2.1-1-1.8-2.5C4.7,4.3,17.6,0,29.2,0c5.9,0,13.6,1.6,18.3,6c5.9,5.5,5.3,12.9,5.3,20.9v18.9
	c0,5.7,2.4,8.2,4.6,11.2c0.8,1.1,1,2.4,0,3.2C54.8,62.3,50.4,66.2,48,68.3L48,68.3 M194.8,38.7v-2.6c-8.8,0-18.1,1.9-18.1,12.2
	c0,5.2,2.7,8.8,7.4,8.8c3.4,0,6.5-2.1,8.4-5.5C194.9,47.4,194.8,43.5,194.8,38.7 M207,68.3c-0.8,0.7-2,0.8-2.9,0.3
	c-4-3.3-4.8-4.9-7-8.1c-6.7,6.8-11.4,8.8-20,8.8C167,69.3,159,63,159,50.4c0-9.8,5.3-16.6,12.9-19.8c6.6-2.9,15.8-3.4,22.8-4.2v-1.6
	c0-2.9,0.2-6.3-1.5-8.8c-1.5-2.2-4.3-3.2-6.8-3.2c-4.6,0-8.7,2.4-9.7,7.3c-0.2,1.1-1,2.2-2.1,2.2l-11.8-1.3c-1-0.2-2.1-1-1.8-2.5
	C163.8,4.3,176.7,0,188.2,0c5.9,0,13.6,1.6,18.3,6c5.9,5.5,5.3,12.9,5.3,20.9v18.9c0,5.7,2.4,8.2,4.6,11.2c0.8,1.1,0.9,2.4-0.1,3.2
	C213.9,62.3,209.4,66.2,207,68.3 M356.4,68.5h-12.1c-1.2-0.1-2.2-1.1-2.2-2.3V3.9c0.1-1.1,1.1-2,2.3-2h11.2c1.1,0.1,1.9,0.8,2.2,1.7
	v9.5h0.2c3.4-8.5,8.2-12.6,16.5-12.6c5.4,0,10.7,2,14.2,7.3c3.2,5,3.2,13.4,3.2,19.4v39.2c-0.1,1.1-1.1,2-2.3,2h-12.2
	c-1.1-0.1-2-0.9-2.1-2V32.7c0-6.8,0.8-16.8-7.6-16.8c-3,0-5.7,2-7,5c-1.7,3.8-1.9,7.6-1.9,11.8v33.5
	C358.8,67.5,357.7,68.5,356.4,68.5 M305.3,0.6c18,0,27.7,15.5,27.7,35.1c0,19-10.8,34.1-27.7,34.1C287.7,69.8,278,54.3,278,35
	C278,15.7,287.8,0.6,305.3,0.6 M305.4,13.3c-8.9,0-9.5,12.2-9.5,19.8c0,7.6-0.1,23.9,9.4,23.9c9.4,0,9.8-13.1,9.8-21.1
	c0-5.3-0.2-11.5-1.8-16.5C312,15,309.3,13.3,305.4,13.3 M81.1,68.5H69c-1.2-0.1-2.1-1-2.2-2.1V4.1c0-1.2,1-2.2,2.3-2.2h11.3
	c1.2,0.1,2.1,1,2.2,2.1v8.1h0.2c3-7.9,8.5-11.5,16-11.5c7.6,0,12.3,3.7,15.8,11.5c2.9-7.9,9.6-11.5,16.8-11.5c5.1,0,10.6,2.1,14,6.8
	c3.8,5.2,3.1,12.9,3.1,19.5v39.3c0,1.2-1,2.3-2.3,2.3H134c-1.2-0.1-2.2-1.1-2.2-2.3v-33c0-2.6,0.2-9.2-0.3-11.7
	c-0.9-4.2-3.6-5.4-7.1-5.4c-2.9,0-6,2-7.3,5.1c-1.2,3.1-1.1,8.4-1.1,11.9v33c0,1.2-1,2.3-2.3,2.3h-12.1c-1.2-0.1-2.2-1.1-2.2-2.3
	v-33c0-6.9,1.1-17.2-7.5-17.2c-8.7,0-8.4,10-8.4,17.2v33C83.5,67.5,82.4,68.5,81.1,68.5 M226.6,12.9V4c0-1.3,1-2.3,2.3-2.3h39.9
	c1.3,0,2.3,0.9,2.3,2.3v7.6c0,1.3-1.1,3-3,5.6l-20.7,29.5c7.7-0.2,15.8,1,22.7,4.9c1.6,0.9,2,2.2,2.1,3.5v9.5c0,1.3-1.4,2.8-2.9,2
	c-12.3-6.4-28.6-7.1-42.1,0.1c-1.4,0.7-2.8-0.8-2.8-2.1v-9c0-1.5,0-3.9,1.5-6.1l23.9-34.3h-20.8C227.6,15.1,226.6,14.2,226.6,12.9
	 M252.7,81.5c-2.9-3.7-19.3-1.8-26.6-0.9c-2.2,0.3-2.6-1.7-0.6-3.1c13-9.2,34.4-6.5,36.9-3.4c2.5,3.1-0.7,24.5-12.9,34.7
	c-1.9,1.6-3.7,0.7-2.8-1.3C249.4,100.7,255.6,85.3,252.7,81.5 M243.2,92.4c3.8-2.8,0.5-7-3.3-5.3c-25.5,10.8-53.3,16.1-78.5,16.1
	c-37.4,0-73.6-10.3-102.9-27.3c-2.6-1.5-4.5,1.1-2.3,3.1c27.1,24.5,63,39.3,102.9,39.3C187.4,118.1,220.4,109.2,243.2,92.4
	L243.2,92.4z"/>
<g>
</g>
<g>
</g>
<g>
</g>
<g>
</g>
<g>
</g>
<g>
</g>
<g>
</g>
<g>
</g>
<g>
</g>
<g>
</g>
<g>
</g>
<g>
</g>
<g>
</g>
<g>
</g>
<g>
</g>
</svg>
