<svg id="Layer_1" data-name="Layer 1" xmlns="http://www.w3.org/2000/svg" viewBox="0 0 182.9 232.89"><title>target_logo</title><path d="M92,151.06a60.45,60.45,0,1,1,60.45-60.45A60.45,60.45,0,0,1,92,151.06M92,0a90.63,90.63,0,1,0,90.7,90.65A90.63,90.63,0,0,0,92,0Z"/><path d="M92,59.59a31.07,31.07,0,1,0,31.11,31.07A31.05,31.05,0,0,0,92,59.59"/><polyline points="10.01 204.87 0 204.87 0 198.73 27.34 198.73 27.34 204.87 17.33 204.87 17.33 232.07 10.01 232.07 10.01 204.87"/><path d="M24.15,232.07h7.41l2.64-7.41H46.67l2.5,7.41h7.6L44.3,198.73H36.8L24.15,232.07m16.28-25.15h0.09l4.18,12.24H36.07Z"/><path d="M59.68,232.07H67v-13h7.32c3.68,0,5,1.55,5.55,5,0.36,2.68.27,5.87,1.18,8h7.32c-1.32-1.86-1.27-5.78-1.41-7.91-0.23-3.37-1.27-6.87-4.87-7.78v-0.14c3.68-1.5,5.28-4.41,5.28-8.37,0-5-3.78-9.19-9.78-9.19H59.68v33.34M67,204.42H75.1c3.28,0,5,1.41,5,4.64s-1.77,4.78-5,4.78H67v-9.42Z"/><path d="M116.58,228.3a11.29,11.29,0,0,1-9.14,4.59c-10.33,0-16.38-7.73-16.38-17.33,0-9.92,6.1-17.6,16.38-17.6,6.82,0,13.28,4.18,14.06,11.78h-7a6.84,6.84,0,0,0-7.05-5.59c-6.6,0-9.05,5.59-9.05,11.42,0,5.55,2.46,11.14,9.05,11.14,4.78,0,7.51-2.55,8-7.19H108v-5.46h14v18h-4.69l-0.73-3.78"/><polyline points="127 198.73 151.92 198.73 151.92 204.87 134.32 204.87 134.32 212.01 150.47 212.01 150.47 217.74 134.32 217.74 134.32 225.88 152.29 225.88 152.29 232.07 127 232.07 127 198.73"/><polyline points="165.57 204.87 155.56 204.87 155.56 198.73 182.9 198.73 182.9 204.87 172.89 204.87 172.89 232.07 165.57 232.07 165.57 204.87"/></svg>