<?xml version="1.0" encoding="utf-8"?>
<!-- Generator: Adobe Illustrator 19.2.1, SVG Export Plug-In . SVG Version: 6.00 Build 0)  -->
<svg version="1.1" id="Layer_1" xmlns="http://www.w3.org/2000/svg" xmlns:xlink="http://www.w3.org/1999/xlink" x="0px" y="0px"
	 viewBox="0 0 668.9 215.5" style="enable-background:new 0 0 668.9 215.5;" xml:space="preserve">
<style type="text/css">
	.st0{clip-path:url(#SVGID_2_);}
</style>
<path d="M410.1,128.6l-45.3,18.6l-11.9,2l-10.6-3.9l-0.5-0.6l-0.3-0.5L341,143l-0.3-1.4l-0.2-0.8l0.2-0.6l0.2-1.7l0.4-1.7l0.8-1.7
	l0.9-1.8l9.4-16.8l9.4-10.6l-1.4,12.5l-3.9,14l53.2-5.4l-0.3,0.6h0.8v1L410.1,128.6L410.1,128.6z M441,113.9l-0.5-2.1l-4.4-16.5
	h-0.8l-3.3,10.6l-6.6,8.6l-3.5,0.8h-3.2l-3.5,0.8h-3.3l-3,0.4h-3.5l-3.9,0.8h-2.7l-3.3,0.8h-3.3l-3.3,0.5h-3.3L379,120h-3.5
	l-2.7,0.8h-3.3V120l15.4-57.7v-0.8l-48,61.3l-1.4,2.1l-1.1,2.1l-0.9,2.1l-0.8,2.1l-0.8,1.8l-0.5,2l-0.5,1.8l-0.2,2l-0.1,1.7l0.1,1.8
	l0.2,1.7l0.5,1.7l0.5,1.4l0.6,1.5l0.8,1.4l0.9,1.4l2.4,2.3l2.6,1.8l2.7,1.4l3.2,1.1l3.2,0.6l3.6,0.2l1.8-0.2l2-0.2l3.9-0.5l30.5-10
	l25.2-12.1l23.4-7.1l0.4-1.1l0.5-1.1l0.8-2.1l0.5-2.1l0.5-2v-1.2l0.2-1.1l-0.2-2L441,113.9z"/>
<g>
	<g>
		<g>
			<defs>
				<rect id="SVGID_1_" x="0.4" width="668.5" height="214.8"/>
			</defs>
			<clipPath id="SVGID_2_">
				<use xlink:href="#SVGID_1_"  style="overflow:visible;"/>
			</clipPath>
			<path class="st0" d="M634.5,58.5c-6,4.2-12.1,8.5-18.1,12.7c-3.9,1.5-7.9,3-11.9,4.5h-2.1c-2.6,0.5-5.3,0.9-7.9,1.4h-2.1
				c-1.5,0.3-3.2,0.5-4.7,0.8c-15.3-1.2-30.7-2.3-45.9-3.5c-5.3,0.5-10.6,0.9-16,1.4c-3.6,6.2-7.1,12.4-10.6,18.6
				c0,0.2,0.2,0.3,0.2,0.5c0.2,0.2,0.3,0.3,0.5,0.5c0.3,0.2,0.4,0.2,0.8,0.3c0.3,0.2,0.8,0.3,1.1,0.5c0.3,0,0.8,0,1.1,0.2
				c0.4,0,0.9,0.2,1.4,0.2c0.6,0,1.2,0,1.8,0.2c0.6,0,1.4,0,2,0.2h11.2c16-3.3,32-6.6,48-10c7.5,0.8,15,1.7,22.5,2.4
				c0.5,0.2,0.8,0.5,1.2,0.6c0.3,0.3,0.8,0.6,1.1,0.8c0.8,0.6,1.4,1.2,2.1,1.8c0.6,0.6,1.1,1.2,1.7,1.7c0.5,0.8,0.8,1.4,1.2,2.1
				c0.3,0.6,0.6,1.4,0.8,2c0.2,0.8,0.3,1.5,0.4,2.3v2.4c-0.2,0.9-0.3,1.7-0.4,2.6c-3.8,5.6-7.6,11-11.3,16.6
				c-4.8,2.4-9.8,4.8-14.7,7.4h-2c-0.9,0.2-1.8,0.3-2.7,0.5h-3.5c-0.9,0.3-1.7,0.5-2.6,0.8h-3.9c-1.4,0.3-2.9,0.4-4.2,0.8
				c-15.3,0.9-30.5,1.8-45.9,2.7c-1.1,0.2-2.1,0.3-3.3,0.5h-2.1c-1.4,0.3-2.7,0.5-3.9,0.8c-3.9,1.1-7.9,2.1-11.9,3.3
				c-2.3,3.2-4.4,6.2-6.6,9.4v1.1c0,0.3,0.2,0.6,0.2,1.1c0,0.3,0.2,0.6,0.2,0.8c0.2,0.3,0.3,0.6,0.4,0.8c0.2,0.2,0.3,0.5,0.5,0.6
				c0.3,0.2,0.5,0.4,0.8,0.6s0.4,0.3,0.8,0.5c0.3,0.2,0.8,0.3,1.1,0.5c2.4,0.9,5,1.8,7.4,2.7c12.2,0.3,24.5,0.5,36.7,0.8
				c23.3-4.8,46.5-9.8,69.8-14.7h5.3c0.4,0.2,0.9,0.2,1.5,0.3c0.5,0.2,0.9,0.5,1.4,0.6c0.3,0.3,0.8,0.4,1.1,0.8s0.6,0.6,0.8,0.9
				c-0.2,2.3-0.3,4.4-0.5,6.6c-0.9,2.3-1.8,4.5-2.7,6.8c-0.8,1.4-1.4,2.6-2.1,3.9c-0.3,0.6-0.8,1.2-1.1,1.8s-0.8,1.2-1.1,1.8
				c-0.5,0.6-0.8,1.1-1.2,1.7c-0.1,0.3-0.4,0.6-0.6,0.8c-0.2,0.1-0.2,0.3-0.3,0.4c0,0.2-0.2,0.3-0.2,0.5c-0.2,0.2-0.3,0.2-0.5,0.3
				c-0.1,0.2-0.1,0.3-0.3,0.4c-0.2,0.3-0.5,0.6-0.6,0.8c-0.5,0.5-0.8,1.1-1.2,1.5c-0.5,0.5-0.9,0.9-1.4,1.4
				c-0.3,0.2-0.5,0.5-0.8,0.6c-0.2,0.3-0.4,0.4-0.6,0.8c-0.5,0.5-1.1,0.8-1.5,1.2s-0.9,0.8-1.4,1.2c-0.6,0.3-1.1,0.8-1.7,1.1
				c-0.3,0.1-0.6,0.3-0.8,0.4c-0.3,0.2-0.4,0.5-0.8,0.6c-1.1,0.6-2.1,1.4-3.3,2c-10,2.9-19.9,5.7-30.1,8.8c-2.7,0.5-5.6,0.9-8.3,1.4
				c-1.4,0.3-2.7,0.6-4.1,0.9c-1.4,0.3-2.6,0.8-3.9,1.1s-2.7,0.8-3.9,1.1c-1.2,0.5-2.6,0.8-3.8,1.2s-2.6,0.9-3.8,1.4
				c-1.2,0.4-2.4,1.1-3.6,1.5c-6.2,1.1-12.4,2.1-18.6,3.3c-0.6,0.3-1.4,0.5-2,0.8h-2.7c-0.6,0.3-1.4,0.5-2,0.8h-2.1
				c-1.1,0.3-2.1,0.5-3.2,0.8h-2.7c-1.1,0.2-2.1,0.5-3.3,0.6h-4.1c-1.4,0.3-2.7,0.5-3.9,0.8c-16-1.2-31.9-2.3-47.9-3.5
				c-1.1-0.2-2-0.4-3-0.6c-0.5-0.2-0.9-0.3-1.4-0.5s-0.8-0.2-1.2-0.3c-0.8-0.3-1.7-0.6-2.4-0.8c-0.8-0.3-1.4-0.6-2.1-0.8
				c-0.6-0.3-1.4-0.8-2-1.1c-0.3-0.2-0.6-0.5-0.9-0.6s-0.5-0.3-0.8-0.4c-0.5-0.5-0.9-0.9-1.4-1.4c-0.2-0.3-0.5-0.5-0.6-0.8
				c-0.1-0.2-0.3-0.4-0.4-0.6l-2.7-22.7c-0.6,0.3-1.4,0.5-2,0.8c-0.9,0.6-1.7,1.1-2.6,1.7c-0.8,0.6-1.7,1.2-2.4,1.8
				c-1.7,1.1-3.3,2.1-5,3.3c-1.7,1.1-3.5,2.1-5.1,3c-1.7,1.1-3.3,2.1-5,3c-0.9,0.5-1.8,0.9-2.7,1.4s-1.7,0.9-2.6,1.4
				s-1.8,0.9-2.7,1.4s-1.7,0.9-2.6,1.4c-1.8,0.9-3.5,1.7-5.3,2.6c-1.8,0.8-3.6,1.7-5.3,2.4c-7.7,2.4-15.6,4.8-23.3,7.1
				c-2.3,0.4-4.4,0.9-6.6,1.4h-2.1c-1.1,0.2-2.3,0.5-3.3,0.6h-3.3c-12.8-1.4-25.7-2.7-38.5-3.9c-1.5-0.4-3-0.8-4.5-1.2
				c-1.5-0.5-2.9-0.9-4.4-1.4c-1.4-0.6-2.9-1.2-4.2-1.7c-1.2-0.6-2.6-1.2-3.8-1.8c-0.6-0.3-1.4-0.8-2-1.1s-1.2-0.8-1.8-1.1
				c-1.1-0.8-2.3-1.5-3.3-2.3c-1.1-0.9-2.1-1.8-3.2-2.7l-2.7-2.7c-0.5-0.6-1.1-1.1-1.5-1.7c-0.5-0.6-0.9-1.1-1.4-1.7
				s-0.9-1.2-1.4-1.8c-0.3-0.6-0.8-1.2-1.1-1.8c-0.8-1.4-1.4-2.6-2.1-3.9c-0.3-0.8-0.6-1.4-0.9-2.1c-0.3-0.6-0.4-1.4-0.8-2
				c-0.3-0.8-0.6-1.5-0.8-2.3s-0.4-1.5-0.6-2.3s-0.3-1.5-0.5-2.4c-0.2-0.8-0.2-1.5-0.3-2.3c-0.2-0.9-0.3-1.7-0.4-2.6
				c0-0.8-0.2-1.7-0.2-2.4c0-0.9,0-1.8-0.2-2.7c0-0.9,0-1.7,0.2-2.6h-0.8v-0.8h-0.8c-4.7,11.5-9.2,23.1-13.9,34.6
				c-2.4,4.4-5,8.8-7.4,13.1c-3.8,1.8-7.5,3.6-11.3,5.4c-0.6,0.3-1.4,0.4-2,0.8h-2.6c-0.6,0.2-1.4,0.5-2,0.6
				c-7.4-0.2-14.8-0.5-22.1-0.6c-1.4-0.3-2.9-0.8-4.2-1.1c-0.6-0.3-1.4-0.5-2-0.8s-1.2-0.6-1.8-0.8c-0.6-0.3-1.2-0.8-1.8-1.1
				c-0.4-0.3-1.1-0.8-1.5-1.1c-0.4-0.4-1.1-0.9-1.5-1.4c-0.4-0.4-0.9-0.9-1.4-1.4c-0.3-0.4-0.4-0.8-0.8-1.2
				c-0.2-0.5-0.3-0.8-0.5-1.2c-0.2-0.5-0.3-0.9-0.4-1.4c-0.2-0.5-0.2-0.9-0.3-1.4c-0.2-0.5-0.3-1.1-0.5-1.5c0-0.5-0.2-0.9-0.2-1.4
				c0-0.6-0.2-1.1-0.2-1.7v-2.2c0-0.6,0-1.2-0.2-1.8c0-0.6,0-1.2,0.2-1.8c0-0.8,0-1.4,0.2-2.1c0.2-0.6,0.2-1.4,0.3-2
				c0.3-1.4,0.5-2.9,0.8-4.2c0.3-1.5,0.8-3,1.1-4.5c7.1-22.4,14.2-44.7,21.5-67.1c-0.9-10.1-1.8-20.4-2.7-30.5h-0.8
				c-19.5,25.7-39,51.4-58.5,77.2c-1.4,1.2-2.7,2.4-3.9,3.6c-1.4,1.2-2.6,2.4-3.9,3.6s-2.7,2.3-3.9,3.5c-1.4,1.2-2.6,2.3-3.9,3.5
				c-2.7,2.1-5.4,4.4-8.2,6.5c-0.2,0.2-0.5,0.2-0.6,0.3c-0.2,0.2-0.3,0.3-0.4,0.5c-0.3,0.3-0.8,0.6-1.1,0.8
				c-0.6,0.6-1.4,1.1-2.1,1.7c-1.4,1.1-2.7,2.1-4.1,3s-2.9,2-4.2,2.9c-1.4,0.9-2.9,2-4.2,2.9c-1.5,0.9-2.9,1.8-4.4,2.7
				c-1.4,0.9-2.9,1.8-4.2,2.7c-1.5,0.8-3,1.7-4.5,2.4c-1.5,0.8-2.9,1.7-4.4,2.4c-3,1.5-6,3.2-9.1,4.7c-5.1,1.5-10.3,3.2-15.4,4.7
				H47.5c-0.5,0-1.1,0-1.5-0.1c-0.5,0-0.9-0.2-1.4-0.2c-0.4-0.2-0.9-0.2-1.4-0.3c-0.3-0.2-0.8-0.3-1.1-0.5s-0.8-0.5-1.1-0.6
				c-0.3-0.3-0.8-0.5-1.1-0.8c-0.6-0.6-1.2-1.1-1.8-1.7v-2l0.5-2.7c0.3-0.8,0.8-1.5,1.1-2.4c0.6-0.8,1.2-1.5,1.8-2.4
				c0.9-0.6,1.7-1.4,2.6-2c0.2-0.2,0.3-0.5,0.4-0.6c0.2-0.2,0.5-0.3,0.6-0.5c0.3-0.3,0.8-0.6,1.1-1.1s0.6-0.8,0.8-1.2
				c0.2-0.2,0.2-0.4,0.3-0.6s0.3-0.3,0.4-0.5c0-0.3,0.2-0.5,0.2-0.8c0.2-0.2,0.2-0.5,0.3-0.6v-0.5v-0.2v-0.1h0.2
				c0-0.2,0.2-0.5,0.2-0.6c0-0.5,0-0.9,0.2-1.4v-0.8c0-0.1,0-0.4,0.2-0.6c-4.7-7.6-9.4-15.1-14.2-22.7c-3.9-9.1-7.9-18.3-11.9-27.3
				c-3.3-11-6.6-22.1-10-33.1c-0.3-1.5-0.6-2.9-0.8-4.4c-0.2-1.4-0.3-2.7-0.5-4.1c0-1.4-0.2-2.7-0.2-3.9s0-2.6,0.2-3.8
				c0-1.2,0.2-2.6,0.2-3.8c0.2-1.2,0.3-2.3,0.5-3.5c0.3-1.1,0.6-2.3,0.8-3.3c0.3-1.1,0.8-2.1,1.1-3c0.6-1.4,1.2-2.7,1.8-3.9
				c0.8-1.2,1.4-2.4,2.1-3.6c0.8-1.1,1.5-2.3,2.3-3.3c0.9-1.1,1.7-2,2.6-3c0.9-0.9,1.7-2,2.6-2.9c1.1-0.8,2-1.7,3-2.4
				c1.1-0.8,2-1.5,3-2.3c1.1-0.6,2.3-1.2,3.3-1.8c18.4-9.4,37-18.6,55.4-27.9h0.5c0.3,0.2,0.8,0.2,1.1,0.3c0.3,0.2,0.8,0.5,1.1,0.6
				c0.3,0.3,0.4,0.4,0.8,0.8c0.3,0.3,0.5,0.6,0.8,0.9c0.1,0.3,0.1,0.8,0.3,1.1c0.2,0.4,0.2,0.9,0.3,1.4c0,0.5,0,0.9-0.2,1.4
				c0,0.6,0,1.2-0.2,1.8C91,43.4,87.4,67.5,83.6,91.7c-0.2,1.5-0.3,3-0.5,4.5c0,1.5-0.2,3-0.2,4.5s0,3-0.2,4.5
				c0.2,1.5,0.2,3,0.3,4.5c0.2,1.5,0.2,3,0.3,4.5c0.3,1.5,0.5,3.2,0.8,4.7s0.6,3,0.8,4.5c0.3,1.5,0.8,3.2,1.1,4.7h0.8
				c0.4-0.3,0.9-0.5,1.5-0.8c0.8-0.8,1.5-1.4,2.3-2.1c0.8-0.8,1.5-1.5,2.3-2.4s1.5-1.7,2.3-2.6s1.7-1.8,2.4-2.7
				c0.8-1.1,1.5-2.1,2.3-3.2s1.7-2.1,2.4-3.2c0.8-1.2,1.5-2.4,2.3-3.6s1.7-2.4,2.4-3.6c0.8-1.4,1.4-2.7,2.1-3.9
				c0.6-1.2,1.4-2.6,2-3.8c0.6-1.2,1.1-2.4,1.7-3.6c0.5-1.1,0.9-2.3,1.4-3.3c0.3-1.1,0.8-2.3,1.1-3.3c0.3-1.1,0.6-2.1,0.9-3.2
				c0.2-1.1,0.3-2.1,0.4-3c0.2-0.9,0.3-1.8,0.5-2.7c-0.5-4.8-0.8-9.7-1.2-14.7c0.6-4.7,1.4-9.2,2-13.9c0.4-0.6,0.9-1.2,1.4-1.8
				c0.6-0.6,1.2-1.1,1.8-1.7c0.8-0.5,1.4-1.1,2.1-1.5c0.8-0.5,1.5-0.9,2.4-1.4s1.7-0.9,2.6-1.4c1.1-0.5,2-0.8,3-1.2
				c1.1-0.5,2.1-0.8,3.3-1.2c1.2-0.3,2.4-0.8,3.6-1.1c19.2-3.2,38.2-6.2,57.4-9.4c7.3,1.2,14.7,2.3,21.9,3.5c2.4-1.8,5-3.6,7.4-5.4
				c0.8-0.8,1.4-1.5,2.1-2.3c0.8-0.6,1.7-1.2,2.4-1.8c0.8-0.6,1.7-1.1,2.4-1.7c0.9-0.5,1.8-0.8,2.7-1.2c0.9-0.3,1.8-0.6,2.7-1.1
				c1.1-0.2,2-0.3,3-0.4c1.1-0.2,2.1-0.2,3-0.3c1.1,0,2.3,0,3.3,0.2c12.8,2,25.8,3.9,38.7,5.9c12.1,3.8,24.3,7.7,36.4,11.5v0.8
				c-0.8,0.6-1.4,1.4-2.1,2c-7.9,11.3-15.9,22.7-23.7,34c-4.7,9.4-9.4,18.6-14.2,27.9v0.8h0.8c0.6-0.5,1.4-0.9,2-1.4
				c5.7-6.5,11.6-12.8,17.4-19.3c1.4-1.4,2.7-2.6,3.9-3.9c1.4-1.4,2.9-2.6,4.2-3.9c3-2.6,6-5,9.1-7.6c1.7-1.4,3.2-2.6,4.8-3.9
				c1.7-1.2,3.3-2.4,5-3.6c3.6-2.6,7.1-5,10.7-7.6c1.8-1.4,3.5-2.6,5.3-3.9c1.8-1.2,3.6-2.4,5.6-3.6c1.8-1.2,3.6-2.3,5.6-3.5
				c2-1.1,3.8-2.1,5.7-3.3c2-1.1,3.8-2.1,5.7-3.3c2-1.1,3.9-2,5.9-3c2-0.9,4.1-2,6-2.9c2.1-0.9,4.2-1.8,6.2-2.7
				c0.9-0.5,2-0.9,2.9-1.4c1.1-0.5,2-0.8,3-1.2c2-0.8,3.9-1.4,5.9-2.1c2-0.6,3.9-1.4,5.9-2c2-0.5,3.9-1.1,5.9-1.5
				c2-0.5,3.8-0.9,5.7-1.4c2-0.3,3.9-0.6,5.9-0.9c2-0.2,3.8-0.4,5.7-0.6c2,0,3.8-0.2,5.7-0.2c4.8,0.5,9.8,0.8,14.7,1.2
				c3.9,1.8,7.9,3.6,11.9,5.4c-0.9,4.7-1.8,9.2-2.7,13.9C452,43.8,448,55.6,444,67.4v0.4h0.8c13.6-4.1,26.6-7.4,39.6-10.6V56
				c-6.8-2.3-13.7-4.5-20.5-6.8c-2.6-2-5.3-3.9-7.9-5.9c-0.2-0.6-0.3-1.2-0.5-1.8v-1.8c0-0.6,0.2-1.2,0.2-1.8
				c0.2-0.6,0.5-1.2,0.6-1.8c0.3-0.6,0.6-1.2,0.8-1.8c0.5-0.6,0.9-1.2,1.4-1.8s1.1-1.2,1.5-1.8c0.6-0.6,1.4-1.2,2-1.8
				c4.8-3.5,9.8-7.1,14.7-10.6c5.3-0.8,10.7-1.4,16-2.1c5.3,0.3,10.6,0.4,15.9,0.8c37.3,5.6,74.6,11.2,111.9,16.6
				c9.7,2.4,19.5,4.8,29.2,7.4c-0.3,0.3-0.4,0.4-0.8,0.8C643.7,47.4,639,52.9,634.5,58.5 M521,5.8c-17.8-2.9-35.5-2-53.3,2.7
				c-3.2-1.1-6.8-2.7-10.3-4.2c-5.3-1.4-10.7-2.7-16-3.9c-5.6,0.3-11,0.4-16.6,0.8c-9.1,2-18.3,3.9-27.3,5.9
				c-2.6,0.9-5.3,1.8-7.9,2.7c-2.6,1.1-5,2-7.6,3s-5,2.1-7.6,3.3c-2.4,1.2-5,2.4-7.4,3.6s-5,2.6-7.4,3.8c-2.4,1.4-4.7,2.7-7.1,3.9
				c-2.4,1.4-4.7,2.9-7.1,4.2c-2.3,1.5-4.5,3-6.8,4.5c-1.8,0.9-3.5,1.8-5.3,2.7c0.9-1.5,1.8-3,2.7-4.5c1.4-1.4,2.6-2.7,3.9-3.9
				c-7.1-2.7-14.2-5.3-21.3-8c-2.4-0.9-4.8-1.7-7.1-2.6c-2.4-0.8-4.7-1.4-7.1-2.1c-2.4-0.8-4.8-1.4-7.3-2.1
				c-2.4-0.6-4.8-1.2-7.1-1.8c-2.4-0.6-5-1.2-7.4-1.8c-2.4-0.5-5-0.9-7.4-1.4c-2.6-0.5-5-0.9-7.5-1.4c-2.6-0.3-5-0.6-7.6-0.9
				c-6.8-0.5-13.7-0.9-20.5-1.4c-4.7,1.4-9.4,2.7-14.2,3.9c-3.8,2.9-7.4,5.7-11.2,8.8v0.8c-10-0.9-19.9-1.8-30.1-2.7
				c-1.5,0.3-3.2,0.4-4.7,0.8h-3.9c-3.3,0.5-6.6,0.9-10,1.4c-10.9,2.6-21.8,5.3-32.5,7.9c-4.2,1.8-8.5,3.6-12.5,5.4
				c-3.3,2.7-6.8,5.3-10.1,8c-0.4,0.6-1.1,1.2-1.5,1.8c-0.3,0.8-0.8,1.4-1.1,2.1c-0.3,0.8-0.6,1.7-0.9,2.4c-0.3,0.9-0.5,1.8-0.8,2.7
				c-0.2,0.4-0.3,0.9-0.5,1.4c0,0.4-0.1,1.1-0.1,1.5c-0.2,1.1-0.2,2.1-0.3,3.2c0,1.2,0,2.3-0.2,3.5c0,1.2,0,2.6,0.2,3.8
				c0.4,4.7,0.8,9.4,1.2,14.1c-1.1,3.8-2.1,7.4-3.3,11.2c-2.3,4.1-4.4,8-6.6,12.1c-0.3,0.6-0.5,1.4-0.8,2.1c-0.4,0.6-0.8,1.4-1.2,2
				h-0.8c0-2.3,0-4.5,0.2-6.8c0.1-2.1,0.3-4.4,0.4-6.5c0.5-4.2,0.9-8.5,1.4-12.8c0.3-2.1,0.6-4.2,0.8-6.3c0.3-2.1,0.8-4.1,1.1-6.2
				c0.9-3.9,1.8-8,2.7-11.9c1.5-11.2,3.2-22.2,4.7-33.4V20v-2.3c0-0.8,0-1.4-0.2-2.1c0-0.6-0.2-1.4-0.2-2s-0.2-1.2-0.2-1.8
				c-0.2-0.6-0.3-1.2-0.4-1.8c-0.2-0.4-0.3-1.1-0.5-1.5S103,7.4,102.9,7c-0.3-0.4-0.4-0.9-0.8-1.4c-0.3-0.4-0.6-0.9-0.9-1.4
				c-0.3-0.3-0.8-0.8-1.1-1.1c-0.5-0.3-0.8-0.6-1.2-0.9c-0.5-0.3-0.9-0.5-1.4-0.8c-0.6-0.2-1.1-0.5-1.7-0.6S94.6,0.7,94,0.5
				s-1.4-0.2-2-0.3c-0.6,0-1.4,0-2,0.2c-4.1,1.4-8,2.7-12.1,3.9c-18.1,9.8-36.4,19.5-54.5,29.3c-6,7.1-12.1,14.2-18.1,21.3
				c-0.6,1.4-1.2,2.7-1.8,4.1c-0.4,1.4-0.8,2.9-1.2,4.2c-0.3,1.5-0.8,2.9-1.1,4.4c-0.2,1.5-0.5,3-0.6,4.5c-0.2,1.4-0.3,2.6-0.4,3.9
				c0,1.4,0,2.7-0.2,3.9c0,1.4,0,2.7,0.2,3.9c0.1,1.4,0.3,2.7,0.4,4.2c0.2,1.5,0.5,3,0.6,4.5c0.3,1.5,0.6,3,0.9,4.5s0.8,3,1.1,4.5
				c0.5,1.5,0.8,3,1.2,4.5s0.8,2.9,1.2,4.4c0.5,1.5,1.1,3,1.5,4.5c1.2,2.9,2.3,5.9,3.5,8.8c8.5,17.4,16.9,34.6,25.2,52
				c-1.1,2.4-2.3,4.8-3.3,7.3c-2,3.2-3.9,6.2-5.9,9.4c-0.1,0.5-0.3,0.8-0.4,1.2c0,0.5,0,0.9-0.2,1.4c0,0.5,0,0.9,0.2,1.4
				s0.3,1.1,0.4,1.5c0.2,0.5,0.3,0.9,0.5,1.4c0.3,0.6,0.6,1.1,0.9,1.7c0.3,0.6,0.8,1.1,1.1,1.7c0.5,0.6,0.9,1.2,1.4,1.8
				c4.1,2.3,8.2,4.4,12.2,6.6c5.1,0.3,10.3,0.5,15.4,0.8c6.6-1.5,13.3-3.2,19.8-4.7c5.7-2.9,11.5-5.7,17.4-8.8
				c1.4-0.8,2.9-1.7,4.2-2.4c1.5-0.8,2.9-1.7,4.4-2.4c1.4-0.9,2.9-1.8,4.2-2.7c0.3-0.3,0.8-0.4,1.1-0.8c0.3-0.2,0.8-0.5,1.1-0.6
				c0.8-0.5,1.5-0.8,2.3-1.2c1.4-0.9,2.7-2,4.1-2.9s2.9-2,4.2-2.9c1.4-1.1,2.7-2,4.1-3c1.4-1.1,2.7-2,4.1-3c1.4-1.1,2.6-2.1,3.9-3.3
				c1.4-1.1,2.6-2.1,3.9-3.3c0.6-0.6,1.2-1.2,1.8-1.8s1.4-1.1,2-1.7c1.4-1.1,2.6-2.3,3.9-3.3l3.6-3.6l3.6-3.6
				c0.3-0.3,0.6-0.8,0.8-1.1c0.2-0.2,0.3-0.3,0.5-0.5s0.3-0.3,0.5-0.4l1.8-1.8c1.2-1.2,2.4-2.6,3.6-3.8c11.9-15.6,24-31,36-46.5h0.8
				c-5.3,15.3-10.6,30.7-15.9,45.9c-2.1,11.3-4.1,22.5-6.2,33.8c0.5,5.3,0.9,10.6,1.4,15.9c0.3,0.4,0.5,1.1,0.8,1.5
				c0.3,0.6,0.6,1.1,0.9,1.7c0.3,0.4,0.6,0.9,0.9,1.4c0.5,0.4,0.8,0.9,1.2,1.4c0.5,0.4,0.8,0.8,1.2,1.2c0.4,0.5,0.9,0.9,1.4,1.4
				c0.4,0.3,0.9,0.8,1.4,1.1c0.6,0.3,1.2,0.8,1.8,1.1s1.4,0.6,2,1.1c0.8,0.3,1.4,0.8,2.1,1.1c0.8,0.3,1.5,0.6,2.4,0.9
				s1.7,0.6,2.6,0.9c9.4,0.9,18.6,1.7,27.9,2.6c1.1-0.2,2.1-0.3,3.2-0.5c0.3,0,0.5-0.2,0.8-0.2s0.6,0,0.8-0.1c0.6,0,1.1-0.2,1.7-0.2
				c1.1-0.2,2-0.5,3-0.6c0.9-0.3,2-0.5,2.9-0.8c0.4-0.2,0.8-0.3,1.2-0.5s0.9-0.3,1.4-0.5c0.9-0.3,1.7-0.8,2.6-1.1
				c0.3-0.2,0.8-0.5,1.1-0.6c0.5-0.2,0.8-0.3,1.2-0.4c0.8-0.5,1.5-0.8,2.3-1.2c0.8-0.5,1.4-0.9,2.1-1.4c2.7-3.5,5.3-7.1,8-10.6
				c1.8-4.2,3.5-8.3,5.3-12.5c4.1,4.2,8,8.3,12.1,12.5c1.2,0.8,2.4,1.4,3.6,2.1c1.2,0.8,2.6,1.5,3.8,2.3c2.7,1.4,5.3,2.9,8,4.2
				c1.4,0.6,2.9,1.1,4.2,1.7c1.5,0.6,3,1.2,4.5,1.8c1.2,0.5,2.4,0.8,3.6,1.2s2.6,0.8,3.8,1.2c1.2,0.3,2.4,0.8,3.6,1.1
				c0.6,0.2,1.2,0.3,1.8,0.5c0.3,0,0.6,0.2,0.9,0.2c0.3,0.2,0.8,0.2,1.1,0.3c2.4,0.5,5,0.9,7.4,1.4c1.2,0.2,2.4,0.3,3.6,0.5
				s2.4,0.3,3.6,0.5c1.2,0,2.3,0.2,3.5,0.2s2.4,0,3.6,0.2h3.6c1.2,0,2.4,0,3.6-0.2s2.3-0.2,3.5-0.3c0.6,0,1.2-0.2,1.8-0.2
				s1.2,0,1.8-0.2c1.2-0.2,2.3-0.3,3.5-0.5c1.2-0.1,2.4-0.4,3.6-0.6c3.2-0.8,6.3-1.7,9.4-2.4c1.5-0.5,3.2-0.9,4.7-1.4
				c1.5-0.4,3.2-0.9,4.7-1.4c3.6-1.4,7.3-2.6,10.9-3.9c1.8-0.8,3.6-1.4,5.3-2.1c1.8-0.8,3.6-1.5,5.6-2.3c1.8-0.8,3.6-1.7,5.3-2.4
				c0.9-0.5,1.8-0.9,2.7-1.4s1.8-0.8,2.7-1.2c1.8-0.9,3.6-1.8,5.3-2.7c1.8-0.9,3.6-1.8,5.3-2.7l0.8-0.8v0.8c0.5,1.4,0.9,2.7,1.4,3.9
				c0.2,0.8,0.3,1.4,0.5,2.1c0.3,0.6,0.5,1.4,0.8,2.1c0.3,0.6,0.6,1.2,0.9,1.8c0.4,0.6,0.8,1.2,1.2,1.8c0.5,0.5,0.9,0.9,1.4,1.4
				s1.1,0.9,1.5,1.4c0.6,0.3,1.2,0.8,1.8,1.1c0.8,0.3,1.4,0.6,2.1,0.9c0.8,0.3,1.5,0.8,2.3,1.1s1.5,0.8,2.3,1.1
				c0.9,0.3,1.8,0.6,2.7,0.9s2,0.6,2.9,0.9s2,0.5,2.9,0.8c1.1,0.3,2.1,0.4,3,0.8c21.6,0.6,43.1,1.4,64.7,2
				c20.7-4.4,41.2-8.9,61.9-13.3c11-3.8,22.2-7.6,33.2-11.3c5.6-4.8,11-9.8,16.6-14.7c4.2-7.1,8.5-14.2,12.8-21.3
				c0.1-0.9,0.3-2,0.4-2.9c0-0.9,0-1.8,0.2-2.7c-0.2-0.9-0.2-1.8-0.3-2.7c-0.2-0.8-0.3-1.5-0.4-2.4c-0.3-0.8-0.8-1.7-1.1-2.4
				c-0.4-0.8-0.8-1.5-1.2-2.3c-0.6-0.8-1.1-1.4-1.7-2.1c-0.6-0.6-1.4-1.4-2-2c-0.5-0.3-0.9-0.8-1.4-1.1s-0.9-0.6-1.4-0.9
				s-1.1-0.5-1.5-0.8c-0.5-0.2-1.1-0.3-1.5-0.5c-0.6-0.2-1.2-0.3-1.8-0.5c-0.6,0-1.2,0-1.8-0.2c-0.6,0-1.4,0-2,0.2s-1.2,0.2-1.8,0.3
				H611c-1.2,0.3-2.3,0.5-3.5,0.8c5.7-8.5,11.6-16.9,17.4-25.4c0.2-1.1,0.5-2.1,0.6-3c0-0.5,0-1.1,0.1-1.5v-1.9
				c0-0.5-0.1-0.9-0.1-1.4c-0.2-0.5-0.2-0.9-0.3-1.4c-0.2-0.5-0.3-0.9-0.5-1.4s-0.3-0.9-0.5-1.4c-0.3-0.5-0.6-0.9-0.8-1.4
				c-0.3-0.5-0.6-0.9-0.9-1.4c-0.3-0.5-0.8-0.9-1.1-1.4s-0.8-0.9-1.1-1.4c-0.5-0.4-0.9-0.9-1.4-1.4c-0.5-0.4-0.9-0.8-1.4-1.2
				c-1.1-0.9-2.1-1.8-3.3-2.7v-0.8c2.3-1.4,4.4-2.7,6.6-3.9c0.6-0.3,1.1-0.8,1.7-1.1c0.3-0.2,0.6-0.3,0.8-0.5
				c0.3-0.2,0.6-0.3,0.9-0.4c1.2-0.8,2.3-1.4,3.5-2.1c2.3-1.5,4.5-3,6.8-4.5c2.1-1.7,4.4-3.5,6.5-5.1c1.1-0.9,2.1-1.8,3.3-2.7
				c1.1-0.9,2.1-2,3.3-2.9c7.1-8.5,14.2-16.8,21.3-25.2C619.7,24.3,570.4,15,521,5.8"/>
		</g>
	</g>
</g>
</svg>
