<svg id="Layer_1" data-name="Layer 1" xmlns="http://www.w3.org/2000/svg" viewBox="0 0 279.27 279.28"><title>GE_logo</title><path d="M139.88,0q-5.18,0-10.35.39a139.1,139.1,0,0,0-76,29.38,140.55,140.55,0,0,0-42.73,56,139.57,139.57,0,0,0,97.92,190.1A139.65,139.65,0,1,0,139.88,0h0ZM139,6.67a131.7,131.7,0,0,1,64,16.25c38,20.47,64.91,60.41,68.73,103.5a131.7,131.7,0,0,1-15.71,77.28,133.37,133.37,0,0,1-57.23,54.93,130.56,130.56,0,0,1-61.32,13.87,132.35,132.35,0,0,1-80.38-28.62,133.73,133.73,0,0,1-42.9-60c-12.89-36.19-9.1-78,10.57-111.09a133.35,133.35,0,0,1,57.39-53A131.67,131.67,0,0,1,129.5,7.09q4.76-.39,9.54-0.42h0Zm0.43,8.43A125.93,125.93,0,0,0,106,19.72C83.12,25.9,61.76,39.36,48.19,59,39.05,72,33.8,87.26,31.1,102.75c-1.28,9.67-1.81,20.22,3,29.06,2.24,4.39,6.14,7.7,8.07,12.26,1.83,4,.53,9.51-3.41,11.82-3.7,2.65-8.92,1.64-12.26-1.12C21.7,151,19.65,144.82,18.62,139c-2-13.11.61-26.38,4-39-2.62,1.09-2.24,4.71-3.23,7a130.46,130.46,0,0,0,.59,67.87c5.92,21,18,40.59,35.43,54,13.13,10.39,29.22,16.29,45.51,19.49,9.82,1.65,20.51,2.31,29.71-2.16,4.56-2.28,8-6.27,12.46-8.69a9.94,9.94,0,0,1,11.61,1.79c3.4,3.39,3.46,9.2.69,13-3,4.07-7.8,6.33-12.55,7.64-10.48,2.63-21.44,1.44-31.93-.46-3.84-.61-7.47-2.32-11.4-2.3,2.1,2.08,5.18,2.44,7.89,3.25a134.39,134.39,0,0,0,63,.18c23.72-5.7,46.16-19.06,60.26-39.28,9.13-12.56,14.16-27.56,17.27-42.63,1.65-11.13,2.49-23.71-4.27-33.42-3.15-4.63-8.2-9.09-7.19-15.27,0.43-5.78,6.9-9.44,12.22-7.55,6.94,2.25,10.2,9.7,11.61,16.29,2.7,13.67,0,27.72-3.59,41a2,2,0,0,0,1.75-1.58,126.19,126.19,0,0,0,3.71-60.48c-4.13-23.52-15-46.46-33.08-62.43a93.44,93.44,0,0,0-38.37-20.74c-11.78-3.5-24.53-5.92-36.69-2.91-6,1.31-10.63,5.5-15.43,9-4.06,3.13-10.56,3.34-14.21-.53-3.3-3.51-3-9.32-.15-13,3.78-5,10-7.28,16-8.36,9.51-1.42,19.23-.49,28.62,1.38,3.72,0.64,7.2,2.35,11,2.63a7.85,7.85,0,0,0-2.55-1.71,122.2,122.2,0,0,0-37.8-5.83h0ZM118.64,64.32a15.34,15.34,0,0,1,7.4,1.79c4.18,2.4,5.82,7.59,5.41,12.17-0.75,9.09-5.14,17.48-10.67,24.59-6,7.22-13.34,13.62-22.16,17,0.67,2.82,2.8,5.82,6,5.81,5.59,0.2,10.43-3.33,14.45-6.84,2.89-2.2,3-6,4.39-9.13,2-4.84,4.65-10,9.52-12.46,2.29-1.22,5.78-1.45,7.36,1,1.72,3.29.16,7.06-1.49,10-2.26,4.32-5.84,7.7-8.68,11.59a41.84,41.84,0,0,0-1.34,11.15c3.95-1.75,7.49-4.23,11.22-6.39,6.47-4.19,13.19-8.09,19.2-12.93,0.69-2.34-.25-4.89-0.15-7.32A46.27,46.27,0,0,1,170.8,71.92c5-5.25,12.49-9,19.84-7.11a12.1,12.1,0,0,1,9.1,8.59c1.57,6.35-.61,13-3.95,18.4-5.76,9-14.13,15.88-22.6,22.21,1.13,2.82,2.74,6,5.79,7.06,4.36-.84,8.8-2,13.27-1.14,3,0.63,6.57,1.52,8,4.5s-1.23,5.87-3.88,6.77c-5.64,1.84-11.61.8-17.36,0.37-6.85,1.63-12.81,6.16-17.08,11.68-6.63,8.72-8.68,20.25-7.24,30.95,1.38,8.87,5.84,17.8,13.66,22.62,8.82,5.65,21.53,4.45,28.84-3.17a26.1,26.1,0,0,0,5.23-27.58c-1.63-4-5.13-7.44-9.52-8.13-5.13-1.16-11.21,2.18-11.95,7.62-0.75,4.18,2.19,7.65,4.67,10.65,1.92,2,2.15,5.65-.23,7.36-3.69,2.53-8.8.75-11.74-2.18-7.25-7.16-7-20.08-.08-27.39,8.83-10.13,26.4-10.32,35.44-.34,9.65,10.69,10.87,27.83,3.44,40.08a37.41,37.41,0,0,1-26.65,18.13c-12,1.78-25-2-33.42-10.92-16.51-16.81-16.25-46.37-.5-63.59,4.22-5,9.77-8.63,15.35-11.95-1.21-1.63-2.47-3.22-3.76-4.8a347.43,347.43,0,0,1-33.83,21.56c-2,.72-1.62,3.1-1.91,4.78-1,14.35-2.27,29.32-9.4,42.14-4.82,9.06-12.13,17.37-21.91,21.1-7.77,2.92-17.16,3.19-24.28-1.53-6.82-4.28-9.92-12.82-9.39-20.59,1.08-9.9,6.71-18.84,13.87-25.56,9.82-9,21.73-15.17,33.41-21.33,2.38-1.33,5-2.33,7.1-4a27,27,0,0,0,1.12-6.69c-6.06,3.66-13.71,6.61-20.68,3.8-5.7-2.2-9.24-7.65-11.06-13.23-5.37-.58-10.78-2.72-14.21-7.06-6-7.16-6.35-18.06-2-26.13a8.17,8.17,0,0,1,7.85-4.28c0.61,1.25,1.77,2.49,1.35,4-0.94,5.24-2.78,10.68-1,16a9.19,9.19,0,0,0,7.59,7c0.79-8.59,2.46-17.21,6.51-24.94,3.8-7.51,9-14.79,16.56-18.87a20.92,20.92,0,0,1,9.52-2.45h0Zm-1.78,10a4.42,4.42,0,0,0-2.67.84c-5.09,3.47-8.2,9-10.89,14.4-2.89,6.08-5.22,12.63-5.47,19.41a19.68,19.68,0,0,0,5.37-3.43,63.92,63.92,0,0,0,15.7-19.8c1.32-2.76,2.46-5.89,1.7-9a4,4,0,0,0-3.73-2.45h0Zm68.89,0.26c-2.13.09-4.23,1.66-5.59,3.23A38.55,38.55,0,0,0,171,103.1c6.72-5.54,12.91-12,17.09-19.75,1.2-2.46,2.78-6.49-.25-8.28a4.17,4.17,0,0,0-2.11-.47h0Zm-70,75.24a116.55,116.55,0,0,0-26,16.63c-5.86,5.26-11.57,11.39-13.7,19.16-1,4.17-1.26,9.44,2.24,12.54,3.7,3.38,9.27,2.37,13.54.77,8.23-3.18,13.21-11.15,16.56-18.9a107.67,107.67,0,0,0,7.32-30.2h0Z"/></svg>