<svg id="Layer_1" data-name="Layer 1" xmlns="http://www.w3.org/2000/svg" viewBox="0 0 365.57 119.72"><title>cocacola_logo</title><g id="g3"><path id="path5" d="M140.4,104.41c-13.61-8.77-32.05-10.31-61.84-2-31.75,7.46-42.32,12.25-56.23,2.64-5.33-4.72-7.25-12.3-5.82-23.24,3.32-17.82,12.27-35,28.2-54,8.88-9.89,17.11-18.4,28-21.81,8.35-2.15,7.55,4.42,6.55,5.35A8,8,0,0,0,75,12.39c-1.12.87-4.21,3.67-4.37,7.46-0.23,5.77,5.75,4.58,8.32,1.4,2.78-3.58,6.9-10.43,3.67-16.83A9.51,9.51,0,0,0,76,0c-10-.56-19.24,4.18-27.8,9.42-18.73,13-33.71,31-42.18,50.76-4.91,11.9-9.33,29-2.71,42.85,5.12,9.63,15.76,14.75,28.45,13.68,8.91-.94,19.66-3.81,26.91-5.54s44.3-14.47,56.48,7.69a16.43,16.43,0,0,1,14.17-8c8.32-.77,20.32,2.41,29.06,8.84-2.9-4.42-11.15-10.87-18-15.31h0Z"/><path id="path7" d="M82.32,30c-6.94-4.56-20.85,4.14-32,19.05C40.1,62.42,35.68,78,40.47,85.17c7.13,8.46,20.39-3.83,26-10.43L67.2,74C71,69.86,74,64.9,76.85,60.15c0,0,2.64-4.35,2.76-4.56,1.64-.3,3.58-0.77,5.8-1.4,0,0.09-8.44,14.24-7.6,21.28,0.26,2.15.07,10,7.69,12.34C95.7,89.52,103.81,81.62,111,74.6l1.92-1.85c-0.16.7-.4,1.64-0.4,1.64-3,10.36,1,12.53,3.55,13.35,7.6,2.2,16.67-8.84,16.69-8.84-0.23,3.48-.94,6.36,2.74,8.65,3.46,1.24,7-.65,9.63-2.43,9.59-6.76,17.3-17.32,23.54-26.47h-4s-9.82,14.17-16.16,17.23a2.15,2.15,0,0,1-1.82.12c-0.82-.7-0.49-2.17,0-3.2,0-.07,24.5-42.5,24.5-42.5H159.69l-1.36,2.17c-0.07-.07-0.26-0.42-0.4-0.58-7.15-9.89-23.36,5.33-35.56,23-4.7,6.78-10.68,14.43-16.88,19.94,0,0-9.19,8.42-13.12,2.36-1.43-2.55-1-6.27-.19-8.7,4.56-13,12.44-24.81,21.42-31.94,2.52-2,5.28-2.55,6.64-1.71a2.86,2.86,0,0,1,.68,4,6.44,6.44,0,0,0-5.12,2c-2.69,2.81-3.6,5.52-2.76,8.07,4.14,5.89,12.39-5.75,12-12.84a7.58,7.58,0,0,0-3.53-6.13c-3-1.8-7.62-1.33-10.59.09-4,1.5-10.29,6.76-14,10.82C92.31,45.92,84.33,51.6,81.86,51c0.82-2.08,7.55-15.83.47-21h0ZM138,50.33c2.24-3.11,8.79-11.43,10.38-12.84,5.35-4.72,7.5-2.64,7.69-1.17-5,9-10.92,19.24-16.46,28.45,0,0-1.73,2.64-1.73,2.64-2.45,3.74-4.93,7-9,9.19a2.62,2.62,0,0,1-2.15-.23,2.32,2.32,0,0,1-1-2.2C126,71.31,129,62.52,138,50.33h0ZM75.19,55.71s-0.09.3-.14,0.4-5,8.18-5,8.18c-3,4-6.83,9.14-11.55,11.57-1.4.47-3.34,0.77-4.33-.47-2.1-2.5-1-6-.14-8.79l0.3-1c2.52-6.83,6.5-12.84,10.38-18.42l0.19-.07a0.24,0.24,0,0,1,0,.09c2.43,4.68,7,6.85,10.43,7.86,0,0,0,0,0,.09a2.1,2.1,0,0,1-.19.56h0Zm4.75-9.66c0,0.07-2.24,5.14-2.24,5.14a1.7,1.7,0,0,1-1.4,0l-1-.16c-3.13-1-5.47-3-6.2-5.52-1-4.82,3.11-8.6,4.93-10s4.44-1.85,6-.61a6.39,6.39,0,0,1,1.33,4.21,22.71,22.71,0,0,1-1.43,6.9h0Z"/><path id="path9" d="M226,61.56a6.82,6.82,0,0,0-6.57-3.79c-9.14.84-18.1,8.37-22.79,19.17a55.31,55.31,0,0,0-4.7,17.42,48.33,48.33,0,0,1,15.24-11.6,31.54,31.54,0,0,1,5.47-13.21c1.73-2.57,5.19-6.73,9.07-5.61,3.39,1.15,2.2,10.54-2.31,19.64a63.46,63.46,0,0,1-13.61,18c-4.56,3.88-11.34,8.56-17.25,5-3.72-2.2-5.63-6.83-5.21-12.77,1.78-16.88,9.47-31.26,20.48-47.65C215.12,30.91,227.63,15.29,244.48,7c3.44-1.73,6.62-2.15,9.38-1.08,0,0-15.8,8.7-23.36,24.78-1.92,4.09-4.58,9.59-1.89,14.47,1.4,2.55,3.9,2.74,5.89,2.62,9.23-2.15,15.22-10.78,20.08-18.66,2.83-6,5.33-11.95,5.33-18.56,0-.79,0-1.87-0.12-2.67,4.42-2.34,13.47,1.8,13.47,1.8,7.08,2.34,22.14,13.89,27.21,16.09,2.48-2.88,6.55-7.22,8.84-9.4l-3.32-2C300.69,11.08,295.05,8,289.54,5,277-1.9,266.76.51,261.55,2.38l-3.9,1.38C253.79-.45,247.45,0,242.8,1.1,226,5.91,210.44,17.65,193.75,38c-12.27,15.94-19.9,29.74-24,43.35-3.13,9.16-4.09,22.63,3.55,30.63,6.5,6.78,15.1,5.31,21.18,2.88,13.16-6.5,25-20.46,30.91-36.54,1.4-4.84,3-11.6.54-16.76h0Zm30.28-50.38c-1.75,20-17.3,31.75-21.14,32.68-2.34.47-6.31-.56-2.76-9,5.24-11.32,14.14-20.9,23.73-25.81a4.9,4.9,0,0,1,.16,2.08h0Z"/><path id="path11" d="M348.45,13.7c-8.37,4.75-17,7.83-27.52,6.76-2.9,3.27-5.73,6.66-8.35,10.12,14.73,3.74,30.35-4.58,39-12.51A61.52,61.52,0,0,0,365.57,0,72.68,72.68,0,0,1,348.45,13.7h0Z"/><polygon id="polygon13" points="190.43 30.37 179.47 30.37 173.27 40.42 184.23 40.42 190.43 30.37"/><path id="path15" d="M320.89,105.35c-1.17.79-2.83,0.19-2.22-1.66,1.54-4.68,7.67-14.21,7.67-14.21l17.09-30.3H331.71c-0.56.91-1.75,3-1.75,3a15.67,15.67,0,0,0-2.83-3.34c-2.85-1.8-7.06-1-10,.68-12.58,7.36-21.77,21.91-29,33.25,0,0-7.62,12.6-11.85,13.54-3.3.26-3-4.18-2.83-5.21,1.29-7.48,4.23-14.61,7.22-21.06A159.83,159.83,0,0,0,300,64.25c13.68-13.07,25.2-27.89,26.91-31.21a26.45,26.45,0,0,1-4,.44c-10.52,14.68-32.05,36-38.6,39.18,2.9-7,21.58-40.17,37.48-56l2.5-2.41c3.88-3.79,7.88-7.67,11-8.3a1,1,0,0,1,1.12.77c0.14,2.95-1,5.12-2.22,7.6l-1.75,3.62a40.36,40.36,0,0,0,4.14-1c1.89-3.58,4-7.6,3.23-12.37a3.53,3.53,0,0,0-2.83-3c-4.75-.91-9.91,2.62-14.07,5.45l-0.16.09C301.39,23.87,283.34,48,267.56,81c-1.15.87-5.56,1.92-6.31,1.4a53.24,53.24,0,0,0,4.51-12.2,33.68,33.68,0,0,0,.33-4c0-2.88-.7-5.59-3.27-7.46-3-1.5-6.76-.79-9.28.33-11.29,4.68-19.73,16.25-25.81,25.79-3.27,6.06-6.55,12.53-7.43,20-0.63,5.82.65,9.56,4,11.43s7.69-.07,9.38-0.94c11.43-6,19.43-18.1,25.72-29.13a37,37,0,0,0,6.29-.79,0.18,0.18,0,0,1,.12,0c-0.14.49-1.5,4.51-1.5,4.51-4,11.71-5.84,19.66-2.06,24.38,5.38,6.66,14.31-.23,21.56-9.33-1.57,10.89,4.09,12.6,8.39,11.78,5-1.33,10.45-6.62,13-9.33-0.82,3.18-.61,8.86,3.9,9.42,3.09,0.56,5.4-1.1,8.07-2.55,9.59-5.21,21-22.61,24-27.63h-3.9c-4.21,6.34-9.61,14.71-16.39,18.7h0Zm-86-1.17a5.14,5.14,0,0,1-.82-3C234,94.66,241,82.9,246,76.52h0c2.08,4.56,6.8,7.5,9.66,8.74-3.55,7.9-15.71,24.81-20.76,18.91h0Zm22.75-22.44c-0.33.23-6.29-1.78-7.46-7.29-1-4.75,2.29-8.46,5.47-10.33a5.53,5.53,0,0,1,4.91-.91c1.4,0.94,1.78,2.62,1.78,4.42a24.7,24.7,0,0,1-.28,3.27s0,0.21,0,.23a45.16,45.16,0,0,1-4.4,10.61h0Zm47.81,20.34-1.12,1c-1.61,1.43-3.27,3-5.26,2.2a2,2,0,0,1-1-1.5c-0.09-4.11,1.75-7.93,3.55-11.64l0.47-1c5.17-8.63,11.18-18.8,20-25.86,1.5-1.08,3.11-2,4.79-1.26a2.48,2.48,0,0,1,.84,1.64,3.17,3.17,0,0,1-.28.91c-2.45,4-4.82,8.16-7.08,12.18-4.47,7.93-9.09,16.11-14.87,23.31h0Z"/></g></svg>