<?xml version="1.0" encoding="utf-8"?>
<!-- Generator: Adobe Illustrator 19.2.1, SVG Export Plug-In . SVG Version: 6.00 Build 0)  -->
<svg version="1.1" id="Layer_1" xmlns="http://www.w3.org/2000/svg" xmlns:xlink="http://www.w3.org/1999/xlink" x="0px" y="0px"
	 viewBox="0 0 345.2 76.4" style="enable-background:new 0 0 345.2 76.4;" xml:space="preserve">
<g>
	<g>
		<path d="M337.2,0.1c2.7-0.1,5.3-0.1,8-0.1c-8,16.6-15.6,33.3-23.4,50c-2.2,0-4.3,0-6.5,0c-3.6-8.4-7.7-16.5-11.4-24.9
			c2.6-0.1,5.2-0.1,7.7,0c2.2,5.2,4.9,10.1,6.9,15.3C324.7,26.9,331.1,13.6,337.2,0.1z"/>
	</g>
	<g>
		<path d="M137.6,7.2c5.1,0.1,10.3,0.1,15.3,0c-0.1,4.5-0.1,9.1,0,13.7c-5.1-0.1-10.3,0-15.4-0.1C137.7,16.3,137.5,11.8,137.6,7.2z"
			/>
		<g>
			<path d="M60.4,26.7c10.5-5.9,25.7-3.9,32.7,6.3c4.3,6.1,5.6,13.7,5.5,21c-12,0.1-24,0-36,0.1c0.6,3.7,2.2,7.6,5.6,9.6
				c4.9,2.9,12.6,2,15-3.6c5-0.1,9.8-0.1,14.8,0c-1.5,5.6-5.6,10.5-10.8,13.1c-5.6,3.1-12.3,3.6-18.5,2.6c-6.6-1-12.6-4.7-16.3-10.3
				c-4-5.9-5.1-13.3-4.2-20.2C49.1,37.7,53.7,30.5,60.4,26.7z M68.6,35.5c-3.4,1.6-5.1,5.3-5.9,8.8c6.8,0,13.7,0,20.5,0
				c-0.4-2.7-1.4-5.6-3.5-7.5C76.8,34,72.2,33.9,68.6,35.5z"/>
		</g>
		<g>
			<path d="M221.2,24.1c8.2-1.5,17.4,0.3,23.7,6c10.8,9.6,11.3,28.2,1.3,38.5c-8,8.3-21.3,9.8-31.4,5.2
				c-7.9-3.6-13.3-11.6-14.1-20.1c-0.3-5-0.1-10,1.9-14.6C205.5,31.2,213,25.5,221.2,24.1z M222.9,35.5c-4.3,1.5-6.3,6.2-7,10.5
				c-0.5,5.3-0.4,11.3,3,15.7c3.7,4.8,11.8,4.7,15.6-0.1c3.1-3.8,3.6-9.1,3.2-13.8c-0.2-4.2-1.7-8.6-5.2-11.2
				C229.8,34.6,226.1,34.3,222.9,35.5z"/>
		</g>
		<path d="M275.9,26.9c5.1-4,12.3-4.4,18.2-2c4.2,1.8,7.3,5.5,8.8,9.8c1.7,4.4,1.2,9.1,1.2,13.7c0,8.8-0.1,17.6,0.1,26.3
			c-5.1,0.1-10.2,0-15.3,0.1c0-10,0-20.1,0-30.1c0-2.6-1-5.4-3.1-7c-3.3-2.2-8-1.8-10.8,1c-2.2,2.2-3.2,5.4-3.1,8.5
			c0,9.2,0,18.4,0,27.6c-5-0.1-10.1,0-15.1-0.1c0-16.6,0.1-33.2,0-49.8c5,0.1,9.8-0.1,14.8,0.1c-0.1,2.3-0.1,4.6-0.1,6.9
			C272.8,30.2,274,28.3,275.9,26.9z"/>
		<path d="M0,25.1c5.3,0,10.6,0,15.9,0c3.2,10.7,6.6,21.3,9.6,32.1c3.7-10.5,6.5-21.4,10-32.1c5.1-0.1,10.3,0,15.3-0.1
			C45,41.6,39.2,58.2,33.5,74.8c-5.3,0-10.6-0.1-15.9,0.1C11.5,58.3,6.1,41.5,0,25.1z"/>
		<path d="M102.1,25c4.9,0,9.8,0,14.6,0c-0.1,2.8,0,5.6-0.1,8.4c1.3-1.4,2.2-3.1,3.5-4.5c3.3-3.6,8.6-5.1,13.4-3.8
			c-0.1,4.4-0.1,8.8,0,13.1c-3.8-0.4-8-0.3-11.1,2c-3.4,2.4-5,6.8-4.9,10.8c-0.1,8,0,15.8,0,23.8c-5.1,0-10.3-0.1-15.3,0.1
			C102.2,58.2,102.2,41.6,102.1,25z"/>
		<path d="M137.6,25.1c5.2-0.1,10.3,0,15.4-0.1c-0.1,16.6,0,33.2,0,49.8c-5.1-0.1-10.3,0-15.4,0C137.6,58.2,137.6,41.7,137.6,25.1z"
			/>
		<path d="M157.1,25c13.9,0.1,27.7,0,41.5,0.1c-0.1,3.8,0,7.6-0.1,11.4c-0.5,1-1.3,1.7-2,2.5c-7.1,7.9-14.1,16-21.3,23.8
			c8.2,0.1,16.3,0,24.5,0.1c0,4,0,8,0,12c-14.2-0.1-28.4-0.1-42.7,0c0-3.8,0-7.7,0-11.6c7.5-8.4,14.8-16.7,22.4-25
			c0.2-0.4,1.1-0.8,0.6-1.4c-7.7,0.2-15.3,0-23,0.1C157.1,33,157.1,29,157.1,25z"/>
	</g>
</g>
<g>
</g>
<g>
</g>
<g>
</g>
<g>
</g>
<g>
</g>
<g>
</g>
<g>
</g>
<g>
</g>
<g>
</g>
<g>
</g>
<g>
</g>
<g>
</g>
<g>
</g>
<g>
</g>
<g>
</g>
</svg>
