<?xml version="1.0" encoding="utf-8"?>
<!-- Generator: Adobe Illustrator 19.2.1, SVG Export Plug-In . SVG Version: 6.00 Build 0)  -->
<svg version="1.1" id="Layer_1" xmlns="http://www.w3.org/2000/svg" xmlns:xlink="http://www.w3.org/1999/xlink" x="0px" y="0px"
	 viewBox="0 0 392 238.4" style="enable-background:new 0 0 392 238.4;" xml:space="preserve">
<style type="text/css">
	.st0{fill-rule:evenodd;clip-rule:evenodd;fill:#231F20;}
</style>
<g>
	<path class="st0" d="M141.6,44c-0.4,0.8-0.6,1.6-0.2,2.4c0,0,2.7,3.2,3,9.8c0,0,2.6-7.3-0.9-12.1C143.5,44.1,142.6,42.4,141.6,44z"
		/>
	<path class="st0" d="M225.1,69.4c0.4,0,1,1,1,1c1.5,2.9,3,2.5,3,2.5c0-0.5-0.3-1.1-0.3-1.1c-0.4-0.8-2.2-4.2-2.2-4.2
		c-0.2-0.5-0.4-1.2-0.4-1.2c-1.5-2.2-2.8-0.5-2.8-0.5c-0.6,1.2-3.9,5.1-3.9,5.1c-0.7,0.9-0.8,1.8-0.8,1.8c-0.8,5.3,1.9,5.7,1.9,5.7
		c-0.1-1.4-0.2-4.6,1.3-5.7c0.5-0.4,2.6-2.7,2.6-2.7C224.9,69.4,225.1,69.4,225.1,69.4z"/>
	<path class="st0" d="M228,88.4c-2.8-1.7-3.2,0-3.2,0c-0.5,3,1.9,3.4,1.9,3.4c0.5,0.2,2.5,0.2,2.5,0.2c0.6,0,0.8-0.2,0.7-0.9
		C229.5,89.2,228,88.4,228,88.4z"/>
	<path class="st0" d="M164,88.4c0,0-1.5,0.8-1.9,2.7c-0.1,0.7,0.1,0.9,0.7,0.9c0,0,2.1,0,2.5-0.2c0,0,2.4-0.4,1.9-3.4
		C167.2,88.4,166.8,86.7,164,88.4z"/>
	<path class="st0" d="M172.4,70.9c0,0-3.3-3.9-3.9-5.1c0,0-1.4-1.7-2.8,0.5c0,0-0.2,0.7-0.4,1.2c0,0-1.7,3.5-2.2,4.2
		c0,0-0.4,0.6-0.3,1.1c0,0,1.5,0.4,3-2.5c0,0,0.6-1,1-1c0,0,0.2,0,0.6,0.6c0,0,2.1,2.3,2.6,2.7c1.4,1.1,1.3,4.3,1.3,5.7
		c0,0,2.7-0.4,1.9-5.7C173.2,72.7,173.2,71.8,172.4,70.9z"/>
	<path class="st0" d="M248.5,44.1c-3.5,4.8-0.9,12.1-0.9,12.1c0.4-6.7,3-9.8,3-9.8c0.4-0.8,0.3-1.6-0.2-2.4
		C249.4,42.4,248.5,44.1,248.5,44.1z"/>
	<path class="st0" d="M359.7,103.9c-0.2-0.3-0.3-0.6-0.3-0.8c-0.1-0.4-0.2-0.7-0.2-1.1c0-2.7-1.6-4.7-2.7-5.3
		c-1.1-0.6-1.9-1.2-2.2-2.1c-0.3-0.9-0.9-1.7-2-2.3c-1.1-0.6-2.6-1.7-3.8-2.1c-1.2-0.5-2.9-0.9-3.8,0c-0.4,0.4-1.1,1-1.7,1.5
		c-0.7,0.6-1.4,1.2-1.4,1.2c-1.3-1-1.6-2.1-2-3.6c-0.2-0.7-0.4-1.5-0.7-2.5c-1.3-3.6-4.3-2.6-6.2-2.4l0,0l-0.2,0c0,0-1,0-1.1,0.1
		c0,0-0.3-0.2-0.3-0.2l-0.5-0.3c0,0-3.1-1.8-3.2-1.9c0,0,0-0.1,0-0.2c0-0.2,0.1-0.7,0.5-1.4c1.4-2.2,2.4-6.5,2.6-10.1
		c0.8,0.1,1.5,0.2,2.3,0.2c7.2,0.4,11.5-1.5,14-3.9c0.2-0.2,0.3-0.3,0.5-0.5c1.4-1.4,2.2-3,2.6-4.3c0.5-1.5,1.2-3.4,1.2-5
		c0-7.3-4.3-12.7-8.9-15.2c-2.1-1.1-2.9-1.9-3.2-2.3c0.2-0.1,0.3-0.1,0.5-0.1c6.2,0,9.4-2.4,11-4.5c1.5-1.9,2.2-4.4,2.2-7.1
		c0-1.3-0.2-2.7-0.6-4.1c-1.7-2.9-3.4-2.1-4.4-0.6c-0.7,0.9-5.1,4.1-10.6,4.6c-4,0.4-6.2,2.3-7.3,3.9c-1.3,1.8-1.8,4-1.8,5.9
		c0,0.8,0.1,1.5,0.2,2.1c0.6,2.4,3.2,4.7,6.8,7.5l1.7,1.4l0.4,0.3c3,2.6,4.6,5.5,4.6,8c0,0.3,0,0.6-0.1,0.9
		c-0.1,0.6-0.3,1.1-0.6,1.6c-1.3,2.3-5.1,3.7-10.5,1.8c-2.5-0.9-7.4-3.9-10.4-6.9c-3.5-3.5-8.1-4.3-12.6-4.7c-3.9-0.3-6.3-1.2-8-3.1
		c-5-5.6-9.8-6.4-14.3-6.7c-1.7-0.1-1.8-0.3-2.1-0.6c-3.1-4.1-6.3-5.8-9-6.7c-1.1-0.4-2.1-0.6-2.9-0.8l-1.6-0.4l-0.4-0.1
		c-0.8-0.2-1.5-0.5-2.3-0.8c-1.7-0.7-3.7-1.7-7.3-4.1l-0.2-0.1v0l-0.2-0.1l0,0l-0.2-0.1l0,0l-0.2-0.1l0,0l-0.2-0.1l0,0
		c-0.3-0.2-0.6-0.3-1-0.5l0,0l-0.2-0.1l0,0l-0.2-0.1l0,0l-0.2-0.1l-0.2-0.1l0,0l-0.2-0.1l0,0l-0.2-0.1l0,0l-0.2-0.1l0,0l-0.2,0l0,0
		l-0.2,0l0,0l-0.2,0l0,0l-0.2,0c-0.4-0.1-0.8-0.1-1.2-0.2l0,0l-0.2,0l0,0l-0.2,0l0,0l-0.2,0l0,0l-0.2,0l0,0l-0.2,0l-0.2,0h0l-0.2,0
		h0l-0.2,0l0,0l-0.2,0l0,0l-0.2,0l0,0l0,0l-0.2,0l-0.2,0l0,0c-1.7,0.1-3.4,0.5-4.9,1c-10.7-14.2-27.4-23.8-46.3-24.9
		c-0.3,0-0.6,0-0.9,0h0c-0.3,0-0.6,0-0.9,0c-0.3,0-0.6,0-1,0c-0.3,0-0.6,0-1,0c-0.3,0-0.6,0-1,0c-0.3,0-0.6,0-1,0c-0.3,0-0.6,0-1,0
		v0c-19.5,0.9-36.7,10.7-47.6,25.5l-0.2-0.1l-0.2-0.1c-0.5-0.2-1.1-0.4-1.7-0.6l0,0l-0.2-0.1c-0.3-0.1-0.6-0.2-0.9-0.2l0,0l-0.2,0
		c-0.3-0.1-0.6-0.1-0.9-0.2l0,0l-0.2,0l0,0l-0.2,0l0,0l-0.2,0l0,0l-0.2,0l0,0l-0.2,0l0,0l-0.2,0l0,0l-0.2,0l0,0l-0.2,0l0,0l-0.2,0
		l0,0l-0.2,0c-0.1,0-0.3,0-0.4,0h0l0,0l-0.2,0h0h-0.2l-0.2,0h0l-0.2,0l-0.2,0l0,0l-0.2,0l0,0l-0.2,0l0,0l-0.2,0l0,0l-0.2,0l0,0
		l-0.2,0l0,0l-0.2,0l0,0l-0.2,0l0,0l-0.2,0l0,0l-0.2,0l0,0l-0.2,0l0,0l-0.2,0.1l0,0l-0.2,0.1l0,0l-0.2,0.1l0,0l-0.2,0.1l0,0
		l-0.2,0.1l-0.2,0.1l0,0l-0.2,0.1l0,0l-0.2,0.1l0,0l-0.2,0.1l0,0l-0.2,0.1l0,0l-0.2,0.1l0,0l-0.2,0.1l0,0l-0.2,0.1l0,0l-0.2,0.1l0,0
		l-0.2,0.1l0,0l-0.2,0.1l0,0l-0.2,0.1c-5.1,3.4-7,4.1-9.5,4.9l-0.4,0.1l-1.6,0.4c-1.3,0.3-2.9,0.6-4.6,1.4c-2.3,1-4.8,2.8-7.3,6.1
		c-0.2,0.3-0.3,0.4-2,0.6c-4.5,0.3-9.3,1.1-14.3,6.7c-1.7,1.9-4.1,2.9-8,3.1c-4.5,0.4-9.1,1.2-12.6,4.7c-3,2.9-7.8,6-10.4,6.9
		c-5.5,1.9-9.2,0.5-10.6-1.8c-0.1-0.2-0.2-0.4-0.3-0.7c-0.2-0.6-0.3-1.2-0.3-1.8c0-2.5,1.6-5.4,4.6-8l2-1.7c3.6-2.8,6.2-5,6.8-7.5
		c0.2-0.6,0.2-1.3,0.2-2.1c0-1.9-0.5-4-1.8-5.9c-1.1-1.6-3.3-3.5-7.3-3.9c-5.5-0.5-10-3.7-10.6-4.6c-1-1.5-2.7-2.3-4.4,0.6
		c-0.4,1.4-0.6,2.8-0.6,4.1c0,2.7,0.8,5.2,2.2,7.1c1.6,2.1,4.8,4.5,11,4.5c0.1,0,0.3,0.1,0.5,0.1c-0.3,0.4-1.1,1.2-3.2,2.3
		c-4.6,2.5-8.8,7.9-8.9,15.2c0,1.6,0.7,3.5,1.2,5c0.5,1.5,1.5,3.2,3.2,4.8c2.7,2.5,7.2,4.4,14.8,3.8c0.5,0,1-0.1,1.5-0.1
		c0.2,3.6,1.2,7.9,2.6,10.1c0.4,0.7,0.5,1.1,0.5,1.4c0,0.1,0,0.1,0,0.2c0,0-3.2,1.9-3.2,1.9l-0.5,0.3c0,0-0.3,0.1-0.3,0.2
		c0,0-1.1-0.1-1.1-0.1l-0.2,0c-1.9-0.2-5-1.1-6.2,2.4c-1,2.9-0.8,4.6-2.8,6.1c0,0-2.1-1.8-3-2.7c-0.9-0.9-2.6-0.5-3.8,0
		c-1.2,0.5-2.7,1.5-3.8,2.1c-1.1,0.6-1.7,1.4-2,2.3c-0.3,0.9-1.1,1.5-2.2,2.1c-1.1,0.6-2.7,2.6-2.7,5.3c0,0.7-0.1,1.2-0.5,2
		c-1.6,3.1-0.3,4.7,0.6,5.3c1.2,0.9,3.3,1.3,5.3,0.9l0,0.5l2.9-0.4c1.1-0.1,2.6,0.1,3.5,0.3l0.2,0.1c2.1,0.4,5-0.3,6.5-3
		c0.8-1.4,2-2.6,2.6-3c1.8,0.5,5.7,1.3,9.6-2.6c2.6-2.6,6-3.1,8.1-2.8l1.3,0.2c2.6,0.5,5.9,1.1,8.9-0.8c0.8-0.5,1.8-0.9,2.9-1.4
		c2.7-1.2,5.6-2.4,6-5c0.1-0.5,0.6-1.3,1-2c0.7-1.2,1.5-2.5,1.6-4.1c1.2,0.3,2.4,0.4,3.7,0.2l1.2-0.2c2-0.3,6.2-1,7.6-0.5
		c2.6,1,11,1.4,13.3,0.9c0,0,0.8-0.2,1.6-0.4c0.8,0.8,1.6,1.5,2.5,2.2c-1.7,0.1-3.2-0.1-4.2,0.1l-2.1,0.6c-0.7-0.2-2.3-0.2-3.2-0.1
		l-2.5,0.2l-2.8,0.3c-1.3,0.3-2.8,0.9-2.6,3.5c0.1,0.8,0.6,2,1.2,2.7c0.4,0.4,1.9,2.6,2.2,3.2l0.1,0.2c0.6,1.2,1.4,2.3,3.9,2.3
		c0.3,0,0.7,0,0.9,0c0.1,0.2,0.3,0.6,0.3,0.6c0.6,1.3,1.4,3,2.9,4.1l0.4,0.3c1.2,0.9,3.3,2.3,6.4,1.2l1.1-0.4c2.8-1,6.9-2.5,9-3.6
		l0.3-0.2c1.9-1.1,2.4-1.3,3.1-1.2l0.4,0.1c1.5,0.2,4.3,0.6,6.3-2.6l1.1-1.6c8.1,11.8,20.1,20.6,34.2,24.7l0.2,0
		c0.5,0.1,0.9,0.3,1.4,0.4l0.4,0.1l0.8,0.2l0.1,0c0.5,0.1,1,0.2,1.5,0.3l0.4,0.1l0.7,0.1c0.3,0.1,0.7,0.1,1,0.2l0.4,0.1l0.9,0.1
		l0.5,0.1c0.4,0.1,0.8,0.1,1.2,0.2l0.4,0l0.8,0.1l0.6,0.1c0.4,0,0.8,0.1,1.2,0.1l0.4,0c0.3,0,0.7,0,1,0.1l0.5,0c0.4,0,0.8,0,1.2,0
		l0.4,0l2.6,0l0.4,0c0.4,0,0.8,0,1.2,0l0.4,0c0.4,0,0.7,0,1.1-0.1l0.4,0c0.4,0,0.8-0.1,1.2-0.1l0.6-0.1l0.8-0.1l0.5-0.1
		c0.3,0,0.6-0.1,0.9-0.1l0.8-0.1l0.2,0c0.6-0.1,1.1-0.2,1.7-0.3l0.1,0c16.1-3,30-12.1,39.2-24.8l0.2,0.3c2,3.2,4.8,2.9,6.3,2.6
		l0.4-0.1c0.7-0.1,1.1,0.1,3.1,1.2l0.3,0.2c2.1,1.1,6.3,2.6,9,3.6l1.1,0.4c3.2,1.1,5.2-0.3,6.4-1.2l0.4-0.3c1.5-1,2.3-2.8,2.9-4.1
		c0,0,0.2-0.4,0.3-0.6c0.2,0,0.6,0,0.9,0c2.5,0,3.3-1.1,3.9-2.3l0.1-0.2c0.3-0.7,1.8-2.8,2.2-3.2c0.7-0.7,1.2-1.8,1.2-2.7
		c0.2-2.7-1.2-3.2-2.6-3.5l-2.8-0.3l-2.5-0.2c-0.9-0.1-2.6-0.1-3.3,0.1l-2.1-0.6c-1-0.3-2.5-0.1-4.2-0.1c0.9-0.7,1.8-1.4,2.5-2.2
		c0.8,0.2,1.6,0.4,1.6,0.4c2.3,0.5,10.7,0.1,13.3-0.9c1.3-0.5,5.5,0.2,7.5,0.5l1.2,0.2c0.3,0,0.7,0.1,1,0.1c1,0,1.9-0.1,2.7-0.3
		c0,0.7,0.2,1.4,0.5,2.1c0.3,0.7,0.7,1.3,1.1,1.9c0.4,0.7,0.9,1.5,1,2c0.4,2.6,3.2,3.8,6,5c1.1,0.4,2.1,0.9,2.9,1.4
		c3,1.8,6.3,1.2,8.9,0.8l1.3-0.2c2.1-0.3,5.5,0.2,8.1,2.8c0.3,0.3,0.6,0.6,0.9,0.8c1.7,1.4,3.5,2,4.9,2.2c1.6,0.2,2.9-0.2,3.8-0.4
		c0.6,0.3,1.8,1.6,2.6,3c0.1,0.1,0.1,0.2,0.2,0.3c1.5,2.5,4.2,3.2,6.3,2.8l0.2-0.1c0.9-0.2,2.4-0.5,3.5-0.3l2.9,0.4l0-0.5
		c2,0.3,4.1,0,5.3-0.9C360,108.6,361.2,107,359.7,103.9z M39.5,102.1c0,0-1.6,4.3-1.5,5.8c0,0-3.5,0.6-4-1.1c0,0-0.1-0.7,0.5-1.6
		c0,0,0.6-0.9,0.7-2.6c0,0-0.1-4.2,2.6-3.1c0.5,0.3,1,0.7,1.3,1.2C39.2,100.8,39.8,101.2,39.5,102.1z M39.8,98.3
		c-1.5-1.5,0.4-2.2,0.4-2.2c1.1-0.5,3.2-2.3,3.2-2.3c0.6-0.5,1.4-0.8,2.2-0.6c1.7,0.4,0.7,1.8,0.7,1.8c-0.7,1.3-2.9,3.5-2.9,3.5
		C41.4,100.1,39.8,98.3,39.8,98.3z M183.1,90.4c-1.1-2.8-4.3-5.8-4.3-5.8c-1.2-1.2-1.8-0.8-1.8-0.8c-1,0.4,0,1.8,0,1.8
		c3.3,4.2,3.6,7.2,3.6,7.2c1.7,3.6,8,6.2,8,6.2c-8,1.7-12.9-4.9-12.9-4.9c-0.7-1.6-2.8,0-2.8,0c-2.7,3-6.8,2.5-6.8,2.5
		c-1.3-0.3-2.4-0.2-2.4-0.2c-1.6-0.1-4.9,1.1-4.9,1.1c-0.9,0.3-3.4,1-3.4,1c-1.7,0.6-2.3,0.6-2.3,0.6c-0.6-0.2-1,0.1-1,0.1
		c-1.3,0.4-2.1-0.8-2.1-0.8c-0.6-0.8-1-3.3-1-3.3c0.1-2.1,2-3.7,2-3.7c0.7-0.8,0.5-0.9,0.5-0.9c-0.6-0.9-2.5,0-2.5,0
		c-1.3,0.5-0.7-1.5-0.7-1.5c0.3-2,3.3-4.2,3.3-4.2c1-0.7,1.1-1.9,1.1-1.9c0.1-1.5,1.8-3.8,1.8-3.8c0.8-1-0.6-0.6-0.6-0.6
		c-1,0.3-6.4,1.1-6.4,1.1c-1.8,1.3-6.1,0-6.1,0c5.4-6.7,2-13.3,2-13.3c0,2.9-1.7,7.6-1.7,7.6c-1.3,4.1-3.2,4.6-3.2,4.6
		c-0.7,0.5-4.8,1.4-4.8,1.4c-1.6,0.6-0.6,1.9-0.6,1.9c0.5,0.3,1.4,2.1,1.4,2.1c0.4,1.4,3.3,5.9,3.3,5.9c1.2,1,0.9,2.8,0.9,2.8
		c0.1,1.7-1.4,4.8-1.4,4.8c-0.4,0.9,0.1,0.7,0.1,0.7c0.3,0,1.4-0.7,1.4-0.7c0.7-0.4,1.5-2.1,1.5-2.1c0.2-0.5,0.9-1.5,0.9-1.5
		c0.5-0.5,0.6-1.7,0.6-1.7c0.1-1.8-1.7-4.5-1.7-4.5c-1.3-1.9-3.2-6.5-3.2-6.5l2.6-0.2c0.9,0.5,1.7,1.8,1.7,1.8l2,4.7
		c0.2,0.8,1.2,1.9,1.2,1.9c1.1,1.3,0.9,2.7,0.9,2.7c0.1,1.3-0.5,2.4-0.5,2.4l-2.8,4.3c-1.1,2.1-3.8,1.5-3.8,1.5
		c-1.5-0.5-3.5,0.6-3.5,0.6c-1.6,1.2-10.5,4.5-10.5,4.5c-1.9,1-3.8,0.4-3.8,0.4c-2.1-0.7-3.4-3-3.4-3c-1.4-4.5-3.8-3.3-3.8-3.3
		c-1.7,0.3-2-1-2-1c-0.8-1.5-2.6-3.9-2.6-3.9c-1.4-1.5,0.5-2,0.5-2l5.4-0.4c2.9-0.2,6.2,6.9,6.2,6.9c0.8,1.9,3.4,1.1,3.4,1.1
		c6.9-2.4,7.7-3.3,7.7-3.3c0.1-6.6-5.1-8.5-5.1-8.5c-5.8-2.1-7.9-9.1-7.9-9.1c-0.9-1.2-1.7,0.7-1.7,0.7c-0.3,2.6,1.2,4.8,1.2,4.8
		c-5.5,0.7-12-0.8-12-0.8c-4.2-0.7-9.3,0.5-9.3,0.5c-3.4,0.5-5.2-0.9-5.2-0.9c-3.2-1.9-1.5-11.6-1.5-11.6c0.2-1.8-0.8-1.5-0.8-1.5
		c-2.4,2.2-1.9,11.5-1.9,11.5c-5.1,10.9-16.2,10.6-16.2,10.6c-2.2-0.4-4.9,0.2-4.9,0.2c-8.2,1.5-12,7.9-12,7.9
		c1.3,0.5,2.2-0.8,2.2-0.8c6.8-7.3,14.5-5.6,14.5-5.6c5.4,0.9,8-0.2,8-0.2c4.9-1.5,7.8-6.3,7.8-6.3l3.2,0c-0.9,1-2,4-2,4
		c-0.2,2.1-2.1,2.7-2.1,2.7c-1.6,0.5-5.8,2.7-5.8,2.7c-2.1,1.5-8.7,0.2-8.7,0.2c-5.9-0.9-10.1,3.6-10.1,3.6c-3,3.2-7.4,1.7-7.4,1.7
		c-2.1-0.7-5,4.2-5,4.2c-1.5,2.8-4.9,1.6-4.9,1.6c-1.4-0.5-3.5-0.2-3.5-0.2c0-1.4,0.4-3.1,0.4-3.1c0.8-2.7,2-3.1,2-3.1
		c1.6-0.1,2.5-1.6,2.5-1.6c0.8-2.2,3.3-2.8,3.3-2.8c3.2-1.4,5.1-5.9,5.1-5.9c0.9-1.8,1.7-4.1,1.7-4.1c0.9-1.2,3.5-0.5,3.5-0.5
		c1.9,0.1,2.5-0.3,2.5-0.3l4.2-2.5c2.1-1.9,0.1-4.8,0.1-4.8C63.4,74,64,67.9,64,67.9c-4.2,0.7-9,1.2-13.1-0.3
		c-10.7-4.3-6.3-15.3-6.3-15.3c2-6.3,6.3-8.2,6.3-8.2c2.5-0.9,4.3-3.5,4.3-3.5c1.3-3-2.4-3.5-2.4-3.5c-14.3,0.2-10.7-12.7-10.7-12.7
		c3.3,4.1,11.4,5.7,11.4,5.7c6.5,0.1,7.5,4.7,7.5,4.7c2,4.7-2.3,7.7-2.3,7.7c-5.3,3.9-8.4,7.7-8.4,7.7c-4.9,7.4-0.6,11.4-0.6,11.4
		c8.3,7.9,22.2-4.3,22.2-4.3c5.5-6.5,14-5.6,14-5.6c5.2-0.6,7.8-3.2,7.8-3.2c5.6-7.5,13.3-6.6,13.3-6.6c3.5-0.4,3.8-1.5,3.8-1.5
		c3.7-6,12.3-7,12.3-7c4.2-1.1,9.2-4.5,9.2-4.5c7.3-5.8,17.4,1.4,17.4,1.4c1.9,2,4.5,3.9,4.5,3.9c5.7,4,8.3,7.1,8.3,7.1
		c2,2,4.7,5.3,4.7,5.3c3.5,3,5.8,7.4,5.8,7.4c3.4,4.1,3,9.3,3,9.3c0,1.1,1.1,5.1,1.1,5.1c0.3,1.1,1.3,5.6,1.3,5.6
		c2,2.7,2.2,7.6,2.2,7.6c4.3,3.2,5.6,7.6,5.6,7.6c2.1,3.2,6.5,4.9,6.5,4.9C187,96.4,183.1,90.4,183.1,90.4z M347.7,108.3
		c0,0-3.4,1.1-4.9-1.6c0,0-2.9-5-5-4.2c0,0-4.3,1.4-7.4-1.7c0,0-4.2-4.6-10.1-3.6c0,0-6.7,1.3-8.7-0.2c0,0-4.2-2.2-5.8-2.7
		c0,0-1.9-0.6-2.1-2.7c0,0-1.2-3-2-4l3.2,0c0,0,2.9,4.8,7.8,6.3c0,0,2.7,1.1,8,0.2c0,0,7.7-1.7,14.5,5.6c0,0,0.9,1.3,2.2,0.8
		c0,0-3.7-6.4-12-7.9c0,0-2.7-0.6-4.9-0.2c0,0-11.1,0.3-16.2-10.6c0,0,0.6-9.3-1.9-11.5c0,0-0.9-0.3-0.8,1.5c0,0,1.7,9.7-1.5,11.6
		c0,0-1.8,1.4-5.2,0.9c0,0-5.1-1.2-9.3-0.5c0,0-6.4,1.5-12,0.8c0,0,1.4-2.2,1.2-4.8c0,0-0.8-1.9-1.7-0.7c0,0-2.1,7-7.9,9.1
		c0,0-5.2,1.9-5.1,8.5c0,0,0.8,0.9,7.7,3.3c0,0,2.6,0.8,3.4-1.1c0,0,3.3-7.1,6.2-6.9l5.4,0.4c0,0,1.8,0.5,0.5,2c0,0-1.9,2.5-2.6,3.9
		c0,0-0.2,1.3-2,1c0,0-2.4-1.2-3.8,3.3c0,0-1.2,2.3-3.4,3c0,0-2,0.7-3.8-0.4c0,0-9-3.3-10.5-4.5c0,0-1.9-1.1-3.5-0.6
		c0,0-2.7,0.6-3.8-1.5l-2.8-4.3c0,0-0.6-1.1-0.5-2.4c0,0-0.3-1.3,0.9-2.7c0,0,1.1-1.1,1.2-1.9l2-4.7c0,0,0.8-1.2,1.7-1.8l2.6,0.2
		c0,0-1.8,4.6-3.2,6.5c0,0-1.8,2.8-1.7,4.5c0,0,0.1,1.2,0.6,1.7c0,0,0.6,1,0.9,1.5c0,0,0.8,1.7,1.4,2.1c0,0,1.1,0.7,1.4,0.7
		c0,0,0.5,0.1,0.1-0.7c0,0-1.5-3.1-1.4-4.8c0,0-0.3-1.7,0.9-2.8c0,0,2.9-4.5,3.3-5.9c0,0,0.9-1.8,1.4-2.1c0,0,1-1.3-0.6-1.9
		c0,0-4-0.9-4.8-1.4c0,0-1.9-0.6-3.2-4.6c0,0-1.7-4.7-1.7-7.6c0,0-3.4,6.6,2,13.3c0,0-4.3,1.3-6.1,0c0,0-5.4-0.8-6.4-1.1
		c0,0-1.3-0.3-0.6,0.6c0,0,1.6,2.3,1.8,3.8c0,0,0.1,1.2,1.1,1.9c0,0,3,2.1,3.3,4.2c0,0,0.7,2-0.7,1.5c0,0-1.8-0.8-2.5,0
		c0,0-0.2,0.1,0.5,0.9c0,0,1.8,1.6,2,3.7c0,0-0.3,2.5-1,3.3c0,0-0.8,1.1-2.1,0.8c0,0-0.3-0.3-1-0.1c0,0-0.6,0-2.3-0.6
		c0,0-2.6-0.7-3.4-1c0,0-3.2-1.2-4.9-1.1c0,0-1-0.1-2.4,0.2c0,0-4.1,0.5-6.8-2.5c0,0-2.1-1.6-2.8,0c0,0-4.9,6.6-12.9,4.9
		c0,0,6.4-2.6,8-6.2c0,0,0.2-3,3.6-7.2c0,0,1-1.4,0-1.8c0,0-0.6-0.4-1.8,0.8c0,0-3.2,3-4.3,5.8c0,0-3.9,5.9-9.6,3.9
		c0,0,4.4-1.7,6.5-4.9c0,0,1.3-4.3,5.6-7.6c0,0,0.2-4.9,2.2-7.6c0,0,1-4.6,1.3-5.6c0,0,1.1-4,1.1-5.1c0,0-0.4-5.2,3-9.3
		c0,0,2.3-4.4,5.8-7.4c0,0,2.7-3.3,4.7-5.3c0,0,2.6-3.1,8.3-7.1c0,0,2.6-1.9,4.5-3.9c0,0,10.1-7.3,17.4-1.4c0,0,5,3.4,9.2,4.5
		c0,0,8.6,1,12.3,7c0,0,0.3,1.1,3.8,1.5c0,0,7.7-0.9,13.3,6.6c0,0,2.6,2.6,7.8,3.2c0,0,8.5-0.9,14,5.6c0,0,13.9,12.1,22.2,4.3
		c0,0,4.3-4.1-0.6-11.4c0,0-3.1-3.8-8.4-7.7c0,0-4.3-3-2.3-7.7c0,0,1-4.6,7.5-4.7c0,0,8.1-1.6,11.4-5.7c0,0,3.7,12.9-10.7,12.7
		c0,0-3.7,0.6-2.4,3.5c0,0,1.8,2.5,4.3,3.5c0,0,4.3,1.9,6.3,8.2c0,0,4.4,11-6.3,15.3c-4.1,1.4-8.9,1-13.1,0.3c0,0,0.6,6.2-2.1,11.6
		c0,0-2.1,2.9,0.1,4.8l4.2,2.5c0,0,0.6,0.4,2.5,0.3c0,0,2.6-0.6,3.5,0.5c0,0,0.8,2.2,1.7,4.1c0,0,1.9,4.4,5.1,5.9
		c0,0,2.6,0.6,3.3,2.8c0,0,0.8,1.6,2.5,1.6c0,0,1.2,0.4,2,3.1c0,0,0.4,1.8,0.4,3.1C351.2,108.1,349.1,107.8,347.7,108.3z
		 M348.6,98.6c0,0-2.2-2.2-2.9-3.5c0,0-1-1.5,0.7-1.8c0.8-0.2,1.6,0.1,2.2,0.6c0,0,2.1,1.8,3.2,2.3c0,0,1.9,0.7,0.4,2.2
		C352.1,98.3,350.6,100.1,348.6,98.6z M358,106.8c-0.5,1.7-4,1.1-4,1.1c0.1-1.5-1.5-5.8-1.5-5.8c-0.3-0.9,0.3-1.4,0.3-1.4
		c0.4-0.5,0.8-0.9,1.3-1.2c2.7-1.1,2.6,3.1,2.6,3.1c0.2,1.7,0.7,2.6,0.7,2.6C358.1,106.2,358,106.8,358,106.8z"/>
</g>
<g>
	<path class="st0" d="M80,201.9h21.3c0,0-0.9-10.1-10.5-10.1S80,201.9,80,201.9L80,201.9L80,201.9z M91.1,179.7
		c28.7,0,27.6,28,27.6,28v4.4h-39c0,6.4,5.3,11.9,12.6,11.9c7.3,0,11-7,11-7l13.8,6.8c-6.4,9.6-15,13.5-24.6,13.5
		c-29.9,0-30.5-24.9-30.5-28C61.9,206.2,62.4,179.7,91.1,179.7L91.1,179.7L91.1,179.7z M155.2,221.7L155.2,221.7
		c-0.9,0-12,0.2-12-13.5c0-13.6,12.2-14.1,12.2-14.1s13.6,0.4,13.6,13.8C168.9,221.2,156,221.7,155.2,221.7L155.2,221.7L155.2,221.7
		z M168.2,145v41.1c0,0-8.3-6.4-17.8-6.4c-9.5,0-25.5,6.7-25.5,27.7c0,21,13.6,29,25.3,29c11.7,0,18.2-7.7,18.2-7.7v6.8h16.9V145
		H168.2L168.2,145z M282.2,182.5h17.2v30.4c0,0,0.6,10.2,10.2,10.2c9.6,0,9.5-10.2,9.5-10.2v-30.2h17.3v31.3c0,0,2.2,24.5-26.4,24.5
		c-28.6,0-27.9-21.5-27.9-25.3C282.2,209.2,282.2,182.5,282.2,182.5L282.2,182.5L282.2,182.5z M346.4,145h17v90.6h-17V145L346.4,145
		z M375.2,145H392v90.6h-16.7V145L375.2,145z M247.7,220.5L247.7,220.5h-16.1v-56.7h8.6c0,0,11.7-0.9,11.7,9.3
		c0,10.2-9.3,9.3-9.3,9.3h-5.3v15.3c0,0,7.7,0,10.4,0c2.7,0,11.5,1.3,11.5,11.4C259.2,219.1,247.7,220.5,247.7,220.5L247.7,220.5
		L247.7,220.5z M262.2,188.3c0,0,7.9-6.1,7.9-17.7c0-11.6-8.4-22-26.3-22c-17.9,0-30,0-30,0l0,87h36.9c0,0,26.5-0.3,26.5-24.2
		C277.1,197.5,271.7,192.2,262.2,188.3L262.2,188.3L262.2,188.3z M0,146.8v88.9h17.9v-71.9h8.4c0,0,13.2-0.6,13.2,11.4
		c0,12-11.7,11.7-11.7,11.7h-4.3v20.5l17.9,28.3h21l-25-36.3c0,0,20.6-1.8,20.6-24.2c0-22.4-15.6-28.4-36.3-28.4
		C1,146.8,0,146.8,0,146.8L0,146.8L0,146.8z"/>
</g>
<g>
</g>
<g>
</g>
<g>
</g>
<g>
</g>
<g>
</g>
<g>
</g>
<g>
</g>
<g>
</g>
<g>
</g>
<g>
</g>
<g>
</g>
<g>
</g>
<g>
</g>
<g>
</g>
<g>
</g>
</svg>
