<svg id="Layer_1" data-name="Layer 1" xmlns="http://www.w3.org/2000/svg" viewBox="0 0 262.3 236.8"><defs><style>.cls-1{fill:#231f20;}</style></defs><title>honda_logo</title><path class="cls-1" d="M161.67,205.67h30.91c7.22,0,15.72,2.9,15.72,14.37,0,12.46-7.77,15.69-15.72,15.69H161.67v-6h5.9v-18h-5.9v-6Zm17.91,24H188c5,0,7.67-3.81,7.67-9,0-4.5-2.37-9-7.58-9h-8.49v18"/><path class="cls-1" d="M79.65,204.67c5.65,0,23.27.72,23.27,16S85.39,236.8,79.65,236.8s-23.35-.68-23.35-16.09C56.3,205.52,74,204.67,79.65,204.67Zm-10.05,16c0,7.42,4.55,10.06,10.05,10.06s10-2.72,10-10.06-4.54-10.06-10-10.06S69.6,213.46,69.6,220.71"/><polyline class="cls-1" points="0 229.72 5.92 229.72 5.92 211.72 0 211.72 0 205.66 23.78 205.66 23.78 211.72 17.87 211.72 17.87 217.66 36 217.66 36 211.72 30.09 211.72 30.09 205.66 53.85 205.66 53.85 211.72 47.93 211.72 47.93 229.72 53.85 229.72 53.85 235.74 30.09 235.74 30.09 229.72 36 229.72 36 223.6 17.87 223.6 17.87 229.72 23.78 229.72 23.78 235.74 0 235.74 0 229.72"/><polyline class="cls-1" points="124.19 235.72 105.36 235.72 105.36 229.74 111.2 229.74 111.21 211.69 105.36 211.69 105.36 205.67 129.09 205.67 145.89 228.22 145.89 211.69 140.02 211.69 140.02 205.67 158.97 205.67 158.97 211.69 153.12 211.69 153.12 235.72 135.23 235.72 118.38 213.13 118.38 229.74 124.19 229.74 124.19 235.72"/><path class="cls-1" d="M262.3,229.74v6H236.6v-6h6l-2.3-4.27H224.44l-2.26,4.27h5.93v6H208.56v-6h5.9l10.3-18h-7.15v-6h24.87l14,24.07h5.84Zm-25-9.9-4.92-9.22-4.91,9.22h9.83"/><path class="cls-1" d="M132.18,114a49.42,49.42,0,0,0-6.3.37c-8.49,1.14-11.67,3.35-14.64,9C109.3,127,105.41,150,102.31,164c-6.52-.23-12.81-0.54-18.24-0.9-2.12-19.69-7-125.2-7.12-153.34C80.37,9.52,84,9.23,88,9.05c2.43,13,10.54,69.86,17.16,84.1,2.95,6.35,8.08,8.51,14.36,9a241.32,241.32,0,0,0,25.23,0c6.27-.48,11.4-2.65,14.35-9,6.62-14.24,14.73-71.1,17.16-84.1,4,0.18,7.68.47,11.11,0.7-0.13,28.13-5,133.64-7.14,153.34-5.44.36-11.71,0.67-18.23,0.9-3.11-14-7-37-8.93-40.63-3-5.63-6.16-7.84-14.64-9a49.59,49.59,0,0,0-6.3-.37"/><path class="cls-1" d="M132.18,173.29c-16.91,0-55.57-1-68.3-3.42-13.52-2.54-22.65-10.3-27.12-23-3.83-10.88-6.65-31.09-8.38-60a352.12,352.12,0,0,1,.05-48.4C30.34,14.62,41.31,5.14,64.26,2.55,79.59,0.82,113.86,0,132.18,0s52.59,0.82,67.91,2.55c23,2.6,33.93,12.07,35.84,35.82a351.27,351.27,0,0,1,.06,48.4c-1.73,29-4.54,49.17-8.37,60-4.48,12.75-13.6,20.5-27.14,23C187.76,172.25,149.09,173.29,132.18,173.29Zm66.35-13.74a25.46,25.46,0,0,0,19.17-16.2c2.4-6.86,5.72-22.33,7.8-57.21a336.84,336.84,0,0,0,0-46.93C224.16,23.08,216,14.92,198.91,13c-14.94-1.69-48.65-2.48-66.73-2.48s-51.8.78-66.74,2.48C48.32,14.92,40.2,23.08,38.89,39.21a343.81,343.81,0,0,0,0,46.93c2.09,34.88,5.4,50.35,7.8,57.21a25.47,25.47,0,0,0,19.16,16.2c10.71,2,45.86,3.25,66.37,3.25s55.65-1.25,66.35-3.25"/></svg>