<?xml version="1.0" encoding="utf-8"?>
<!-- Generator: Adobe Illustrator 19.2.1, SVG Export Plug-In . SVG Version: 6.00 Build 0)  -->
<svg version="1.1" id="Layer_1" xmlns="http://www.w3.org/2000/svg" xmlns:xlink="http://www.w3.org/1999/xlink" x="0px" y="0px"
	 viewBox="0 0 372.6 122.4" style="enable-background:new 0 0 372.6 122.4;" xml:space="preserve">
<g>
	<path d="M361.6,74.8l10.4,6.9c-3.4,5-11.4,13.5-25.3,13.5c-17.3,0-30.2-13.4-30.2-30.4c0-18.1,13-30.4,28.7-30.4
		c15.8,0,23.5,12.6,26,19.3l1.4,3.5L331.9,74c3.1,6.1,7.9,9.2,14.7,9.2C353.5,83.2,358.2,79.8,361.6,74.8L361.6,74.8z M329.7,63.8
		l27.2-11.3c-1.5-3.8-6-6.5-11.3-6.5C338.8,46.1,329.4,52.1,329.7,63.8L329.7,63.8z"/>
	<path d="M296.9,3.4H310v89h-13.1V3.4L296.9,3.4z"/>
	<path d="M276.2,36.7h12.6v54c0,22.4-13.2,31.7-28.9,31.7c-14.7,0-23.6-9.9-26.9-18l11.6-4.8c2.1,5,7.1,10.8,15.3,10.8
		c10.1,0,16.2-6.2,16.2-17.9v-4.4h-0.5c-3,3.6-8.7,6.9-16,6.9c-15.2,0-29.1-13.2-29.1-30.3c0-17.1,13.9-30.5,29.1-30.5
		c7.2,0,13,3.2,16,6.8h0.5V36.7L276.2,36.7z M277.2,64.9c0-10.7-7.1-18.6-16.2-18.6c-9.2,0-16.9,7.8-16.9,18.6
		c0,10.6,7.7,18.3,16.9,18.3C270,83.2,277.2,75.5,277.2,64.9L277.2,64.9z"/>
	<path d="M158.8,64.6c0,17.5-13.6,30.4-30.4,30.4S98,82.1,98,64.6c0-17.6,13.6-30.4,30.4-30.4S158.8,47,158.8,64.6L158.8,64.6z
		 M145.5,64.6c0-10.9-7.9-18.4-17.1-18.4s-17.1,7.5-17.1,18.4c0,10.8,7.9,18.4,17.1,18.4S145.5,75.5,145.5,64.6L145.5,64.6z"/>
	<path d="M225.1,64.8c0,17.5-13.6,30.4-30.4,30.4c-16.7,0-30.4-12.9-30.4-30.4c0-17.6,13.6-30.4,30.4-30.4
		C211.5,34.4,225.1,47.1,225.1,64.8L225.1,64.8z M211.8,64.8c0-10.9-7.9-18.4-17.1-18.4c-9.2,0-17.1,7.5-17.1,18.4
		c0,10.8,7.9,18.4,17.1,18.4C203.9,83.2,211.8,75.5,211.8,64.8L211.8,64.8z"/>
	<path d="M48.1,81.8c-19.1,0-34-15.4-34-34.4S29,13,48.1,13c10.3,0,17.8,4,23.3,9.2l9.1-9.1C72.8,5.6,62.5,0,48.1,0
		C22,0,0,21.3,0,47.4s22,47.4,48.1,47.4c14.1,0,24.7-4.6,33.1-13.3c8.6-8.6,11.2-20.6,11.2-30.3c0-3-0.4-6.2-0.8-8.5H48.1v12.6h31
		c-0.9,7.9-3.4,13.3-7.1,17C67.5,76.9,60.4,81.8,48.1,81.8L48.1,81.8L48.1,81.8z"/>
</g>
<g>
</g>
<g>
</g>
<g>
</g>
<g>
</g>
<g>
</g>
<g>
</g>
<g>
</g>
<g>
</g>
<g>
</g>
<g>
</g>
<g>
</g>
<g>
</g>
<g>
</g>
<g>
</g>
<g>
</g>
</svg>
