<?xml version="1.0" encoding="utf-8"?>
<!-- Generator: Adobe Illustrator 19.2.1, SVG Export Plug-In . SVG Version: 6.00 Build 0)  -->
<svg version="1.1" id="Layer_1" xmlns="http://www.w3.org/2000/svg" xmlns:xlink="http://www.w3.org/1999/xlink" x="0px" y="0px"
	 viewBox="0 0 268.9 200.2" style="enable-background:new 0 0 268.9 200.2;" xml:space="preserve">
<path d="M100.3,154.3H88.6l17.6,27.8v0.2v16.9h5l0,0l0,0h5.1v-16.9v-0.2l17.5-27.8H122l-10.9,18.9L100.3,154.3z M40.5,176.4
	c0-13.1,10.7-23.8,23.8-23.8c13.2,0,23.8,10.7,23.8,23.8s-10.6,23.8-23.8,23.8C51.2,200.2,40.5,189.5,40.5,176.4L40.5,176.4
	L40.5,176.4L40.5,176.4z M64.3,191.4c7.3,0,13.3-6.7,13.3-15.1s-5.9-15.1-13.3-15.1C57,161.3,51,168,51,176.4S57,191.4,64.3,191.4
	L64.3,191.4L64.3,191.4L64.3,191.4z M38,154.3v8.3H24l0,0l0,0l0,0v36.6h-10v-36.6H14H0v-8.3H38z M234.9,189L234.9,189l-3.8,10.1
	h-11.8l18.6-44.9h5.9h6.5l18.6,44.9h-12.1l-3.7-10.1l0,0h-9.3L234.9,189L234.9,189L234.9,189L234.9,189z M243.8,181.4h6.5l0,0
	l-6.5-16.4l0,0l-6,16.4l0,0H243.8L243.8,181.4L243.8,181.4z M222.7,154.3v8.3h-13.9l0,0l0,0l0,0v36.6h-10v-36.6l0,0h-13.9v-8.3
	H222.7z M134.2,176.4c0-13.1,10.7-23.8,23.8-23.8c13.2,0,23.8,10.7,23.8,23.8s-10.6,23.8-23.8,23.8
	C144.9,200.2,134.2,189.5,134.2,176.4L134.2,176.4L134.2,176.4L134.2,176.4z M158,191.4c7.3,0,13.4-6.7,13.4-15.1s-6-15.1-13.4-15.1
	s-13.3,6.7-13.3,15.1S150.6,191.4,158,191.4L158,191.4L158,191.4L158,191.4z"/>
<path d="M134.4,0c-51,0-92.3,26.9-92.3,60.1s41.3,60.1,92.3,60.1s92.5-26.9,92.5-60.1S185.3,0,134.4,0z M134.4,7.2
	c29.8,0,53.9,8.6,53.9,19.4c0,8.1-13.3,14.9-32.5,17.8c-3.1-20.6-11.5-35.7-21.4-35.7c-9.9,0-18.1,15.1-21.4,35.7
	c-19-2.9-32.5-9.7-32.5-17.8C80.5,15.8,104.6,7.2,134.4,7.2z M147.3,45.4c-4.1,0.4-8.4,0.5-12.9,0.5c-4.3,0-8.6-0.2-12.7-0.5
	c2-13.3,7-22.8,12.7-22.8C140.3,22.6,145.1,32.1,147.3,45.4z M128.4,114.7c-41.3-2-74-26.8-74-56.4c0-10.1,3.7-19.8,10.4-28L64.7,30
	C65,43.8,84,55.5,111,59.6c0,0.9,0,1.8,0,2.7c0,24.8,8,46.4,17.7,52.4H128.4z M134.4,95.5c-7.4,0-13.5-15.4-13.6-34.8
	c-0.1,0-0.1,0-0.2,0h0.4c0,0,0,0,0,0c4,0.4,8.9,0.7,13.5,0.7c4.7,0,9.5-0.4,13.8-0.7C147.9,80.1,141.9,95.5,134.4,95.5z
	 M140.8,114.2c9.5-6.1,17.2-27.1,17.2-51.9c0-0.9,0-1.8,0-2.7c25-4.1,45.3-15.5,46.3-29.1c-0.1-0.1-0.2-0.2-0.2-0.3l0.2-0.2
	c0,0.2,0,0.3,0,0.5c6.3,8.2,10.3,17.6,10.3,27.5C214.5,87.6,182.2,112,140.8,114.2z"/>
<g>
</g>
<g>
</g>
<g>
</g>
<g>
</g>
<g>
</g>
<g>
</g>
<g>
</g>
<g>
</g>
<g>
</g>
<g>
</g>
<g>
</g>
<g>
</g>
<g>
</g>
<g>
</g>
<g>
</g>
</svg>
