<?xml version="1.0" encoding="utf-8"?>
<!-- Generator: Adobe Illustrator 19.2.1, SVG Export Plug-In . SVG Version: 6.00 Build 0)  -->
<svg version="1.1" id="Layer_1" xmlns="http://www.w3.org/2000/svg" xmlns:xlink="http://www.w3.org/1999/xlink" x="0px" y="0px"
	 viewBox="0 0 288.3 191.8" style="enable-background:new 0 0 288.3 191.8;" xml:space="preserve">
<g>
	<path d="M274.8,133.3c1.2,0.7,2.4,1,3.7,1c0,0,0,0,0,0c1.3,0,2.5-0.3,3.7-1c1.2-0.6,2.1-1.6,2.8-2.8c0.7-1.2,1-2.5,1-3.7
		c0-1.3-0.3-2.6-1-3.8c-0.7-1.2-1.6-2.1-2.8-2.8c-1.2-0.7-2.4-1-3.7-1c0,0,0,0,0,0c-1.3,0-2.5,0.3-3.7,1c-1.2,0.7-2.1,1.6-2.8,2.8
		c-0.7,1.2-1,2.5-1,3.8c0,1.3,0.3,2.5,1,3.7C272.7,131.7,273.6,132.6,274.8,133.3L274.8,133.3L274.8,133.3L274.8,133.3z
		 M273.1,123.6c0.6-1,1.3-1.8,2.3-2.3c1-0.5,2-0.8,3.1-0.8c0,0,0,0,0,0c1,0,2.1,0.3,3.1,0.8c1,0.6,1.8,1.3,2.3,2.3
		c0.6,1,0.8,2,0.8,3.2c0,1.1-0.3,2.1-0.8,3.1c-0.5,1-1.3,1.7-2.3,2.3c-1,0.6-2,0.8-3.1,0.8c0,0,0,0,0,0c-1.1,0-2.1-0.3-3.1-0.8
		c-1-0.6-1.8-1.3-2.3-2.3c-0.6-1-0.9-2-0.9-3.1C272.3,125.7,272.6,124.6,273.1,123.6L273.1,123.6L273.1,123.6L273.1,123.6z"/>
	<path d="M276.6,127.5h0.8l0,0c0.5,0,0.8,0.1,1,0.3c0.1,0,0.1,0.1,0.2,0.1c0.3,0.3,0.7,0.9,1.2,1.7l0,0l0.7,1.3h1.6l-1-1.6l0,0
		c-0.5-0.7-0.9-1.3-1.2-1.6c-0.2-0.2-0.4-0.3-0.7-0.4c0.7,0,1.3-0.3,1.7-0.7c0.4-0.4,0.7-1,0.7-1.6c0-0.4-0.1-0.8-0.4-1.2
		c-0.3-0.4-0.6-0.6-1-0.8c-0.3-0.1-0.9-0.2-1.6-0.2c-0.1,0-0.3,0-0.5,0l0,0h-2.8v8.2h1.3V127.5L276.6,127.5L276.6,127.5z
		 M276.6,123.9h1.5l0,0c0.2,0,0.3,0,0.5,0c0.4,0,0.7,0.1,0.8,0.1c0.3,0.1,0.4,0.2,0.6,0.4c0.1,0.2,0.2,0.4,0.2,0.7
		c0,0.3-0.1,0.7-0.4,0.9c-0.2,0.2-0.6,0.3-1.2,0.3c-0.1,0-0.3,0-0.4,0l0,0h-1.6V123.9L276.6,123.9L276.6,123.9z"/>
	<polygon points="81.8,124.8 93.5,124.8 81.8,105.3 71.9,88.9 29.8,114.1 36.3,124.8 81.8,124.8 81.8,124.8 	"/>
	<polygon points="190.7,124.8 212.3,124.8 247.9,124.8 212.3,65.5 172.9,0 156.7,9.8 130.9,25.2 156.7,68.1 190.7,124.8 
		190.7,124.8 	"/>
	<path d="M170.7,144.4c-4-2.6-8.8-4.1-13.9-4.1c0,0-0.1,0-0.1,0c-14.1,0.1-25.6,11.6-25.6,25.8c0,14.1,11.5,25.7,25.6,25.8
		c0,0,0.1,0,0.1,0c5.1,0,9.8-1.5,13.9-4.1l0,0v2.7h11.8V166v-41.2h-11.8V144.4L170.7,144.4L170.7,144.4z M170.7,168.7
		c-1.3,6.5-7,11.5-13.9,11.5c0,0-0.1,0-0.1,0c-7.8-0.1-14.1-6.4-14.1-14.2c0-7.8,6.3-14.1,14.1-14.1c0,0,0.1,0,0.1,0
		c6.9,0,12.6,4.9,13.9,11.5l0,0V168.7L170.7,168.7L170.7,168.7z"/>
	<path d="M226.3,144.4c-4-2.6-8.8-4.1-13.9-4.1c0,0-0.1,0-0.1,0c-14.1,0.1-25.6,11.6-25.6,25.8c0,14.1,11.5,25.7,25.6,25.8
		c0,0,0.1,0,0.1,0c5.1,0,9.9-1.5,13.9-4.1l0,0v2.7h11.8V166v-24.5h-11.8V144.4L226.3,144.4L226.3,144.4z M226.3,168.7
		c-1.3,6.5-7,11.5-13.9,11.5c0,0-0.1,0-0.1,0c-7.8-0.1-14.1-6.4-14.1-14.2c0-7.8,6.3-14.1,14.1-14.1c0,0,0.1,0,0.1,0
		c6.9,0,12.6,4.9,13.9,11.5l0,0V168.7L226.3,168.7L226.3,168.7z"/>
	<path d="M280.3,162.8c-0.4-0.2-1-0.4-1.7-0.7c-2.6-0.9-6.9-2-12.9-3.3c-5.2-1.2-7.9-2.7-7.9-4.6c0-1.3,0.5-2.4,1.4-3.2
		c1.2-1,3.4-1.6,6.5-1.6c3.2,0,5.5,0.7,6.8,2c0.8,0.8,1.4,2.3,1.8,4.4l0,0h4.3h8.3l0,0c0-6.2-2.5-10.6-7.5-13.3
		c-0.3-0.2-0.5-0.3-0.8-0.4c-3.4-1.6-8-2.4-13.7-2.4c-6.9,0-12.1,1.8-15.6,5.5c-2.8,2.9-4.1,6.5-4.1,10.8c0,5.3,2.6,9.1,7.9,11.6
		c2,1,6.9,2.3,14.6,3.9c5.2,1.1,7.8,2.7,7.8,4.8c0,1.2-0.5,2.3-1.6,3.2c-1.4,1.2-3.6,1.8-6.5,1.8c-3.9,0-6.6-0.6-8.2-1.9
		c-1.6-1.2-2.4-3-2.4-5.3l0,0h-13.2l0,0c0,6,2.5,10.5,7.6,13.4c4,2.3,9.3,3.5,15.9,3.5c4.4,0,8.3-0.7,11.6-2.2c0.7-0.3,1.3-0.6,2-1
		c5.2-2.9,7.8-7.4,7.8-13.7C288.3,169.2,285.6,165.3,280.3,162.8L280.3,162.8L280.3,162.8L280.3,162.8z"/>
	<path d="M39.6,144.4c-4-2.6-8.8-4.1-13.9-4.1c0,0-0.1,0-0.1,0C11.5,140.4,0,151.9,0,166c0,14.1,11.5,25.7,25.6,25.8
		c0,0,0.1,0,0.1,0c5.1,0,9.9-1.5,13.9-4.1l0,0v2.7h11.8V166v-24.5H39.6V144.4L39.6,144.4L39.6,144.4z M39.6,168.7
		c-1.3,6.5-7,11.5-13.9,11.5c0,0-0.1,0-0.1,0c-7.7-0.1-14-6.4-14-14.2c0-7.8,6.3-14.1,14-14.1c0,0,0.1,0,0.1,0
		c6.9,0,12.7,4.9,13.9,11.5l0,0V168.7L39.6,168.7L39.6,168.7z"/>
	<polygon points="113.6,136.4 126.4,136.4 126.4,125.1 113.6,125.1 113.6,136.4 113.6,136.4 	"/>
	<polygon points="113.6,190.4 126.4,190.4 126.4,140.3 113.6,140.3 113.6,190.4 113.6,190.4 	"/>
	<path d="M95.8,144.4c-4-2.6-8.8-4.1-13.9-4.1c0,0-0.1,0-0.1,0c-14.1,0.1-25.6,11.6-25.6,25.8c0,14.1,11.5,25.7,25.6,25.8
		c0,0,0.1,0,0.1,0c5.1,0,9.9-1.5,13.9-4.1l0,0v2.7h11.8V166v-41.2H95.8V144.4L95.8,144.4L95.8,144.4z M95.8,168.7
		c-1.3,6.5-7,11.5-13.9,11.5c0,0-0.1,0-0.1,0c-7.8-0.1-14.1-6.4-14.1-14.2c0-7.8,6.3-14.1,14.1-14.1c0,0,0.1,0,0.1,0
		c6.9,0,12.7,4.9,13.9,11.5l0,0V168.7L95.8,168.7L95.8,168.7z"/>
	<polygon points="170.7,124.8 156.7,101.5 122.4,44.4 81.8,68.9 80.4,69.7 81.8,72 113.5,124.8 156.7,124.8 170.7,124.8 
		170.7,124.8 	"/>
</g>
<g>
</g>
<g>
</g>
<g>
</g>
<g>
</g>
<g>
</g>
<g>
</g>
<g>
</g>
<g>
</g>
<g>
</g>
<g>
</g>
<g>
</g>
<g>
</g>
<g>
</g>
<g>
</g>
<g>
</g>
</svg>
