<svg id="Layer_1" data-name="Layer 1" xmlns="http://www.w3.org/2000/svg" viewBox="0 0 429.71 91.74"><title>microsoft_logo</title><path d="M91.72,48.15H48.13V91.74H91.72V48.15Zm-48.13,0H0V91.74H43.59V48.15ZM91.72,0H48.13V43.59H91.72V0ZM43.6,0H0V43.59H43.6V0ZM420.35,41.5V60.1c0,2.38.42,4.09,1.25,5.06a5.09,5.09,0,0,0,4,1.45,7.13,7.13,0,0,0,1.87-.32,6.31,6.31,0,0,0,1.87-.82l0.38-.26v7.63l-0.13.07a10.7,10.7,0,0,1-2.87.92,19.27,19.27,0,0,1-4,.44c-7.77,0-11.69-4.22-11.69-12.55V41.5H397.12V73.34h-9.38V41.5H381.2V33.95h6.53V28.49a14.94,14.94,0,0,1,1.8-7.36,12.6,12.6,0,0,1,5.08-5A15.28,15.28,0,0,1,402,14.34a15.88,15.88,0,0,1,5.21.7l0.16,0.06v8L407,22.9A10,10,0,0,0,403,22a5.41,5.41,0,0,0-4.3,1.76A7.9,7.9,0,0,0,397.12,29v5H411V25L411.2,25l8.82-2.7,0.33-.1V33.95h9.36V41.5h-9.36ZM360.25,66.62c3.42,0,6-1.11,7.79-3.28s2.64-5.49,2.64-9.77-0.94-7.47-2.81-9.64a9.63,9.63,0,0,0-7.69-3.26,9.79,9.79,0,0,0-7.91,3.41c-1.91,2.27-2.87,5.54-2.87,9.72s1,7.24,2.87,9.48a10,10,0,0,0,8,3.35M360.68,33c6.12,0,11,1.82,14.42,5.41s5.2,8.59,5.2,14.85-1.86,11.49-5.54,15.28-8.74,5.74-15,5.74c-6,0-10.93-1.83-14.51-5.44s-5.41-8.58-5.41-14.75c0-6.49,1.87-11.68,5.55-15.44S354.18,33,360.68,33m-36,0a25.75,25.75,0,0,1,4.62.48,20.41,20.41,0,0,1,4.22,1.18l0.15,0.07v8.56L333.27,43a15.3,15.3,0,0,0-4.15-1.93,16.39,16.39,0,0,0-4.75-.73,6.41,6.41,0,0,0-4,1.13A3.39,3.39,0,0,0,319,44.3a4,4,0,0,0,1.13,3c0.76,0.75,2.64,1.72,5.56,2.89,3.67,1.48,6.3,3.15,7.81,5A10.26,10.26,0,0,1,335.75,62a10.94,10.94,0,0,1-4.27,9c-2.82,2.24-6.68,3.37-11.47,3.37a26.89,26.89,0,0,1-5.31-.61,23.75,23.75,0,0,1-5-1.54l-0.15-.07V63l0.4,0.28A19.12,19.12,0,0,0,315.21,66a16.74,16.74,0,0,0,5.13.94c4.07,0,6.06-1.29,6.06-3.93a3.84,3.84,0,0,0-.58-2.24A6.61,6.61,0,0,0,323.73,59a43.08,43.08,0,0,0-4.74-2.2,24.36,24.36,0,0,1-5.7-3.19,9.74,9.74,0,0,1-2.8-3.66,12.23,12.23,0,0,1-.92-4.89,10.73,10.73,0,0,1,4.24-8.75A17,17,0,0,1,324.68,33M285.12,66.61c3.42,0,6-1.11,7.78-3.28s2.64-5.49,2.64-9.76-0.94-7.47-2.81-9.64A9.62,9.62,0,0,0,285,40.67a9.79,9.79,0,0,0-7.91,3.41c-1.91,2.28-2.87,5.55-2.87,9.72s1,7.23,2.87,9.47a10,10,0,0,0,8,3.35M285.54,33c6.12,0,11,1.82,14.42,5.42s5.2,8.59,5.2,14.86-1.87,11.48-5.54,15.28-8.74,5.74-15,5.74c-6,0-10.93-1.83-14.52-5.44s-5.41-8.58-5.41-14.74c0-6.49,1.87-11.69,5.54-15.44S279,33,285.54,33m-35.12,7.77h0.1a12.48,12.48,0,0,1,3.57-5.29,10.47,10.47,0,0,1,9.82-1.67l0.15,0.07v9.35l-0.4-.28a7,7,0,0,0-2.16-.88,11,11,0,0,0-2.79-.41,7.06,7.06,0,0,0-6,3.17,14,14,0,0,0-2.31,8.37V73.33h-9.26V33.95h9.26v6.83h0ZM224.56,33a25.7,25.7,0,0,1,5.18.56A15.3,15.3,0,0,1,234,35l0.13,0.07V44l-0.39-.28a14.89,14.89,0,0,0-8.82-3.07,11.34,11.34,0,0,0-8.69,3.59c-2.22,2.39-3.34,5.62-3.34,9.62s1.07,7.12,3.2,9.37a11.42,11.42,0,0,0,8.68,3.38,13.8,13.8,0,0,0,4.44-.86,17.51,17.51,0,0,0,4.53-2.36l0.4-.28V71.6l-0.13.07a22.19,22.19,0,0,1-11.18,2.61,20.62,20.62,0,0,1-10.13-2.46,17.4,17.4,0,0,1-6.94-7,20.89,20.89,0,0,1-2.48-10.15,24.28,24.28,0,0,1,2.55-11.32,18.22,18.22,0,0,1,7.43-7.64A22.87,22.87,0,0,1,224.56,33M196.92,73.33h-9.26V33.95h9.26V73.33Zm-4.54-56.17a5.52,5.52,0,0,1,4,1.59A5.22,5.22,0,0,1,198,22.57a5,5,0,0,1-1.66,3.79,5.7,5.7,0,0,1-4,1.51,5.63,5.63,0,0,1-4-1.51,5,5,0,0,1-1.64-3.79,5.1,5.1,0,0,1,1.66-3.86,5.57,5.57,0,0,1,3.94-1.55M169,31l-16.78,42.3h-6.71L128.42,31h-0.3v42.3h-8.89v-55h13.62L149,59.2l16.64-40.83h13.09v55h-9.46V31H169Z"/></svg>