<?xml version="1.0" encoding="utf-8"?>
<!-- Generator: Adobe Illustrator 19.2.1, SVG Export Plug-In . SVG Version: 6.00 Build 0)  -->
<svg version="1.1" id="Layer_1" xmlns="http://www.w3.org/2000/svg" xmlns:xlink="http://www.w3.org/1999/xlink" x="0px" y="0px"
	 viewBox="0 0 356.1 76.7" style="enable-background:new 0 0 356.1 76.7;" xml:space="preserve">
<style type="text/css">
	.st0{fill:#1C1E20;}
</style>
<path class="st0" d="M345.4,27.9c-1.2-0.3-2.5-0.4-3.8-0.2c-0.6,0.1-1.2,0.2-1.8,0.4c-0.5,0.2-0.9,0.4-1.3,0.7
	c-0.6,0.4-1,1.1-1.1,1.8c-0.1,0.6,0.1,1.2,0.5,1.7c0.5,0.6,1.1,1,1.8,1.2c0.6,0.3,1.2,0.5,1.9,0.6c0.7,0.2,1.5,0.4,2.2,0.5
	c1.7,0.4,3.4,0.8,5,1.4c2.9,1.1,5.7,3.1,6.8,6.2c0.5,1.4,0.6,2.8,0.4,4.2c-0.2,1.7-0.9,3.4-2,4.7c-0.8,1.1-1.8,1.9-3,2.6
	c-1.6,0.9-3.4,1.5-5.2,1.8c-1.4,0.2-2.8,0.3-4.2,0.3c-1.8-0.1-3.5-0.3-5.2-0.8c-3.1-0.9-5.9-2.4-8.3-4.4c1.4-1.8,2.8-3.7,4.1-5.5
	c1.5,1.2,3.1,2.1,5,2.8c1.2,0.4,2.4,0.7,3.7,0.9c1.1,0.1,2.3,0.2,3.5,0c0.8-0.1,1.6-0.3,2.4-0.7c0.6-0.3,1.1-0.7,1.5-1.2
	c0.3-0.4,0.6-0.9,0.6-1.5c0.1-0.6-0.1-1.2-0.4-1.7c-0.4-0.6-0.9-1-1.5-1.4c-0.7-0.4-1.6-0.7-2.4-1c-1-0.3-2-0.5-3-0.7
	c-2.9-0.6-6.3-1.4-8.7-3.5c-1.2-1-2-2.3-2.5-3.7c-0.5-1.6-0.5-3.3-0.1-4.9c0.4-1.3,1-2.5,1.8-3.5c1.2-1.5,2.7-2.5,4.4-3.2
	c1.3-0.5,2.6-0.9,4-1.1c1.8-0.2,3.6-0.2,5.3,0.1c3.2,0.5,6.1,1.7,8.7,3.6c-1.3,1.8-2.6,3.5-3.9,5.3C349,29.1,347.3,28.3,345.4,27.9z
	 M281.6,4.9h-7.8v50.3h7.8V4.9z M321.7,55.2c0-10.9,0-21.7,0-32.6c-2.6,0-5.2,0-7.8,0c0,2.1,0,13.3,0,15.4c0,0.9,0,1.8-0.1,2.7
	c0,0.6-0.1,1.2-0.2,1.7c-0.2,1.1-0.6,2.1-1.1,3c-1.4,2.3-4,3.4-6.6,3.4c-2.6,0-5.1-1-6.5-3.4c-0.6-0.9-0.9-2-1.1-3.1
	c-0.3-1.4-0.3-2.9-0.4-4.4c0-0.9,0-1.9,0-2.8c0-1.6,0-3.2,0-4.8c0-2.6,0-5.1,0-7.7c-2.6,0-5.2,0-7.8,0c0,2.7,0,10.5,0,13.2
	c0,1.3,0,2.5,0.1,3.8c0,0.9,0.1,1.9,0.2,2.8c0.2,2.2,0.6,4.3,1.6,6.4c2.1,4.1,6,6.5,10.5,7.1c2.2,0.3,4.4,0.1,6.5-0.6
	c2-0.6,4.2-1.7,5.7-3.2c0.1,1,0.1,2.1,0.2,3.1C317.2,55.2,319.4,55.2,321.7,55.2z M228.3,51c-1.8-1.8-3.6-3.7-5.3-5.5
	c-1.4,1.3-3.1,2.1-4.9,2.6c-1.8,0.4-3.7,0.4-5.5-0.2c-1.8-0.6-3.3-1.7-4.4-3.2c-1.1-1.5-1.6-3.4-1.7-5.2c-0.1-1.8,0.3-3.8,1.1-5.4
	c0.9-1.7,2.3-2.9,4-3.7c0.8-0.3,1.5-0.5,2.3-0.7c1-0.2,2.1-0.2,3.1-0.1c1.9,0.2,3.6,0.9,5.2,1.9c1.6-2,3.1-4,4.7-5.9
	c-2.7-2.1-5.8-3.4-9.2-3.7c-3.3-0.4-6.8,0.2-9.8,1.6c-3.1,1.5-5.5,3.8-7.1,6.8c-1.6,3-2.2,6.4-2.1,9.7c0.2,3.3,1.2,6.6,3.1,9.4
	c2,2.8,4.7,4.8,7.9,5.9c3.2,1.1,6.6,1.3,9.9,0.6C222.9,55,225.9,53.5,228.3,51z M264.6,55.2c0-10.9,0-21.7,0-32.6
	c-2.6,0-5.2,0-7.8,0c0,2.1,0,13.3,0,15.4c0,0.9,0,1.8-0.1,2.7c0,0.6-0.1,1.2-0.2,1.7c-0.2,1.1-0.6,2.1-1.1,3c-1.4,2.3-4,3.4-6.6,3.4
	c-2.6,0-5.1-1-6.5-3.4c-0.6-0.9-0.9-2-1.1-3.1c-0.3-1.4-0.3-2.9-0.4-4.4c0-0.9,0-1.9,0-2.8c0-1.6,0-3.2,0-4.8c0-2.6,0-5.1,0-7.7
	c-2.6,0-5.2,0-7.8,0c0,2.7,0,10.5,0,13.2c0,1.3,0,2.5,0.1,3.8c0,0.9,0.1,1.9,0.2,2.8c0.2,2.2,0.6,4.3,1.6,6.4
	c2.1,4.1,6,6.5,10.5,7.1c2.2,0.3,4.4,0.1,6.5-0.6c2-0.6,4.2-1.7,5.7-3.2c0.1,1,0.1,2.1,0.2,3.1C260.1,55.2,262.4,55.2,264.6,55.2z
	 M192.9,39c0,4.5-1.7,8.9-4.9,12.1c-3.2,3.2-7.6,4.9-12.1,4.9c-4.5,0-8.9-1.7-12.1-5c-3.2-3.3-4.8-7.7-4.8-12.2
	c0-4.5,1.7-8.9,4.9-12.1c3.2-3.2,7.6-4.9,12.1-4.9c4.5,0,8.9,1.7,12.1,5C191.3,30,192.9,34.5,192.9,39z M185.3,38.9
	c0-0.7-0.1-1.3-0.2-2c-0.1-0.6-0.3-1.2-0.5-1.8c-0.2-0.6-0.5-1.1-0.8-1.6c-0.3-0.5-0.7-1-1.1-1.4c-0.4-0.4-0.9-0.8-1.3-1.1
	c-0.5-0.3-1-0.6-1.6-0.8c-0.6-0.2-1.2-0.4-1.8-0.5c-0.6-0.1-1.3-0.2-1.9-0.2c-0.6,0-1.3,0.1-1.9,0.2c-0.6,0.1-1.2,0.3-1.8,0.5
	c-0.6,0.2-1.1,0.5-1.6,0.8c-0.5,0.3-0.9,0.7-1.3,1.1c-0.4,0.4-0.8,0.9-1.1,1.4c-0.3,0.5-0.6,1.1-0.8,1.6c-0.2,0.6-0.4,1.2-0.5,1.8
	c-0.1,0.6-0.2,1.3-0.2,2c0,0.7,0.1,1.3,0.2,2c0.1,0.6,0.3,1.2,0.5,1.8c0.2,0.6,0.5,1.1,0.8,1.6c0.3,0.5,0.7,1,1.1,1.4
	c0.4,0.4,0.9,0.8,1.3,1.1c0.5,0.3,1,0.6,1.6,0.8c0.6,0.2,1.2,0.4,1.8,0.5c0.6,0.1,1.3,0.2,1.9,0.2c0.6,0,1.3-0.1,1.9-0.2
	c0.6-0.1,1.2-0.3,1.8-0.5c0.6-0.2,1.1-0.5,1.6-0.8c0.5-0.3,0.9-0.7,1.3-1.1c0.4-0.4,0.8-0.9,1.1-1.4c0.3-0.5,0.6-1.1,0.8-1.6
	c0.2-0.6,0.4-1.2,0.5-1.8C185.2,40.2,185.3,39.6,185.3,38.9z M127,38.3c0,11.5-5.2,22.4-14.2,29.7c-4.5,3.6-9.6,6.1-15.2,7.4
	c-3.2,0.8-6.4,1.1-9.6,1.2c-2.4,0.1-4.8,0.1-7.3,0.1c-11.5,0-22.9,0-34.4,0c-2.4,0-4.8,0-7.3-0.1c-3.3-0.1-6.5-0.4-9.6-1.2
	c-5.6-1.3-10.7-3.8-15.2-7.4C5.2,60.8,0,49.9,0,38.3C0,26.8,5.2,15.9,14.2,8.7c4.5-3.6,9.6-6.1,15.2-7.4c3.2-0.8,6.4-1.1,9.6-1.2
	C41.4,0,43.9,0,46.3,0c11.5,0,22.9,0,34.4,0c2.4,0,4.8,0,7.3,0.1c3.3,0.1,6.5,0.4,9.6,1.2c5.6,1.3,10.7,3.8,15.2,7.4
	C121.7,15.9,127,26.8,127,38.3z M101.4,38.3c0-4.1-2-8-5.4-10.3c-1.7-1.2-3.6-1.9-5.6-2.2c-2-0.3-4-0.3-6.1-0.3
	c-13.9,0-27.8,0-41.6,0c-2,0-4-0.1-6,0.3c-2,0.3-3.9,1-5.6,2.2c-3.4,2.3-5.4,6.2-5.4,10.3c0,4.1,2,8,5.4,10.3
	c1.7,1.2,3.6,1.9,5.6,2.2c2,0.3,4,0.3,6.1,0.3c13.9,0,27.8,0,41.6,0c2,0,4,0.1,6-0.3c2-0.3,3.9-1,5.6-2.2
	C99.3,46.3,101.4,42.5,101.4,38.3z"/>
<g>
</g>
<g>
</g>
<g>
</g>
<g>
</g>
<g>
</g>
<g>
</g>
<g>
</g>
<g>
</g>
<g>
</g>
<g>
</g>
<g>
</g>
<g>
</g>
<g>
</g>
<g>
</g>
<g>
</g>
</svg>
