<svg id="Layer_1" data-name="Layer 1" xmlns="http://www.w3.org/2000/svg" viewBox="0 0 175.75 175.75"><defs><style>.cls-1{fill:#1d1d1b;}.cls-1,.cls-2{fill-rule:evenodd;}</style></defs><title>starbucks_logo</title><path class="cls-1" d="M87.87,0a87.87,87.87,0,1,0,87.87,87.87A87.88,87.88,0,0,0,87.87,0Zm0,172.42a84.54,84.54,0,1,1,84.54-84.54A84.54,84.54,0,0,1,87.87,172.42Z"/><path class="cls-2" d="M90.83,84.32a5.06,5.06,0,0,1-2.91.54A5.06,5.06,0,0,1,85,84.42c-0.1-.06-0.3,0-0.25.26a3.72,3.72,0,0,0,3.25,3c2.69-.65,3.11-2.48,3.17-3.24C91.15,84.23,90.93,84.25,90.83,84.32Z"/><ellipse cx="57.96" cy="146.07" rx="5.89" ry="4.42" transform="translate(-99.18 147.74) rotate(-68.97)"/><path class="cls-2" d="M87.87,82.53c2.44,0.45,1.88-.68,1.88-0.68-0.22-1-1.91-.93-1.91-0.93s-1.7,0-1.88,1C86,81.92,85.45,83.07,87.87,82.53Z"/><path class="cls-2" d="M87.48,57.93a0.87,0.87,0,0,0-1.25,0L83.42,61c-0.33.36-.2,0.65,0.29,0.64l6.62-.12c0.49,0,.6-0.29.25-0.64Z"/><path class="cls-2" d="M84.6,24.67l0.1,3.2,2.77-.1c1.54,0,2.2-.4,2.16-1.66,0-1-.5-1.6-1.89-1.56Z"/><polygon class="cls-2" points="44.87 39.72 38.92 35.58 42.38 41.98 44.87 39.72"/><path class="cls-2" d="M87.52,20.69a1.58,1.58,0,0,0,1.66-1.61c0-1.14-.67-1.57-1.81-1.53l-3,.11,0.1,3.15Z"/><path class="cls-2" d="M63.77,26.2c1.23-.59,2.11-1.3,1.39-3-0.47-1.12-1.2-1.41-2.59-.75L60.3,23.54l1.51,3.6Z"/><path class="cls-2" d="M123.37,118c0.81-1,1.6-1.94,2.33-3-1.13-2.47-5.15-2.6-5.15-2.6a14.14,14.14,0,0,1-1.9,3.33c-1.06,1.81-9-4.69-9-4.69s3.58-4.63,2.21-9.37a15.87,15.87,0,0,0-3.8-7s-3.54-3.61-.67-9.32c0,0,3.36-5.82-1.74-13.17,0,0,7.31,3.73,3.84,14,0,0-2.39,5.1,1.35,8.71,2.93,2.82,2.92,7.59,2.92,7.59a5.32,5.32,0,0,0,.73,1.87c0.31,0.59,3.42,2.52,3.42,2.52a5.29,5.29,0,0,0,3,.14,4.51,4.51,0,0,1,.26,3.27c2.32-.42,4.64,1.24,6,2.5q0.92-1.45,1.74-3a3.72,3.72,0,0,1-1.42-.89,7.8,7.8,0,0,0-5.33-2.43l0.48-2.39s2.45-.27,5.78,2.5a3.7,3.7,0,0,0,1.64.94c0.51-1.09,1-2.21,1.41-3.34a5.16,5.16,0,0,1-3.31-1.43,8.79,8.79,0,0,0-5.67-2.61l-0.05-2.86s3.38-.47,6.83,2.85a5.57,5.57,0,0,0,3.16,1.24q0.57-1.85,1-3.77a6.4,6.4,0,0,1-4.62-1.47,10.7,10.7,0,0,0-6.86-2.74l-0.05-2.87a12.12,12.12,0,0,1,8,3,4.31,4.31,0,0,0,4.09.93q0.32-2.23.42-4.52a8.66,8.66,0,0,1-7.8-1.27,11.31,11.31,0,0,0-6.86-2.44l-0.05-2.86a12.12,12.12,0,0,1,8,3s2.71,2.31,6.73.21a46.56,46.56,0,0,0-93.09,1.58c4.25,2.2,7-.31,7-0.31a12.11,12.11,0,0,1,7.9-3.27l0.05,2.86a11.3,11.3,0,0,0-6.76,2.7,8.65,8.65,0,0,1-8,1.47q0.19,2.29.58,4.51a4.35,4.35,0,0,0,4.35-1,12.12,12.12,0,0,1,7.9-3.27l0.05,2.87a10.7,10.7,0,0,0-6.75,3,6.48,6.48,0,0,1-4.85,1.63c0.32,1.26.69,2.51,1.11,3.73a5.27,5.27,0,0,0,3.4-1.34c3.32-3.45,6.71-3.1,6.71-3.1L54,101.54a8.79,8.79,0,0,0-5.57,2.82A5,5,0,0,1,45,105.91q0.72,1.71,1.56,3.35a3.72,3.72,0,0,0,1.85-1.07c3.22-2.89,5.68-2.71,5.68-2.71l0.56,2.37a7.8,7.8,0,0,0-5.24,2.63,3.84,3.84,0,0,1-1.61,1c0.6,1,1.24,2,1.91,3,1.31-1.33,3.66-3.25,6.1-2.9a4.5,4.5,0,0,1,.14-3.28,5.28,5.28,0,0,0,3-.25s3-2,3.32-2.64a5.33,5.33,0,0,0,.66-1.9s-0.19-4.76,2.63-7.69c3.6-3.74,1-8.75,1-8.75-3.86-10.15,3.31-14.15,3.31-14.15C65,80.46,68.6,86.15,68.6,86.15c3.08,5.6-.32,9.33-0.32,9.33a15.88,15.88,0,0,0-3.54,7.11c-1.2,4.79,2.56,9.28,2.56,9.28s-7.71,6.79-8.84,5a14.34,14.34,0,0,1-2-3.26s-3.82.34-5.24,3q1.16,1.48,2.44,2.85a6.54,6.54,0,0,1,4-1.76l1.3,1.69a8.15,8.15,0,0,0-3.39,2.06c0.69,0.66,1.4,1.29,2.13,1.91a4.12,4.12,0,0,1,3-1.7L62.19,123a9.79,9.79,0,0,0-2,2.24,46.62,46.62,0,0,0,5.06,3.27A13.72,13.72,0,0,1,69,121.18c2.25-1.93,1.18-5.68,1.18-5.68,3.1,3.11-.66,7.36-0.66,7.36A16.38,16.38,0,0,0,67,129.51q1.25,0.63,2.54,1.18c-0.11-4.92,4.13-10.29,4.13-10.29,3-4.52-2.86-9.77-2.86-9.77-7.28-7.21-1.14-13.18-1.14-13.18,5.1-6,2.4-11.15,2.4-11.15-5.55-10.42,1.47-15.57,1.47-15.57-4,8.94.23,14.83,0.23,14.83,3.26,5.84-2.19,13-2.19,13-4.22,6.48,1,10.63,1,10.63a13.1,13.1,0,0,1,4,5.43,6.84,6.84,0,0,1-1.28,7.17,13.71,13.71,0,0,0-2.91,10q1.47,0.52,3,.94c-1.84-5.35,3.77-12.45,3.77-12.45,3-4.52-2.86-9.77-2.86-9.77-7.31-7.09-1.14-13.18-1.14-13.18,4.64-4.48,1-11.63,1-11.63-5.55-10.42,1.1-15.45,1.1-15.45-4.14,9.21.23,14.83,0.23,14.83,1,1.72,2.19,4.13,2.19,4.13,1.84,4.46-2.58,9.28-2.58,9.28a7.87,7.87,0,0,0,1,10.63,13.09,13.09,0,0,1,4,5.43,6.84,6.84,0,0,1-1.28,7.17c-3.86,5.2-3.09,9.9-2.57,11.7a39.44,39.44,0,0,0,3.92.69l-0.32-.28c-3.53-5.67,1.86-12.24,1.86-12.24,2.19-2.35,1.6-6.13,1.6-6.13C85,111.37,80.73,108,80.73,108c-5-4.08-.84-9.14-0.84-9.14a36.51,36.51,0,0,0,3-5.41c0.7-2.1,3.11-.36,3.11-0.36,1.69,1,4.51-.08,4.51-0.08s2.15-2,3.12.23a27.34,27.34,0,0,0,2.93,5.3s4.33,4.91-.5,9.16c0,0-4.1,3.5-4.25,7.6,0,0-.45,3.8,1.83,6.07,0,0,7.2,7.62,2.31,12.16l-0.16.14c1.16-.21,2.6-0.46,3.72-0.75,0.45-1.87,1-6.54-3-11.52A6.84,6.84,0,0,1,95,114.32a13.11,13.11,0,0,1,3.77-5.58,7.87,7.87,0,0,0,.62-10.65s-4.6-4.65-2.92-9.18c0,0,1.07-2.45,2-4.21,0,0,4.16-5.78-.33-14.83,0,0,6.84,4.78,1.68,15.4,0,0-3.4,7.28,1.41,11.58,0,0,6.4,5.85-.65,13.21,0,0-5.65,5.46-2.5,9.87,0,0,5.8,6.81,4.26,12.21,1-.32,2-0.69,2.93-1.07a13.74,13.74,0,0,0-3.29-9.74,6.84,6.84,0,0,1-1.55-7.12,13.11,13.11,0,0,1,3.77-5.58s5.08-4.34.62-10.66c0,0-5.71-7-2.67-12.95,0,0,4-6-.33-14.83,0,0,7.21,4.89,2.05,15.5,0,0-2.51,5.27,2.81,11.05,0,0,6.36,5.74-.65,13.21,0,0-5.65,5.46-2.5,9.87,0,0,4.36,5.12,4.51,10,0.84-.4,1.66-0.82,2.47-1.28a16.2,16.2,0,0,0-2.67-6.43s-3.91-4.11-.93-7.33c0,0-.92,3.79,1.4,5.63a13.65,13.65,0,0,1,4,7.09,46.84,46.84,0,0,0,4.86-3.45,9.48,9.48,0,0,0-2-2l1.39-1.44a4.1,4.1,0,0,1,3,1.44c0.69-.64,1.37-1.3,2-2a8.32,8.32,0,0,0-3.32-1.8l1.23-1.73A6.57,6.57,0,0,1,123.37,118Zm-4.24-46c0-1.81.6-7,6.14-8.94a0.3,0.3,0,0,1,.39.33c0,0.07-1.27,7.38,2.91,11.9,0.14,0.13,3.77,3.52,4.75,7.41a0.3,0.3,0,0,1-.18.35,7.57,7.57,0,0,1-6.69-.66,13.12,13.12,0,0,0-4.69-2.47,20,20,0,0,0-5,.25,0.3,0.3,0,0,1-.32-0.17s-2.15-4.7-8.77-9.08a0.3,0.3,0,0,1,0-.5S112.56,67.25,119.12,72ZM67.8,71.68c-6.45,4.62-8.41,9.36-8.43,9.41a0.3,0.3,0,0,1-.32.18,20,20,0,0,0-5-.06,13.14,13.14,0,0,0-4.6,2.64,7.57,7.57,0,0,1-6.66.91,0.3,0.3,0,0,1-.19-0.34C43.4,80.49,46.9,77,47,76.83c4-4.67,2.48-11.92,2.46-12a0.3,0.3,0,0,1,.38-0.35c5.62,1.71,6.38,6.9,6.47,8.71,6.38-5,11.38-2,11.43-2A0.3,0.3,0,0,1,67.8,71.68Zm29.2,9s-2.5,9.95-9,10.66C81.19,91.29,78.68,81,78.68,81c-0.56-2.22.46-3.21,0.46-3.21a2.91,2.91,0,0,1,1.64,0A1.82,1.82,0,0,0,83,77.7a1.36,1.36,0,0,1,.89-0.31,1,1,0,0,1,1.05.5c0.09,0.74.6,0.51,0.6,0.51C86.59,78.23,86,75,86,75a2,2,0,0,0-.83-1.8,10.76,10.76,0,0,0-4.9-.85c-1.64.1-1.11-.72-1.11-0.72,2.2-5.62,8.4-5.07,8.4-5.07s6.17-.79,8.58,4.75c0,0,.59.86-1,0.81,0,0-3.28-.4-5.18.93,0,0-.41.17-0.48,1.88,0,0-.46,3.28.58,3.41,0,0,.53.21,0.59-0.53a1,1,0,0,1,1-.54,1.35,1.35,0,0,1,.9.28,1.82,1.82,0,0,0,2.23,0,2.91,2.91,0,0,1,1.64-.1S97.48,78.4,97,80.64ZM79.22,74.17a3.77,3.77,0,0,1,4.42.16A1,1,0,0,1,84,75.59a0.44,0.44,0,0,1-.74,0,2.3,2.3,0,0,0-1.41-.61,2.12,2.12,0,0,0-1.43.74,0.58,0.58,0,0,1-.88.25A1.14,1.14,0,0,1,79.22,74.17Zm17.17,0a1.14,1.14,0,0,1-.3,1.76,0.58,0.58,0,0,1-.88-0.25,2.12,2.12,0,0,0-1.44-.74,2.3,2.3,0,0,0-1.41.61,0.45,0.45,0,0,1-.74,0A1.14,1.14,0,0,1,92,74.34,3.77,3.77,0,0,1,96.39,74.17ZM70.34,69.63c-0.49-4.75-5-9-5-9a17.71,17.71,0,0,1,8,2.43,18.11,18.11,0,0,0-2.81-7s4.58,0.61,10.72,5.16l1.28-7.11-4.16-4.46h5.59l2.36-5.47L89,49.64h5.6l-3.93,4.24L93.28,61c6-4.78,10.43-5.56,10.43-5.56a18.12,18.12,0,0,0-2.55,7.09,17.71,17.71,0,0,1,7.89-2.73s-4.18,5.06-4.49,9.83C104.57,69.63,89.57,57.76,70.34,69.63Z"/><path class="cls-2" d="M87.87,7A80.83,80.83,0,1,0,168.7,87.87,80.83,80.83,0,0,0,87.87,7ZM148,42.83L142.84,48l8.83,0.2c0.4,0.3,3.08,5.36,3.08,5.36l-10.42-.1L138.58,64l-3.87-5.46,5-8.43-7.14,4.86L129,49.87l15.38-12.21A51.82,51.82,0,0,1,148,42.83ZM122.4,28.77c4.12-3.57,9.54-3.72,13.43.34a28.3,28.3,0,0,1,3.36,5.23,21.15,21.15,0,0,1-2.85,3.18c-1-2.65-1.7-3.33-2.79-4.09-2.58-1.8-5.88-1.95-8.06,1.12-2,2.84-.2,7,2.12,8.24a7.68,7.68,0,0,0,3.26.94,29.37,29.37,0,0,1-1.64,3.35A12,12,0,0,1,124,45.66c-4.94-3.05-7.37-9.53-3-15.26A10.2,10.2,0,0,1,122.4,28.77ZM99.14,25.19l3.79-10.9,5.91,2.37-3.9,11.15c-0.52,1.48,1.05,2.66,2.09,3s2.68,0.45,3.2-1l4.1-11.75,6.2,2.37-3.89,11.1c-2.17,5.09-5.62,5.89-11.23,3.93S97.07,31,99.14,25.19ZM89.42,12.43c2.93,0.06,5.78.65,5.91,4.86,0.11,3.29-1.08,4.16-4.12,5v0.06c3.13,0.16,4.62,1,4.61,4.63,0,4.41-3,5.26-7.42,5.4l-10,.36L77.74,12.85Zm-28,5.08c3.19-1.53,7.31-2.54,9.29,1.7,1.54,3.3,1.69,5.28-.77,7.77l7.43,5.76L70.3,34.52l-4.85-4-1.84.69,2.09,5.12-6.08,3.4L52.11,22ZM40,29.16L58.32,39.87l-5.38,4.72-4.17-2.08-4,3.63,1.71,4.24-4.8,5.34L32.88,35.77ZM27.24,43.44l3.95,2.07-2.88,4.56,12,7.64-2.78,5.36-12.7-7.44-3.18,5.06-3.35-2ZM13.49,67.93a21.28,21.28,0,0,1,3.2-5.78l2.85,1.61a36.32,36.32,0,0,0-2.36,3.82,6.4,6.4,0,0,0-.6,1.54c-0.42,2.13.13,2.95,0.69,3.21a2.19,2.19,0,0,0,2.79-1.06c0.08-.12,1-1.65,1-1.65,2.42-4.21,5.74-6.14,9.52-4s3.91,8.54,1.29,13a18,18,0,0,1-2.6,3.52L25,80a18.22,18.22,0,0,0,3.74-5c0.58-1.58,1-3.69-.63-4.05-1-.22-1.93.71-2.59,1.83,0,0-1,1.73-1.12,1.95-1.89,3.06-4.08,4.05-7,3.37C13.29,77.13,11.53,73.64,13.49,67.93Zm15.45,45-5-2.59-5,2.67,0.91-5.58L15.76,103h5.59l2.46-5.48L26.35,103h5.6l-4,4.32ZM41.5,140.94a5.53,5.53,0,0,0,3.22.36A31.22,31.22,0,0,1,43.58,145a12,12,0,0,1-5.39-.85c-5.24-2.5-8.36-8.67-4.64-14.84a10.11,10.11,0,0,1,1.26-1.77c3.71-4,9.08-4.73,13.39-1.12a28.25,28.25,0,0,1,3.9,4.83,23.24,23.24,0,0,1-2.62,3.61c-1.08-2.54-1.93-3.26-3.09-3.9-2.76-1.51-6.4-1.41-8.16,1.91C36.61,136,39.07,139.94,41.5,140.94ZM58,156.44A10.53,10.53,0,1,1,68.9,145.92,10.74,10.74,0,0,1,58,156.44Zm29.17-8.14c-2.53.45-8.93-.89-8.93-0.89l-1,3.57c1.64,0.89,7.44,1,7.44,1l-0.45,4.46a71.38,71.38,0,0,1-7.74-.74l-1.49,6.85-6.1-1.49,4.61-19.35a57.8,57.8,0,0,0,14.14,1.79ZM37.36,87.87a50.52,50.52,0,1,1,50.52,50.52A50.52,50.52,0,0,1,37.36,87.87ZM95.79,151.3c1.82,0.39,7.43-1.12,7.43-1.12l0.84,4.41a71.34,71.34,0,0,1-7.63,1.49l0.52,7-6.27.31-0.91-19.84a50.16,50.16,0,0,0,13.89-2.33l0.93,4.69c-2.3,1.15-8.81,1.68-8.81,1.68ZM113.21,159l-7-18.57A84.76,84.76,0,0,0,119,134l1.53,2.87c-1.85,1.78-7.92,4.22-7.92,4.22l1.12,3.55c1.86-.17,6.76-3.27,6.76-3.27l2.11,4A71.66,71.66,0,0,1,115.8,149l1.29,3.05c2.14-1.15,7.69-4.2,7.69-4.2l2.23,3.28A65.1,65.1,0,0,1,113.21,159Zm20.28-10.85-12.23-15.64a84.52,84.52,0,0,0,10.34-10l2.32,2.28c-1.24,2.25-6.3,6.39-6.3,6.39l2.13,3.05c1.72-.71,5.48-5.14,5.48-5.14l3.19,3.15a71.83,71.83,0,0,1-5.44,5.55l2.15,2.53c1.7-1.74,6.1-6.29,6.1-6.29l3.11,2.46A65.15,65.15,0,0,1,133.49,148.16Zm23.14-35.28-5-2.59-5,2.67,0.91-5.58L143.46,103H149l2.46-5.48L154,103h5.6l-4,4.32Zm1.12-37.72a36.46,36.46,0,0,0,.18-4.49,6.45,6.45,0,0,0-.24-1.64c-0.68-2.06-1.57-2.5-2.19-2.46a2.19,2.19,0,0,0-1.91,2.3c0,0.15,0,1.92,0,1.92,0,4.86-2,8.17-6.31,8.18s-7.6-5.51-7.5-10.64a18,18,0,0,1,.54-4.34l4.72-.35a18.23,18.23,0,0,0-.78,6.22c0.27,1.66.91,3.73,2.54,3.22,1-.31,1.33-1.57,1.36-2.87,0,0,0-2,0-2.25,0.14-3.6,1.56-5.54,4.41-6.36,4.07-1.17,7.31,1,8.42,6.94a21.26,21.26,0,0,1,.06,6.61h-3.27Z"/></svg>