<?xml version="1.0" encoding="utf-8"?>
<!-- Generator: Adobe Illustrator 19.2.1, SVG Export Plug-In . SVG Version: 6.00 Build 0)  -->
<svg version="1.1" id="Layer_1" xmlns="http://www.w3.org/2000/svg" xmlns:xlink="http://www.w3.org/1999/xlink" x="0px" y="0px"
	 viewBox="0 0 395 222.5" style="enable-background:new 0 0 395 222.5;" xml:space="preserve">
<g>
	<g>
		<g>
			<path d="M17.4,211.8c-6.2,0-11-3.4-12.9-5.6c-4-4.7-4.4-8.8-4.4-16.1v-23.5h4.2v17.4h0.1c3.7-5.3,9.2-6.6,12.8-6.6
				c10.8,0,17.5,8.4,17.5,17.2C34.6,203.9,27,211.8,17.4,211.8z M4.1,194.4c0,8.3,6.2,13.5,13.3,13.5c7.5,0,13.1-6.2,13.1-13.4
				c0-7.6-6.1-13.3-13.1-13.3C9.5,181.2,4.1,187.1,4.1,194.4z"/>
			<path d="M41.6,196.1c0.4,6.5,6.2,11.8,13,11.8c6,0,10.3-3.6,12-7.6h4.3c-2.3,6.5-8.5,11.5-16.3,11.5c-9.2,0-17.1-7.4-17.1-17.2
				c0-9.3,7.5-17.3,17.1-17.3c9.9,0,17.4,7.7,17.4,17.6c0,0.4-0.1,0.8-0.1,1.2H41.6z M67.7,192.3c-1.3-7.7-7.6-11.1-13.2-11.1
				c-5.6,0-11.8,3.9-12.9,11.1H67.7z"/>
			<path d="M92.1,177.3c6.2,0,11,3.4,12.9,5.6c4,4.7,4.4,8.8,4.4,16.1v12h-4.2v-5.8h-0.1c-3.7,5.3-9.2,6.6-12.8,6.6
				c-10.8,0-17.5-8.4-17.5-17.2C74.9,185.2,82.5,177.3,92.1,177.3z M105.3,194.6c0-8.3-6.2-13.5-13.3-13.5
				c-7.5,0-13.1,6.2-13.1,13.4c0,7.6,6.1,13.3,13.1,13.3C100,207.9,105.3,201.9,105.3,194.6z"/>
			<path d="M126.5,211h-2c-9.8,0-10.6-7.4-10.6-12.4v-32.1h4.2v11.6h7.9v3.8h-7.9v16.9c0,2.8,0.2,8.2,6.4,8.2h2V211z"/>
			<path d="M132.9,201.3c0,6.1,4.9,6.7,7.4,6.7c4.2,0,6.8-2.4,6.8-5.8c0-3.6-2.5-5.2-7.2-6.6c-4.3-1.3-10.1-3.2-10.1-9.5
				c0-4.8,3.7-8.8,10.2-8.8c5.7,0,10.1,3.8,10.1,8.9h-4.2c-0.3-4-3-5.2-6.1-5.2c-3.4,0-5.8,2-5.8,4.7c0,3.6,3.4,4.9,7.2,5.9
				c5.9,1.7,10.1,4.4,10.1,10.5c0,5.1-3.7,9.5-11,9.5c-6.2,0-11.6-3.2-11.6-10.5H132.9z"/>
			<path d="M183.3,211.8c-6.2,0-11-3.4-12.9-5.6c-4-4.7-4.4-8.8-4.4-16.1v-23.5h4.2v17.4h0.1c3.7-5.3,9.2-6.6,12.8-6.6
				c10.8,0,17.5,8.4,17.5,17.2C200.5,203.9,193,211.8,183.3,211.8z M170.1,194.4c0,8.3,6.2,13.5,13.3,13.5c7.5,0,13.1-6.2,13.1-13.4
				c0-7.6-6.1-13.3-13.1-13.3C175.4,181.2,170.1,187.1,170.1,194.4z"/>
			<path d="M211.2,222.5h-4.4l5.7-12.6l-12.8-31.8h4.4l10.5,26.2l11.2-26.2h4.4L211.2,222.5z"/>
			<path d="M255.9,177.3c3.5,0,9.1,1.3,12.8,6.6h0.1v-17.4h4.2V190c0,7.3-0.4,11.3-4.4,16.1c-1.9,2.3-6.7,5.6-12.9,5.6
				c-9.7,0-17.2-7.9-17.2-17.3C238.4,185.7,245.2,177.3,255.9,177.3z M242.5,194.5c0,7.1,5.6,13.4,13.1,13.4
				c7.1,0,13.3-5.2,13.3-13.5c0-7.3-5.3-13.2-13.3-13.2C248.5,181.2,242.5,186.8,242.5,194.5z"/>
			<path d="M281.7,191.8V211h-4.2v-32.9h4.2v4.7h0.1c1.8-4.2,5-5.3,9.2-5.6v4.4C285.3,182.2,281.7,185.9,281.7,191.8z"/>
			<path d="M287.7,211v-7.6h4.4v7.6H287.7z"/>
			<path d="M321.4,177.3c3.5,0,9.1,1.3,12.8,6.6h0.1v-17.4h4.2V190c0,7.3-0.4,11.3-4.4,16.1c-1.9,2.3-6.7,5.6-12.9,5.6
				c-9.7,0-17.2-7.9-17.2-17.3C304,185.7,310.7,177.3,321.4,177.3z M308,194.5c0,7.1,5.6,13.4,13.1,13.4c7.1,0,13.3-5.2,13.3-13.5
				c0-7.3-5.3-13.2-13.3-13.2C314.1,181.2,308,186.8,308,194.5z"/>
			<path d="M347.3,191.8V211h-4.2v-32.9h4.2v4.7h0.1c1.8-4.2,5-5.3,9.2-5.6v4.4C350.9,182.2,347.3,185.9,347.3,191.8z"/>
			<path d="M360,196.1c0.4,6.5,6.2,11.8,13,11.8c6,0,10.3-3.6,12-7.6h4.3c-2.3,6.5-8.5,11.5-16.3,11.5c-9.2,0-17.1-7.4-17.1-17.2
				c0-9.3,7.5-17.3,17.1-17.3c9.9,0,17.4,7.7,17.4,17.6c0,0.4-0.1,0.8-0.1,1.2H360z M386.1,192.3c-1.3-7.7-7.6-11.1-13.2-11.1
				c-5.6,0-11.8,3.9-12.9,11.1H386.1z"/>
		</g>
		<g>
			<path d="M195.1,86.8c11.1,0,20-9,20-20c0-11.1-9-20.1-20-20.1c-11.1,0-20,9-20,20v0l0,0C175,77.9,184,86.8,195.1,86.8z"/>
			<path d="M195.1,0c-7,0-13.7,1.1-20,3.1v37c5.6-4.2,12.5-6.7,20-6.7c18.4,0,33.4,15,33.4,33.4c0,18.4-15,33.4-33.4,33.4
				c-18.4,0-33.4-14.9-33.4-33.4V8.9c-20,11.6-33.4,33.1-33.4,57.9c0,36.9,29.9,66.8,66.8,66.8c36.9,0,66.8-29.9,66.8-66.8
				C261.9,29.9,231.9,0,195.1,0z"/>
		</g>
	</g>
	<g>
		<path d="M392,211c-1.8,0-3-1.3-3-3.1c0-1.8,1.4-3.1,3-3.1c1.6,0,3,1.2,3,3.1C395,209.8,393.6,211,392,211z M392,205.4
			c-1.3,0-2.4,1-2.4,2.5c0,1.4,0.9,2.5,2.4,2.5c1.3,0,2.3-1,2.3-2.5C394.4,206.5,393.3,205.4,392,205.4z M391.4,209.7h-0.6v-3.4h1.3
			c0.8,0,1.2,0.3,1.2,1c0,0.6-0.4,0.9-0.9,0.9l1,1.5h-0.6l-0.9-1.4h-0.5V209.7z M392.1,207.8c0.4,0,0.8,0,0.8-0.5
			c0-0.4-0.4-0.5-0.7-0.5h-0.7v1H392.1z"/>
	</g>
</g>
<g>
</g>
<g>
</g>
<g>
</g>
<g>
</g>
<g>
</g>
<g>
</g>
<g>
</g>
<g>
</g>
<g>
</g>
<g>
</g>
<g>
</g>
<g>
</g>
<g>
</g>
<g>
</g>
<g>
</g>
</svg>
