<svg id="Layer_1" data-name="Layer 1" xmlns="http://www.w3.org/2000/svg" viewBox="0 0 355.01 116.9"><title>time_logo</title><g id="layer1"><path id="path7304" d="M37.8,8.22l-10.34,0h-16c-1.1,0-9.7.09-9.7,0.09L1.58,22.17,0,22.21,0.09,6.6,0,0.18C5.48,0.46,25.22.62,45.7,0.62,69.58,0.62,85,.39,91,0.21L90.95,7.3l0.11,15.8-1.62,0c0-1.28-.27-6.53-0.25-7.05,0-.18-0.34-7.24-0.39-7.76L82,8.17H61.41l-7.88,0v97.47c0,0.14.14,6.39,0.18,7.69,0.8,0.11,8.4.64,9.77,0.64H64v2.65c-0.41,0-.91,0-1.35,0-4.34,0-11.3-.57-16.28-0.57s-11.78.48-16.87,0.57c-0.14,0-1.19,0-1.58,0l0-2.83,0.84,0c2.15-.09,7.46-0.43,8.83-0.55l0.23,0,0-105"/><path id="path7306" d="M169.36,0s7.72,24,9,27.48,24.84,64.19,24.84,64.19,11.07-26.14,20.93-54.19c2-5.68,4.61-13.08,6.55-19.08L236.58,0h6.07s1.51,10.73,2,15.5c1.55,13.88,11.69,70.33,15.27,88.89,0.89,4.66,1.55,8.65,1.55,8.65,1.05,0.07,5.14.48,7.58,0.68,0.5,0,1.87.11,2.19,0.11l0,2.78s-1.1.07-1.71,0.07c-5.43,0-13.92-.53-19.15-0.53-4.66,0-9.13.41-13.79,0.5-0.8,0-1.6,0-2.4,0v-2.76s0.64,0,1,0c2.28-.11,8.29-0.71,8.88-0.73,0-1-.32-4.52-0.82-8.13-0.34-2.53-.91-6.87-1.53-11.14-1.32-8.31-7.46-42.71-9.29-52.25-0.3-1.58-.48-2.44-0.48-2.44S213,88,209.17,97.54c-0.37.94-.64,1.6-0.73,1.83-3.65,9.25-6.73,17.49-6.73,17.49l-5.39,0L166.73,40.75,166,39s-2.58,14.27-6.32,34.38c-2,10.89-6,38.08-6.32,39.86a76.17,76.17,0,0,0,8.26.68h1.16v2.74c-0.53.07-1.76,0.09-1.8,0.09-4.47-.09-7.69-0.43-12.51-0.43-1.26,0-8,.34-10.32.43-1,0-2.37-.07-2.65,0V114c0.23,0,.68-0.09,1-0.11,2.15-.09,5.43-0.43,8.22-0.8,0.23-1.35,2.65-14.75,3.4-19.49,3-15.73,11.69-68.21,12.78-75.29C161.89,10.61,163,1.1,163.1,0c2.26,0.09,6.25,0,6.25,0"/><path id="path7308" d="M130,116.76c-4,0-10.82-.66-15.93-0.66s-11.89.66-16.82,0.66c-0.41,0-1.16-.09-1.55-0.09v-2.76c1,0,5.32-.41,6.55-0.5a22.23,22.23,0,0,0,3.31-.37s0-3.33,0-8.51c0-17.9.16-68.44,0-91.31,0-2.42,0-8.54,0-9.4-0.91-.09-2.21-0.21-3.15-0.34-1.16-.07-5.94-0.53-6.73-0.57l0-2.76c4.73,0,11.73.48,17.42,0.48,5.43,0,12.83-.48,18.4-0.48V3l-3.1.21c-1.62.16-6.19,0.68-7.3,0.75v8.9c0,20.48,0,74.08,0,92.11v5.84c0,1.37,0,2.19,0,2.26a34.91,34.91,0,0,0,3.54.41c1.26,0.14,6.44.37,6.6,0.41h0.34v2.76c-0.34,0-1.19.09-1.53,0.09"/><path id="path7310" d="M300,8.49l0,45.88,29.45,0.09,8-.23c0.46,0,5.73-.3,5.94-0.37a7.77,7.77,0,0,1,.21-0.82c0.43-2.78,1-5.41,1.1-7.46a11.83,11.83,0,0,0,.14-1.48l1.67,0c0,0.21.09,0.73,0.09,1.48,0,2.76-.23,8.51-0.21,12.26,0,5.43.16,10.32,0.18,12.76,0,0.68,0,1.8,0,1.8h-1.85c0-.25-0.07-0.53-0.11-0.82-0.32-3.13-.59-5.32-1.07-8.51,0-.16-0.11-0.73-0.16-1.1-0.94-.07-3.42-0.16-4.75-0.21-0.57,0-7.76-.07-15.84-0.07-3.31,0-9.27.16-11.78,0.14-2.94,0-7.83.18-11,.3l0,41.59,0.14,5.36L318,109.37l25.48,0c0.11,0,5.82-.23,7.62-0.21,0.37,0,1.14,0,1.14,0,0.16-1.35.37-4.06,0.59-6.67,0-.3.66-7.21,0.66-9.06l1.55,0c0,1.76-.34,23.56-0.34,23.56-2.88,0-11.69,0-22.55-.18-6.6-.09-13.95-0.09-21.21-0.21-5.87-.09-11.69-0.3-17-0.3-7.56,0-14.93.5-17.81,0.5-0.66,0-1.83,0-2.08,0v-2.74h0.53a78.2,78.2,0,0,0,9.68-.82c0-.55.18-7.33,0.18-7.46v-90c0-4.15-.07-11.09-0.07-11.71-1.53-.18-2.08-0.27-2.4-0.34-1.64-.23-4.84-0.5-6.57-0.64a6.38,6.38,0,0,1-1.28-.09s0-2.69,0-2.74c0.39,0,1.19,0,2.63,0,3,0,8.63.46,15.45,0.46,4.29,0,11.21-.21,16.16-0.27,7.05,0,12.44-.07,19.27-0.11C338.78,0.11,348.33,0,352,0c1.1,0,1.69,0,1.69,0V0.75c0,0.87,0,2.37,0,4.25,0,5.8.18,14.93,0.18,17.9h-1.58l0-.82c-0.16-2-.5-7.78-0.94-12.62,0-.43-0.11-0.75-0.11-0.75-0.94,0-4.75-.16-4.82-0.21s-3.1-.11-3.17-0.14-10-.07-20.34-0.09c-7,0-13.95,0-18.19,0-1,0-4.73.18-4.73,0.18"/></g></svg>