<?xml version="1.0" encoding="utf-8"?>
<!-- Generator: Adobe Illustrator 19.2.1, SVG Export Plug-In . SVG Version: 6.00 Build 0)  -->
<svg version="1.1" id="Layer_1" xmlns="http://www.w3.org/2000/svg" xmlns:xlink="http://www.w3.org/1999/xlink" x="0px" y="0px"
	 viewBox="0 0 539.5 281.4" style="enable-background:new 0 0 539.5 281.4;" xml:space="preserve">
<style type="text/css">
	.st0{clip-path:url(#SVGID_2_);}
</style>
<polygon points="185.1,0 160.5,65.7 164.7,0 127.9,0 73.1,146.3 107.6,146.3 131.8,81.6 127.6,146.3 164.8,146.3 219.7,0 "/>
<polygon points="224.2,0 169.3,146.3 203.9,146.3 258.8,0 "/>
<g>
	<g>
		<g>
			<defs>
				<rect id="SVGID_1_" width="539.5" height="281.4"/>
			</defs>
			<clipPath id="SVGID_2_">
				<use xlink:href="#SVGID_1_"  style="overflow:visible;"/>
			</clipPath>
			<path class="st0" d="M301.5,60.3l52.3-57.4l-50.1,133.6L301.5,60.3z M535.6,87.6c-0.8,0.2-72,19.5-154.1,41.7l4.1-11.4h-40.3
				l13.3-35.5h33.2L402,55.2h-33.2l11.4-30.8h35L424.5,0h-69.3h-0.3H319l-36.2,43.9L299.5,0h-35L210,146.3h34.6l23.2-61.2l1.6,61.2
				l49.7-0.1C224.8,171.7,135.5,196,135.5,196C85,210.2,27.4,179.2,69.1,95.9c-48.3,56.7-93.9,132.2-53.6,167
				c39,33.7,87.8,13.7,121,0.4C169.7,250,537.2,90.4,537.2,90.4C540.7,88.7,540.1,86.5,535.6,87.6"/>
		</g>
	</g>
</g>
</svg>
