<?xml version="1.0" encoding="utf-8"?>
<!-- Generator: Adobe Illustrator 19.2.1, SVG Export Plug-In . SVG Version: 6.00 Build 0)  -->
<svg version="1.1" id="Layer_1" xmlns="http://www.w3.org/2000/svg" xmlns:xlink="http://www.w3.org/1999/xlink" x="0px" y="0px"
	 viewBox="0 0 287.6 156.8" style="enable-background:new 0 0 287.6 156.8;" xml:space="preserve">
<style type="text/css">
	.st0{fill-rule:evenodd;clip-rule:evenodd;}
</style>
<g>
	<path class="st0" d="M91,91.1h-2h-0.6L85,99.2h2.2c0.6,0,1.2-0.1,1.8-0.3c1.5-0.6,2.7-1.9,3.6-4.1c0.4-1,0.5-1.9,0.2-2.7
		C92.4,91.5,91.8,91.1,91,91.1z"/>
	<polygon class="st0" points="108.8,58.8 110,47 109.7,47 105.7,53.2 102.3,58.4 105.7,58.6 	"/>
	<path class="st0" d="M184.7,58.3c0.7-1.1,1.3-2.3,1.9-3.7c1.1-2.5,1.2-4.4,0.5-5.6c-0.4-0.7-1.2-1.2-2.3-1.5
		c-0.9-0.2-2-0.3-3.3-0.3L175,63c2.9,0,5.2-0.6,7-1.9C183,60.5,183.9,59.5,184.7,58.3z"/>
	<path class="st0" d="M234.8,91.1h-2h-0.6l-3.3,8.1h2.2c0.6,0,1.2-0.1,1.7-0.3c1.5-0.6,2.7-1.9,3.6-4.1c0.4-1,0.5-1.9,0.2-2.7
		C236.3,91.5,235.7,91.1,234.8,91.1z"/>
	<path class="st0" d="M129.1,93.5c-1.1,0-2.1,0.3-3.2,0.9c-0.7,0.4-1.4,0.8-2,1.4c-1.5,1.3-2.7,2.8-3.6,4.5c-0.2,0.3-0.3,0.7-0.4,1
		c-0.9,2.2-1.1,4-0.5,5.5c0.2,0.6,0.5,1.1,0.9,1.4c0.6,0.5,1.4,0.8,2.4,0.8s2.1-0.3,3.2-0.9c0.6-0.3,1.3-0.8,2-1.4
		c1.8-1.5,3.2-3.3,4.1-5.5c0.9-2.2,1.1-4.1,0.5-5.6C131.9,94.3,130.7,93.5,129.1,93.5z"/>
	<path class="st0" d="M232.8,25.7c-6.1-2.8-12.8-5.3-19.8-7.5c-8.8-2.7-18.3-5-28.3-6.6c-6.8-1.1-13.8-2-20.9-2.5
		c-6.5-0.5-13.2-0.8-20-0.8c-6.1,0-12,0.2-17.9,0.6c-1.9,0.2-3.8,0.3-5.7,0.5c-4.9,0.5-9.8,1.1-14.6,1.8c-5.7,0.9-11.3,1.9-16.7,3.2
		c-2.9,0.6-5.7,1.3-8.4,2.1c-10.5,2.9-20.3,6.5-29,10.7C24.9,40,8.3,58.2,8.3,78.4c0,20.2,16.7,38.4,43.2,51.2
		c8.7,4.2,18.4,7.8,29,10.7c2.7,0.8,5.6,1.5,8.4,2.2c5.4,1.2,11,2.3,16.7,3.2c4.8,0.7,9.7,1.3,14.6,1.8c1.9,0.2,3.8,0.3,5.7,0.5
		c5.9,0.4,11.8,0.6,17.9,0.6c6.8,0,13.4-0.3,20-0.8c7.2-0.5,14.2-1.4,20.9-2.5c10-1.6,19.4-3.9,28.3-6.6c7-2.2,13.7-4.6,19.8-7.4
		c28.5-12.9,46.5-31.8,46.5-52.8C279.3,57.4,261.3,38.5,232.8,25.7z M210.3,48.9h2.7h17.9v7.4L213,62.4l-0.9,0.3l-1.1-2.2l2.1-0.8
		l10-3.5h-10h-2.7V48.9z M184.3,34.5c0.1,0,0.3,0,0.4,0c3.8,0,6.8,0.5,9.2,1.3c2.5,0.9,4.4,2.2,5.6,3.9c1.2,1.7,1.7,3.9,1.6,6.4
		c-0.1,2.5-0.8,5.5-2.2,8.9c-1.6,3.9-3.6,7.4-6,10.4c-2.1,2.5-4.8,4.7-8.3,6.4c-0.6,0.3-1.2,0.6-1.8,0.8c-4.3,1.9-9.7,2.8-16.2,2.8
		h-3h-6.2l6.2-15.4l10.3-25.6H184.3z M135.8,34.5h10.7l3.6,21.5l2.7-7.7l5.6-13.8h5.3h6.2L163.8,50l-10.3,25.6h-11.8L139,53.8
		l-8.9,21.7h-4.2h-5.7h-1l1-2.5l5.7-13.9L135.8,34.5z M105.7,37.9l2.4-3.4h12.2h1l-1,11.2l-2.7,29.8h-11l0.1-6.6h-1.1H95.2l-3.4,6.6
		h-2.9h-8.4h-1.3l1.3-1.8l8.4-12L105.7,37.9z M70.5,34.5h10h1.3l-1.3,3.1l-11.1,27h10.3l-4.3,10.9H53.9L70.5,34.5z M61.8,102.7H51.5
		H41.2v-7.4l10.3-3.5l8.6-3l1.1,2.2l-9.7,3.4l-2.4,0.8h2.4h10.3V102.7z M93.6,104.9l2.5,16.7h-7.2h-7l-0.6-13.5l-0.8,1.9l-4.7,11.5
		H63.2l16.9-41h0.4h8.4h6.7c3.2,0,5.7,0.5,7.6,1.5c1.1,0.6,2,1.4,2.5,2.5c0.3,0.6,0.5,1.3,0.6,2.1c0.2,1.5,0,3.2-0.6,5.2
		c-0.3,0.9-0.6,1.8-1,2.8C102.6,99.9,98.9,103.3,93.6,104.9z M145,101.2c-1.6,3.9-3.9,7.5-7,10.8c-3,3.3-6.4,5.9-10.2,7.8
		c-0.6,0.3-1.2,0.6-1.9,0.9c-1.9,0.8-3.8,1.4-5.7,1.7c-1.1,0.2-2.1,0.3-3.2,0.3c-3.4,0-6.2-1-8.3-2.9c-1.5-1.3-2.5-3-3.2-4.9
		c-0.3-0.9-0.5-1.9-0.6-2.9c-0.2-2.2,0-4.5,0.6-6.9c0.3-1.3,0.8-2.6,1.3-3.9c1.2-2.9,2.8-5.7,4.9-8.3c2.1-2.6,4.3-4.9,6.9-6.9
		c0.5-0.4,1-0.8,1.5-1.1c1.9-1.3,3.7-2.3,5.7-3.2c0.3-0.1,0.5-0.2,0.8-0.3c2.7-1.1,5.4-1.6,8.1-1.6c2.7,0,5,0.6,6.8,1.7
		c1.8,1.1,3.2,2.7,4.1,4.6c0.9,1.9,1.3,4.2,1.2,6.9C146.8,95.6,146.1,98.3,145,101.2z M160.8,121.6H149l3.4-41h11.4h2.4l-2.4,14.7
		l0,0.3l-2.3,9.7h0.3l2.1-3.4l3.6-6l10.2-15.2h7.1h6.5l-6.5,8.7l-20.9,28.2L160.8,121.6z M202.2,121.6h-17.5h-6.5l6.5-15.7
		l10.4-25.3H213h5.9l-4.6,11.2H213h-10l-1.6,3.9h10.1l-4.3,10.5h-10.1l-1.8,4.3h11.4L202.2,121.6z M248.6,94.7
		c-2.2,5.2-5.8,8.6-11.1,10.3l2.5,16.7h-7.3h-7l-0.6-13.5l-5.6,13.5H213h-5.9l5.9-14.3l11-26.7h8.8h6.7c3.2,0,5.7,0.5,7.5,1.5
		c1.8,1,2.8,2.5,3.1,4.6C250.4,88.8,249.9,91.4,248.6,94.7z"/>
	<path class="st0" d="M143.8,0C64.6,0,0,35.2,0,78.4c0,43.2,64.6,78.4,143.8,78.4c79.2,0,143.8-35.2,143.8-78.4
		C287.6,35.2,223,0,143.8,0z M232.8,135.5c-6.2,2.7-12.8,5.2-19.8,7.3c-8.9,2.7-18.3,4.9-28.3,6.5c-6.8,1.1-13.8,2-20.9,2.5
		c-6.5,0.5-13.2,0.8-20,0.8c-6.1,0-12-0.2-17.9-0.6c-1.9-0.1-3.8-0.3-5.7-0.4c-4.9-0.5-9.8-1.1-14.6-1.8c-5.7-0.9-11.3-1.9-16.7-3.2
		c-2.9-0.7-5.7-1.3-8.4-2.1c-10.5-2.9-20.2-6.4-29-10.5c-29-13.6-47.4-33.5-47.4-55.6c0-22.1,18.4-42.1,47.4-55.6
		c8.8-4.1,18.5-7.7,29-10.5c2.8-0.7,5.6-1.4,8.4-2.1c5.4-1.2,11-2.3,16.7-3.2c4.8-0.7,9.7-1.3,14.6-1.7c1.9-0.2,3.8-0.3,5.7-0.5
		c5.9-0.4,11.8-0.6,17.9-0.6c6.8,0,13.4,0.3,20,0.8c7.2,0.5,14.2,1.4,20.9,2.5c10,1.6,19.4,3.8,28.3,6.5c7,2.1,13.7,4.6,19.8,7.3
		c30.9,13.6,50.7,34.2,50.7,57.2C283.5,101.3,263.7,121.9,232.8,135.5z"/>
</g>
<g>
</g>
<g>
</g>
<g>
</g>
<g>
</g>
<g>
</g>
<g>
</g>
<g>
</g>
<g>
</g>
<g>
</g>
<g>
</g>
<g>
</g>
<g>
</g>
<g>
</g>
<g>
</g>
<g>
</g>
</svg>
